{"glyphs":{"0":{"ha":946,"x_min":56,"x_max":890,"o":"m 314 486 q 326 601 314 550 q 358 689 338 653 q 408 744 379 725 q 472 763 438 763 q 537 744 508 763 q 587 689 565 725 q 620 601 608 653 q 632 486 632 550 q 620 371 632 422 q 587 283 608 319 q 537 228 565 247 q 472 210 508 210 q 408 228 438 210 q 358 283 379 247 q 326 371 338 319 q 314 486 314 422 m 56 486 q 108 211 56 324 q 255 40 161 99 q 472 -19 349 -19 q 695 40 601 -19 q 840 211 789 99 q 890 486 890 324 q 840 761 890 649 q 695 933 789 874 q 472 992 601 992 q 255 933 349 992 q 108 761 161 874 q 56 486 56 649 z "},"1":{"ha":732,"x_min":89,"x_max":596,"o":"m 89 665 l 338 724 l 338 0 l 596 0 l 596 992 l 89 894 l 89 665 z "},"2":{"ha":947,"x_min":28,"x_max":893,"o":"m 28 0 l 893 0 l 893 246 l 519 246 l 721 415 q 825 532 786 468 q 864 675 864 596 q 839 791 864 735 q 765 893 814 847 q 643 966 715 939 q 478 993 571 993 q 253 940 344 993 q 117 798 163 886 q 72 606 72 710 l 336 606 q 352 688 336 651 q 399 744 368 724 q 468 764 429 764 q 520 755 499 764 q 557 731 542 746 q 579 697 572 717 q 586 657 586 678 q 570 585 586 619 q 524 517 554 551 q 454 436 494 482 l 28 0 z "},"3":{"ha":893,"x_min":61,"x_max":858,"o":"m 390 468 q 613 494 513 468 q 772 575 713 519 q 831 719 831 631 q 788 858 831 796 q 665 956 746 919 q 467 992 583 992 q 275 949 357 992 q 148 835 193 907 q 103 675 103 764 l 350 675 q 383 751 350 722 q 467 781 415 781 q 522 771 500 781 q 554 743 543 761 q 565 701 565 725 q 553 656 565 678 q 517 618 540 635 q 461 592 493 601 q 390 582 429 582 l 390 468 m 454 -25 q 674 13 583 -25 q 811 117 764 50 q 858 268 858 183 q 824 396 858 343 q 728 483 790 449 q 580 533 665 518 q 390 549 494 549 l 390 418 q 484 408 446 418 q 547 381 522 399 q 582 341 571 364 q 593 293 593 318 q 576 231 593 256 q 531 197 560 207 q 465 188 503 188 q 398 201 431 188 q 346 246 365 215 q 326 324 326 276 l 61 324 q 88 194 61 257 q 165 82 114 132 q 288 3 215 32 q 454 -25 361 -25 z "},"4":{"ha":1017,"x_min":17,"x_max":953,"o":"m 17 167 l 953 167 l 953 394 l 754 394 l 731 354 l 363 354 l 553 608 l 553 260 l 519 244 l 519 0 l 800 0 l 800 972 l 589 972 l 17 167 z "},"5":{"ha":929,"x_min":64,"x_max":874,"o":"m 874 308 q 831 481 874 411 q 719 588 788 551 q 576 624 651 624 q 483 617 528 624 q 400 590 439 610 l 451 739 l 849 739 l 849 972 l 256 972 l 118 399 q 219 432 168 421 q 317 447 269 443 q 399 451 364 451 q 483 441 442 451 q 551 407 524 431 q 578 342 578 383 q 556 275 578 301 q 494 238 533 249 q 399 226 454 226 q 328 235 368 226 q 242 264 288 244 q 153 314 197 283 l 64 83 q 172 33 113 57 q 303 -5 231 10 q 465 -19 376 -19 q 608 -1 536 -19 q 740 58 681 18 q 837 160 800 97 q 874 308 874 222 z "},"6":{"ha":968,"x_min":69,"x_max":899,"o":"m 336 347 q 356 425 336 392 q 409 476 375 458 q 485 494 443 494 q 560 476 526 494 q 613 425 593 458 q 632 347 632 392 q 613 271 632 303 q 560 221 593 239 q 485 203 526 203 q 409 221 443 203 q 356 271 375 239 q 336 347 336 303 m 464 967 l 197 639 q 107 503 144 574 q 69 347 69 432 q 126 140 69 222 q 277 16 183 57 q 485 -25 371 -25 q 692 16 597 -25 q 842 140 786 57 q 899 347 899 222 q 872 482 899 424 q 800 581 844 540 q 701 643 756 622 q 594 664 647 664 q 506 652 540 664 q 428 601 471 640 l 488 631 l 806 967 l 464 967 z "},"7":{"ha":869,"x_min":42,"x_max":868,"o":"m 42 721 l 474 721 l 106 0 l 397 0 l 868 972 l 42 972 l 42 721 z "},"8":{"ha":904,"x_min":71,"x_max":833,"o":"m 106 738 q 137 617 106 668 q 219 534 168 567 q 331 486 271 501 q 451 471 392 471 q 572 486 511 471 q 685 534 633 501 q 767 617 736 567 q 799 738 799 668 q 751 881 799 824 q 624 968 703 939 q 451 997 546 997 q 280 968 358 997 q 153 881 201 939 q 106 738 106 824 m 358 713 q 370 764 358 742 q 403 798 382 786 q 451 810 425 810 q 501 798 481 810 q 534 764 522 786 q 546 713 546 742 q 534 662 546 683 q 501 627 522 640 q 451 614 481 614 q 403 627 425 614 q 370 662 382 640 q 358 713 358 683 m 71 264 q 102 140 71 194 q 188 50 133 86 q 310 -6 242 14 q 451 -25 379 -25 q 593 -6 525 -25 q 716 50 661 14 q 802 140 771 86 q 833 264 833 194 q 797 399 833 344 q 703 488 761 454 q 578 538 644 522 q 451 553 511 553 q 326 538 392 553 q 201 488 260 522 q 107 399 143 454 q 71 264 71 344 m 340 306 q 355 361 340 336 q 395 401 369 386 q 451 415 421 415 q 509 401 483 415 q 549 361 535 386 q 564 306 564 336 q 549 243 564 268 q 509 205 535 218 q 451 192 483 192 q 395 205 421 192 q 355 243 369 218 q 340 306 340 268 z "},"9":{"ha":968,"x_min":69,"x_max":899,"o":"m 632 625 q 613 548 632 581 q 560 497 593 515 q 485 478 526 478 q 409 497 443 478 q 356 548 375 515 q 336 625 336 581 q 356 701 336 669 q 409 751 375 733 q 485 769 443 769 q 560 751 526 769 q 613 701 593 733 q 632 625 632 669 m 504 6 l 771 333 q 861 469 824 399 q 899 625 899 540 q 842 833 899 750 q 692 956 786 915 q 485 997 597 997 q 277 956 371 997 q 126 833 183 915 q 69 625 69 750 q 97 490 69 549 q 169 391 124 432 q 267 329 214 350 q 374 308 321 308 q 463 321 428 308 q 540 371 499 333 l 481 342 l 163 6 l 504 6 z "}," ":{"ha":417,"x_min":0,"x_max":0,"o":""}," ":{"ha":417,"x_min":0,"x_max":0,"o":""},"A":{"ha":1051,"x_min":-4,"x_max":1056,"o":"m 271 157 l 785 157 l 778 356 l 279 356 l 271 157 m 525 574 l 654 282 l 639 213 l 750 0 l 1056 0 l 525 1038 l -4 0 l 301 0 l 414 222 l 397 282 l 525 574 z "},"À":{"ha":1051,"x_min":-4,"x_max":1056,"o":"m 271 157 l 785 157 l 778 356 l 279 356 l 271 157 m 525 574 l 654 282 l 639 213 l 750 0 l 1056 0 l 525 1038 l -4 0 l 301 0 l 414 222 l 397 282 l 525 574 m 289 1329 l 539 1121 l 675 1185 l 467 1407 l 289 1329 z "},"Á":{"ha":1051,"x_min":-4,"x_max":1056,"o":"m 271 157 l 785 157 l 778 356 l 279 356 l 271 157 m 525 574 l 654 282 l 639 213 l 750 0 l 1056 0 l 525 1038 l -4 0 l 301 0 l 414 222 l 397 282 l 525 574 m 757 1329 l 579 1407 l 371 1185 l 507 1121 l 757 1329 z "},"Â":{"ha":1051,"x_min":-4,"x_max":1056,"o":"m 271 157 l 785 157 l 778 356 l 279 356 l 271 157 m 525 574 l 654 282 l 639 213 l 750 0 l 1056 0 l 525 1038 l -4 0 l 301 0 l 414 222 l 397 282 l 525 574 m 525 1225 l 644 1110 l 815 1222 l 525 1417 l 236 1222 l 407 1110 l 525 1225 z "},"Ã":{"ha":1051,"x_min":-4,"x_max":1056,"o":"m 271 157 l 785 157 l 778 356 l 279 356 l 271 157 m 525 574 l 654 282 l 639 213 l 750 0 l 1056 0 l 525 1038 l -4 0 l 301 0 l 414 222 l 397 282 l 525 574 m 240 1218 l 347 1122 q 352 1150 347 1133 q 372 1180 357 1167 q 411 1193 386 1193 q 478 1174 447 1193 q 542 1135 510 1154 q 613 1117 575 1117 q 700 1137 660 1117 q 770 1186 740 1157 q 811 1240 800 1215 l 701 1357 q 658 1302 681 1324 q 607 1281 636 1281 q 556 1292 578 1281 q 515 1317 535 1303 q 472 1344 496 1332 q 413 1356 447 1356 q 328 1335 365 1356 q 269 1283 292 1314 q 240 1218 247 1253 z "},"Ä":{"ha":1051,"x_min":-4,"x_max":1056,"o":"m 271 157 l 785 157 l 778 356 l 279 356 l 271 157 m 525 574 l 654 282 l 639 213 l 750 0 l 1056 0 l 525 1038 l -4 0 l 301 0 l 414 222 l 397 282 l 525 574 m 601 1144 q 641 1054 601 1089 q 738 1019 681 1019 q 834 1054 794 1019 q 874 1144 874 1089 q 834 1235 874 1200 q 738 1269 794 1269 q 641 1235 681 1269 q 601 1144 601 1200 m 167 1156 q 206 1066 167 1100 q 303 1032 246 1032 q 399 1066 360 1032 q 439 1156 439 1100 q 399 1246 439 1211 q 303 1281 360 1281 q 206 1246 246 1281 q 167 1156 167 1211 z "},"Å":{"ha":1051,"x_min":-4,"x_max":1056,"o":"m 271 157 l 785 157 l 778 356 l 279 356 l 271 157 m 525 574 l 654 282 l 639 213 l 750 0 l 1056 0 l 525 1038 l -4 0 l 301 0 l 414 222 l 397 282 l 525 574 m 343 1113 q 395 992 343 1039 q 525 946 447 946 q 656 992 603 946 q 708 1113 708 1039 q 656 1233 708 1188 q 525 1279 603 1279 q 395 1233 447 1279 q 343 1113 343 1188 m 463 1113 q 481 1160 463 1143 q 525 1178 499 1178 q 569 1160 551 1178 q 588 1113 588 1143 q 569 1065 588 1082 q 525 1049 551 1049 q 481 1065 499 1049 q 463 1113 463 1082 z "},"Ā":{"ha":1051,"x_min":-4,"x_max":1056,"o":"m 271 157 l 785 157 l 778 356 l 279 356 l 271 157 m 525 574 l 654 282 l 639 213 l 750 0 l 1056 0 l 525 1038 l -4 0 l 301 0 l 414 222 l 397 282 l 525 574 m 264 1121 l 788 1121 l 788 1326 l 264 1326 l 264 1121 z "},"Ă":{"ha":1051,"x_min":-4,"x_max":1056,"o":"m 271 157 l 785 157 l 778 356 l 279 356 l 271 157 m 525 574 l 654 282 l 639 213 l 750 0 l 1056 0 l 525 1038 l -4 0 l 301 0 l 414 222 l 397 282 l 525 574 m 294 1326 q 322 1222 294 1268 q 401 1148 349 1175 q 525 1121 453 1121 q 650 1148 599 1121 q 728 1222 701 1175 q 756 1326 756 1268 l 607 1326 q 595 1284 607 1301 q 565 1258 583 1267 q 525 1250 546 1250 q 487 1258 506 1250 q 456 1284 468 1267 q 444 1326 444 1301 l 294 1326 z "},"Ą":{"ha":1051,"x_min":-4,"x_max":1056,"o":"m 271 157 l 785 157 l 778 356 l 279 356 l 271 157 m 525 574 l 654 282 l 639 213 l 750 0 l 1056 0 l 525 1038 l -4 0 l 301 0 l 414 222 l 397 282 l 525 574 m 972 -147 q 940 -168 958 -161 q 903 -175 922 -175 q 869 -162 881 -175 q 858 -128 858 -150 q 870 -85 858 -107 q 906 -42 882 -64 q 965 0 929 -21 l 908 35 q 815 -19 860 10 q 742 -84 771 -49 q 714 -167 714 -119 q 737 -244 714 -212 q 796 -290 760 -275 q 874 -306 832 -306 q 969 -288 935 -306 q 1018 -250 1003 -271 l 972 -147 z "},"B":{"ha":965,"x_min":100,"x_max":907,"o":"m 300 475 l 490 475 q 676 503 594 475 q 804 588 757 532 q 851 724 851 644 q 804 862 851 807 q 676 944 757 917 q 490 972 594 972 l 100 972 l 100 0 l 515 0 q 725 27 638 0 q 860 114 813 54 q 907 271 907 174 q 873 399 907 346 q 782 487 839 453 q 656 537 725 521 q 515 553 586 553 l 300 553 l 300 406 l 482 406 q 538 401 513 406 q 584 386 564 397 q 615 357 604 375 q 626 311 626 339 q 607 245 626 268 q 555 214 588 222 q 482 206 522 206 l 369 206 l 369 767 l 457 767 q 542 746 513 767 q 571 681 571 725 q 558 631 571 651 q 519 599 544 610 q 457 588 494 588 l 300 588 l 300 475 z "},"C":{"ha":979,"x_min":44,"x_max":893,"o":"m 340 486 q 377 626 340 568 q 475 713 414 683 q 610 743 536 743 q 731 725 679 743 q 822 678 782 707 q 893 618 863 650 l 893 901 q 767 971 836 944 q 592 997 699 997 q 369 961 471 997 q 196 857 268 925 q 84 695 124 789 q 44 486 44 601 q 84 277 44 371 q 196 115 124 183 q 369 11 268 47 q 592 -25 471 -25 q 767 2 699 -25 q 893 71 836 29 l 893 354 q 822 294 863 322 q 731 247 782 265 q 610 229 679 229 q 475 259 536 229 q 377 347 414 289 q 340 486 340 404 z "},"Ç":{"ha":979,"x_min":44,"x_max":893,"o":"m 340 486 q 377 626 340 568 q 475 713 414 683 q 610 743 536 743 q 731 725 679 743 q 822 678 782 707 q 893 618 863 650 l 893 901 q 767 971 836 944 q 592 997 699 997 q 369 961 471 997 q 196 857 268 925 q 84 695 124 789 q 44 486 44 601 q 84 277 44 371 q 196 115 124 183 q 369 11 268 47 q 592 -25 471 -25 q 767 2 699 -25 q 893 71 836 29 l 893 354 q 822 294 863 322 q 731 247 782 265 q 610 229 679 229 q 475 259 536 229 q 377 347 414 289 q 340 486 340 404 m 489 63 l 365 -218 q 443 -200 406 -203 q 490 -197 481 -197 q 551 -205 522 -197 q 579 -240 579 -212 q 558 -276 579 -265 q 501 -287 538 -287 q 447 -279 483 -287 q 383 -251 411 -271 l 314 -358 q 422 -402 369 -390 q 538 -414 474 -414 q 627 -396 583 -414 q 700 -343 671 -378 q 729 -256 729 -308 q 708 -174 729 -207 q 655 -126 686 -142 q 594 -111 624 -111 q 562 -112 576 -111 q 532 -117 547 -112 l 661 56 l 489 63 z "},"Ć":{"ha":979,"x_min":44,"x_max":893,"o":"m 340 486 q 377 626 340 568 q 475 713 414 683 q 610 743 536 743 q 731 725 679 743 q 822 678 782 707 q 893 618 863 650 l 893 901 q 767 971 836 944 q 592 997 699 997 q 369 961 471 997 q 196 857 268 925 q 84 695 124 789 q 44 486 44 601 q 84 277 44 371 q 196 115 124 183 q 369 11 268 47 q 592 -25 471 -25 q 767 2 699 -25 q 893 71 836 29 l 893 354 q 822 294 863 322 q 731 247 782 265 q 610 229 679 229 q 475 259 536 229 q 377 347 414 289 q 340 486 340 404 m 772 1289 l 596 1367 l 388 1144 l 522 1081 l 772 1289 z "},"Ĉ":{"ha":979,"x_min":44,"x_max":893,"o":"m 340 486 q 377 626 340 568 q 475 713 414 683 q 610 743 536 743 q 731 725 679 743 q 822 678 782 707 q 893 618 863 650 l 893 901 q 767 971 836 944 q 592 997 699 997 q 369 961 471 997 q 196 857 268 925 q 84 695 124 789 q 44 486 44 601 q 84 277 44 371 q 196 115 124 183 q 369 11 268 47 q 592 -25 471 -25 q 767 2 699 -25 q 893 71 836 29 l 893 354 q 822 294 863 322 q 731 247 782 265 q 610 229 679 229 q 475 259 536 229 q 377 347 414 289 q 340 486 340 404 m 592 1196 l 711 1081 l 882 1192 l 592 1386 l 303 1192 l 474 1081 l 592 1196 z "},"Ċ":{"ha":979,"x_min":44,"x_max":893,"o":"m 340 486 q 377 626 340 568 q 475 713 414 683 q 610 743 536 743 q 731 725 679 743 q 822 678 782 707 q 893 618 863 650 l 893 901 q 767 971 836 944 q 592 997 699 997 q 369 961 471 997 q 196 857 268 925 q 84 695 124 789 q 44 486 44 601 q 84 277 44 371 q 196 115 124 183 q 369 11 268 47 q 592 -25 471 -25 q 767 2 699 -25 q 893 71 836 29 l 893 354 q 822 294 863 322 q 731 247 782 265 q 610 229 679 229 q 475 259 536 229 q 377 347 414 289 q 340 486 340 404 m 411 1206 q 451 1115 411 1150 q 547 1081 490 1081 q 644 1115 604 1081 q 683 1206 683 1150 q 644 1295 683 1261 q 547 1329 604 1329 q 451 1295 490 1329 q 411 1206 411 1261 z "},"Č":{"ha":979,"x_min":44,"x_max":893,"o":"m 340 486 q 377 626 340 568 q 475 713 414 683 q 610 743 536 743 q 731 725 679 743 q 822 678 782 707 q 893 618 863 650 l 893 901 q 767 971 836 944 q 592 997 699 997 q 369 961 471 997 q 196 857 268 925 q 84 695 124 789 q 44 486 44 601 q 84 277 44 371 q 196 115 124 183 q 369 11 268 47 q 592 -25 471 -25 q 767 2 699 -25 q 893 71 836 29 l 893 354 q 822 294 863 322 q 731 247 782 265 q 610 229 679 229 q 475 259 536 229 q 377 347 414 289 q 340 486 340 404 m 592 1272 l 474 1386 l 303 1275 l 592 1081 l 882 1275 l 711 1386 l 592 1272 z "},"D":{"ha":1040,"x_min":100,"x_max":996,"o":"m 100 972 l 100 0 l 379 0 l 379 972 l 100 972 m 464 0 q 748 59 629 0 q 931 227 867 118 q 996 486 996 336 q 931 746 996 638 q 748 913 867 854 q 464 972 629 972 l 283 972 l 283 736 l 453 736 q 548 726 501 736 q 632 688 594 715 q 692 612 669 661 q 715 486 715 563 q 692 360 715 410 q 632 284 669 311 q 548 247 594 257 q 453 236 501 236 l 283 236 l 283 0 l 464 0 z "},"Ď":{"ha":1040,"x_min":100,"x_max":996,"o":"m 100 972 l 100 0 l 379 0 l 379 972 l 100 972 m 464 0 q 748 59 629 0 q 931 227 867 118 q 996 486 996 336 q 931 746 996 638 q 748 913 867 854 q 464 972 629 972 l 283 972 l 283 736 l 453 736 q 548 726 501 736 q 632 688 594 715 q 692 612 669 661 q 715 486 715 563 q 692 360 715 410 q 632 284 669 311 q 548 247 594 257 q 453 236 501 236 l 283 236 l 283 0 l 464 0 m 540 1272 l 421 1386 l 250 1275 l 540 1081 l 829 1275 l 660 1386 l 540 1272 z "},"E":{"ha":860,"x_min":100,"x_max":774,"o":"m 283 0 l 774 0 l 774 218 l 283 218 l 283 0 m 283 754 l 774 754 l 774 972 l 283 972 l 283 754 m 283 400 l 746 400 l 746 611 l 283 611 l 283 400 m 100 972 l 100 0 l 358 0 l 358 972 l 100 972 z "},"È":{"ha":860,"x_min":100,"x_max":774,"o":"m 283 0 l 774 0 l 774 218 l 283 218 l 283 0 m 283 754 l 774 754 l 774 972 l 283 972 l 283 754 m 283 400 l 746 400 l 746 611 l 283 611 l 283 400 m 100 972 l 100 0 l 358 0 l 358 972 l 100 972 m 200 1300 l 450 1092 l 585 1156 l 376 1378 l 200 1300 z "},"É":{"ha":860,"x_min":100,"x_max":774,"o":"m 283 0 l 774 0 l 774 218 l 283 218 l 283 0 m 283 754 l 774 754 l 774 972 l 283 972 l 283 754 m 283 400 l 746 400 l 746 611 l 283 611 l 283 400 m 100 972 l 100 0 l 358 0 l 358 972 l 100 972 m 668 1300 l 492 1378 l 283 1156 l 418 1092 l 668 1300 z "},"Ê":{"ha":860,"x_min":100,"x_max":774,"o":"m 283 0 l 774 0 l 774 218 l 283 218 l 283 0 m 283 754 l 774 754 l 774 972 l 283 972 l 283 754 m 283 400 l 746 400 l 746 611 l 283 611 l 283 400 m 100 972 l 100 0 l 358 0 l 358 972 l 100 972 m 439 1196 l 558 1081 l 728 1192 l 439 1386 l 149 1192 l 319 1081 l 439 1196 z "},"Ë":{"ha":860,"x_min":100,"x_max":774,"o":"m 283 0 l 774 0 l 774 218 l 283 218 l 283 0 m 283 754 l 774 754 l 774 972 l 283 972 l 283 754 m 283 400 l 746 400 l 746 611 l 283 611 l 283 400 m 100 972 l 100 0 l 358 0 l 358 972 l 100 972 m 482 1211 q 522 1121 482 1156 q 618 1086 561 1086 q 715 1121 675 1086 q 754 1211 754 1156 q 715 1301 754 1267 q 618 1335 675 1335 q 522 1301 561 1335 q 482 1211 482 1267 m 126 1211 q 166 1121 126 1156 q 261 1086 206 1086 q 358 1121 318 1086 q 397 1211 397 1156 q 358 1301 397 1267 q 261 1335 318 1335 q 166 1301 206 1335 q 126 1211 126 1267 z "},"Ē":{"ha":860,"x_min":100,"x_max":774,"o":"m 283 0 l 774 0 l 774 218 l 283 218 l 283 0 m 283 754 l 774 754 l 774 972 l 283 972 l 283 754 m 283 400 l 746 400 l 746 611 l 283 611 l 283 400 m 100 972 l 100 0 l 358 0 l 358 972 l 100 972 m 174 1081 l 699 1081 l 699 1286 l 174 1286 l 174 1081 z "},"Ĕ":{"ha":860,"x_min":100,"x_max":774,"o":"m 283 0 l 774 0 l 774 218 l 283 218 l 283 0 m 283 754 l 774 754 l 774 972 l 283 972 l 283 754 m 283 400 l 746 400 l 746 611 l 283 611 l 283 400 m 100 972 l 100 0 l 358 0 l 358 972 l 100 972 m 206 1286 q 233 1181 206 1228 q 312 1108 260 1135 q 436 1081 364 1081 q 561 1108 510 1081 q 640 1181 613 1135 q 667 1286 667 1228 l 518 1286 q 506 1243 518 1260 q 475 1218 493 1226 q 436 1210 457 1210 q 397 1218 415 1210 q 366 1243 378 1226 q 354 1286 354 1260 l 206 1286 z "},"Ė":{"ha":860,"x_min":100,"x_max":774,"o":"m 283 0 l 774 0 l 774 218 l 283 218 l 283 0 m 283 754 l 774 754 l 774 972 l 283 972 l 283 754 m 283 400 l 746 400 l 746 611 l 283 611 l 283 400 m 100 972 l 100 0 l 358 0 l 358 972 l 100 972 m 300 1206 q 340 1115 300 1150 q 436 1081 379 1081 q 533 1115 493 1081 q 572 1206 572 1150 q 533 1295 572 1261 q 436 1329 493 1329 q 340 1295 379 1329 q 300 1206 300 1261 z "},"Ę":{"ha":860,"x_min":100,"x_max":774,"o":"m 283 0 l 774 0 l 774 218 l 283 218 l 283 0 m 283 754 l 774 754 l 774 972 l 283 972 l 283 754 m 283 400 l 746 400 l 746 611 l 283 611 l 283 400 m 100 972 l 100 0 l 358 0 l 358 972 l 100 972 m 568 -147 q 536 -168 554 -161 q 499 -175 518 -175 q 466 -162 476 -175 q 456 -128 456 -150 q 467 -85 456 -107 q 501 -42 478 -64 q 561 0 525 -21 l 504 35 q 411 -19 456 10 q 338 -84 367 -49 q 310 -167 310 -119 q 333 -244 310 -212 q 392 -290 356 -275 q 469 -306 428 -306 q 565 -288 531 -306 q 614 -250 599 -271 l 568 -147 z "},"Ě":{"ha":860,"x_min":100,"x_max":774,"o":"m 283 0 l 774 0 l 774 218 l 283 218 l 283 0 m 283 754 l 774 754 l 774 972 l 283 972 l 283 754 m 283 400 l 746 400 l 746 611 l 283 611 l 283 400 m 100 972 l 100 0 l 358 0 l 358 972 l 100 972 m 436 1272 l 317 1386 l 146 1275 l 436 1081 l 725 1275 l 556 1386 l 436 1272 z "},"F":{"ha":790,"x_min":100,"x_max":718,"o":"m 283 743 l 718 743 l 718 972 l 283 972 l 283 743 m 283 365 l 704 365 l 704 578 l 283 578 l 283 365 m 100 972 l 100 0 l 358 0 l 358 972 l 100 972 z "},"G":{"ha":1147,"x_min":44,"x_max":1104,"o":"m 590 343 l 831 343 q 798 283 818 311 q 750 235 778 256 q 685 205 722 215 q 599 194 647 194 q 457 229 518 194 q 361 330 396 264 q 326 486 326 396 q 363 640 326 578 q 462 735 400 703 q 599 767 524 767 q 725 731 676 767 q 803 642 774 694 l 1049 760 q 938 881 1001 828 q 790 966 874 935 q 599 997 706 997 q 379 962 481 997 q 203 859 278 926 q 86 697 128 792 q 44 486 44 603 q 85 273 44 369 q 198 108 125 176 q 370 1 271 39 q 588 -36 469 -36 q 814 9 715 -36 q 978 133 913 54 q 1074 318 1043 213 q 1094 543 1104 424 l 590 543 l 590 343 z "},"Ĝ":{"ha":1147,"x_min":44,"x_max":1104,"o":"m 590 343 l 831 343 q 798 283 818 311 q 750 235 778 256 q 685 205 722 215 q 599 194 647 194 q 457 229 518 194 q 361 330 396 264 q 326 486 326 396 q 363 640 326 578 q 462 735 400 703 q 599 767 524 767 q 725 731 676 767 q 803 642 774 694 l 1049 760 q 938 881 1001 828 q 790 966 874 935 q 599 997 706 997 q 379 962 481 997 q 203 859 278 926 q 86 697 128 792 q 44 486 44 603 q 85 273 44 369 q 198 108 125 176 q 370 1 271 39 q 588 -36 469 -36 q 814 9 715 -36 q 978 133 913 54 q 1074 318 1043 213 q 1094 543 1104 424 l 590 543 l 590 343 m 599 1196 l 718 1081 l 889 1192 l 599 1386 l 310 1192 l 481 1081 l 599 1196 z "},"Ğ":{"ha":1147,"x_min":44,"x_max":1104,"o":"m 590 343 l 831 343 q 798 283 818 311 q 750 235 778 256 q 685 205 722 215 q 599 194 647 194 q 457 229 518 194 q 361 330 396 264 q 326 486 326 396 q 363 640 326 578 q 462 735 400 703 q 599 767 524 767 q 725 731 676 767 q 803 642 774 694 l 1049 760 q 938 881 1001 828 q 790 966 874 935 q 599 997 706 997 q 379 962 481 997 q 203 859 278 926 q 86 697 128 792 q 44 486 44 603 q 85 273 44 369 q 198 108 125 176 q 370 1 271 39 q 588 -36 469 -36 q 814 9 715 -36 q 978 133 913 54 q 1074 318 1043 213 q 1094 543 1104 424 l 590 543 l 590 343 m 368 1286 q 395 1181 368 1228 q 474 1108 422 1135 q 599 1081 526 1081 q 724 1108 672 1081 q 802 1181 775 1135 q 829 1286 829 1228 l 681 1286 q 669 1243 681 1260 q 638 1218 657 1226 q 599 1210 619 1210 q 560 1218 578 1210 q 530 1243 542 1226 q 518 1286 518 1260 l 368 1286 z "},"Ġ":{"ha":1147,"x_min":44,"x_max":1104,"o":"m 590 343 l 831 343 q 798 283 818 311 q 750 235 778 256 q 685 205 722 215 q 599 194 647 194 q 457 229 518 194 q 361 330 396 264 q 326 486 326 396 q 363 640 326 578 q 462 735 400 703 q 599 767 524 767 q 725 731 676 767 q 803 642 774 694 l 1049 760 q 938 881 1001 828 q 790 966 874 935 q 599 997 706 997 q 379 962 481 997 q 203 859 278 926 q 86 697 128 792 q 44 486 44 603 q 85 273 44 369 q 198 108 125 176 q 370 1 271 39 q 588 -36 469 -36 q 814 9 715 -36 q 978 133 913 54 q 1074 318 1043 213 q 1094 543 1104 424 l 590 543 l 590 343 m 464 1206 q 503 1115 464 1150 q 599 1081 543 1081 q 695 1115 656 1081 q 735 1206 735 1150 q 695 1295 735 1261 q 599 1329 656 1329 q 503 1295 543 1329 q 464 1206 464 1261 z "},"Ģ":{"ha":1147,"x_min":44,"x_max":1104,"o":"m 590 343 l 831 343 q 798 283 818 311 q 750 235 778 256 q 685 205 722 215 q 599 194 647 194 q 457 229 518 194 q 361 330 396 264 q 326 486 326 396 q 363 640 326 578 q 462 735 400 703 q 599 767 524 767 q 725 731 676 767 q 803 642 774 694 l 1049 760 q 938 881 1001 828 q 790 966 874 935 q 599 997 706 997 q 379 962 481 997 q 203 859 278 926 q 86 697 128 792 q 44 486 44 603 q 85 273 44 369 q 198 108 125 176 q 370 1 271 39 q 588 -36 469 -36 q 814 9 715 -36 q 978 133 913 54 q 1074 318 1043 213 q 1094 543 1104 424 l 590 543 l 590 343 m 474 -119 l 351 -479 l 533 -512 l 714 -165 l 474 -119 z "},"H":{"ha":1122,"x_min":100,"x_max":1022,"o":"m 165 388 l 921 388 l 921 628 l 165 628 l 165 388 m 753 972 l 753 0 l 1022 0 l 1022 972 l 753 972 m 100 972 l 100 0 l 369 0 l 369 972 l 100 972 z "},"Ĥ":{"ha":1122,"x_min":100,"x_max":1022,"o":"m 165 388 l 921 388 l 921 628 l 165 628 l 165 388 m 753 972 l 753 0 l 1022 0 l 1022 972 l 753 972 m 100 972 l 100 0 l 369 0 l 369 972 l 100 972 m 561 1196 l 681 1081 l 850 1192 l 561 1386 l 272 1192 l 442 1081 l 561 1196 z "},"I":{"ha":475,"x_min":100,"x_max":375,"o":"m 100 972 l 100 0 l 375 0 l 375 972 l 100 972 z "},"Ì":{"ha":475,"x_min":-11,"x_max":375,"o":"m 100 972 l 100 0 l 375 0 l 375 972 l 100 972 m -11 1300 l 239 1092 l 375 1156 l 167 1378 l -11 1300 z "},"Í":{"ha":475,"x_min":72,"x_max":457,"o":"m 100 972 l 100 0 l 375 0 l 375 972 l 100 972 m 457 1300 l 281 1378 l 72 1156 l 207 1092 l 457 1300 z "},"Î":{"ha":475,"x_min":-51,"x_max":528,"o":"m 100 972 l 100 0 l 375 0 l 375 972 l 100 972 m 238 1196 l 357 1081 l 528 1192 l 238 1386 l -51 1192 l 118 1081 l 238 1196 z "},"Ï":{"ha":475,"x_min":-76,"x_max":551,"o":"m 100 972 l 100 0 l 375 0 l 375 972 l 100 972 m 281 1206 q 320 1115 281 1150 q 415 1081 360 1081 q 512 1115 472 1081 q 551 1206 551 1150 q 512 1295 551 1261 q 415 1329 472 1329 q 320 1295 360 1329 q 281 1206 281 1261 m -76 1206 q -37 1115 -76 1150 q 60 1081 3 1081 q 156 1115 117 1081 q 196 1206 196 1150 q 156 1295 196 1261 q 60 1329 117 1329 q -37 1295 3 1329 q -76 1206 -76 1261 z "},"Ĩ":{"ha":475,"x_min":-47,"x_max":524,"o":"m 100 972 l 100 0 l 375 0 l 375 972 l 100 972 m -47 1183 l 58 1088 q 64 1115 58 1099 q 84 1145 69 1132 q 124 1158 99 1158 q 191 1139 160 1158 q 255 1101 222 1119 q 325 1082 288 1082 q 412 1102 371 1082 q 483 1151 453 1122 q 524 1206 513 1181 l 414 1321 q 370 1267 393 1288 q 319 1246 347 1246 q 267 1257 289 1246 q 226 1283 246 1268 q 183 1308 207 1297 q 124 1319 158 1319 q 40 1299 76 1319 q -18 1249 4 1279 q -47 1183 -40 1218 z "},"Ī":{"ha":475,"x_min":-25,"x_max":500,"o":"m 100 972 l 100 0 l 375 0 l 375 972 l 100 972 m -25 1081 l 500 1081 l 500 1286 l -25 1286 l -25 1081 z "},"Ĭ":{"ha":475,"x_min":7,"x_max":468,"o":"m 100 972 l 100 0 l 375 0 l 375 972 l 100 972 m 7 1286 q 34 1181 7 1228 q 113 1108 61 1135 q 238 1081 165 1081 q 363 1108 311 1081 q 441 1181 414 1135 q 468 1286 468 1228 l 318 1286 q 306 1243 318 1260 q 276 1218 294 1226 q 238 1210 257 1210 q 198 1218 217 1210 q 167 1243 179 1226 q 156 1286 156 1260 l 7 1286 z "},"Į":{"ha":475,"x_min":76,"x_max":382,"o":"m 100 972 l 100 0 l 375 0 l 375 972 l 100 972 m 335 -143 q 303 -164 321 -157 q 265 -171 285 -171 q 232 -158 243 -171 q 221 -125 221 -146 q 233 -83 221 -104 q 269 -40 244 -61 q 329 3 293 -18 l 271 38 q 178 -16 222 13 q 105 -81 133 -44 q 76 -164 76 -117 q 99 -241 76 -210 q 159 -287 122 -272 q 238 -303 196 -303 q 333 -285 299 -303 q 382 -247 367 -268 l 335 -143 z "},"İ":{"ha":475,"x_min":100,"x_max":375,"o":"m 100 972 l 100 0 l 375 0 l 375 972 l 100 972 m 101 1206 q 141 1115 101 1150 q 236 1081 181 1081 q 333 1115 293 1081 q 372 1206 372 1150 q 333 1295 372 1261 q 236 1329 293 1329 q 141 1295 181 1329 q 101 1206 101 1261 z "},"J":{"ha":496,"x_min":-250,"x_max":396,"o":"m -101 -72 l -250 -258 q -170 -296 -215 -278 q -70 -326 -125 -314 q 43 -339 -15 -339 q 177 -325 114 -339 q 290 -280 240 -311 q 367 -197 339 -249 q 396 -72 396 -146 l 396 972 l 100 972 l 100 -8 q 72 -92 100 -68 q 11 -117 43 -117 q -49 -103 -18 -117 q -101 -72 -79 -89 z "},"Ĵ":{"ha":496,"x_min":-250,"x_max":538,"o":"m -101 -72 l -250 -258 q -170 -296 -215 -278 q -70 -326 -125 -314 q 43 -339 -15 -339 q 177 -325 114 -339 q 290 -280 240 -311 q 367 -197 339 -249 q 396 -72 396 -146 l 396 972 l 100 972 l 100 -8 q 72 -92 100 -68 q 11 -117 43 -117 q -49 -103 -18 -117 q -101 -72 -79 -89 m 247 1196 l 367 1081 l 538 1192 l 247 1386 l -42 1192 l 128 1081 l 247 1196 z "},"K":{"ha":1026,"x_min":100,"x_max":1031,"o":"m 100 972 l 100 0 l 381 0 l 381 972 l 100 972 m 696 972 l 303 508 l 704 0 l 1031 0 l 624 517 l 1010 972 l 696 972 z "},"Ķ":{"ha":1026,"x_min":100,"x_max":1031,"o":"m 100 972 l 100 0 l 381 0 l 381 972 l 100 972 m 696 972 l 303 508 l 704 0 l 1031 0 l 624 517 l 1010 972 l 696 972 m 461 -83 l 339 -443 l 521 -476 l 703 -129 l 461 -83 z "},"L":{"ha":765,"x_min":100,"x_max":763,"o":"m 100 972 l 100 0 l 763 0 l 763 229 l 369 229 l 369 972 l 100 972 z "},"Ĺ":{"ha":765,"x_min":100,"x_max":763,"o":"m 100 972 l 100 0 l 763 0 l 763 229 l 369 229 l 369 972 l 100 972 m 668 1289 l 492 1367 l 283 1144 l 418 1081 l 668 1289 z "},"Ļ":{"ha":765,"x_min":100,"x_max":763,"o":"m 100 972 l 100 0 l 763 0 l 763 229 l 369 229 l 369 972 l 100 972 m 372 -83 l 250 -443 l 432 -476 l 613 -129 l 372 -83 z "},"Ľ":{"ha":765,"x_min":100,"x_max":847,"o":"m 100 972 l 100 0 l 763 0 l 763 229 l 369 229 l 369 972 l 100 972 m 607 997 l 485 638 l 667 604 l 847 951 l 607 997 z "},"M":{"ha":1271,"x_min":44,"x_max":1226,"o":"m 385 447 l 635 90 l 886 447 l 940 0 l 1226 0 l 1058 1021 l 635 461 l 213 1021 l 44 0 l 331 0 l 385 447 z "},"N":{"ha":1110,"x_min":100,"x_max":1010,"o":"m 751 972 l 751 478 l 100 1021 l 100 0 l 358 0 l 358 494 l 1010 -49 l 1010 972 l 751 972 z "},"Ñ":{"ha":1110,"x_min":100,"x_max":1010,"o":"m 751 972 l 751 478 l 100 1021 l 100 0 l 358 0 l 358 494 l 1010 -49 l 1010 972 l 751 972 m 221 1174 l 328 1078 q 333 1106 328 1089 q 351 1135 338 1122 q 392 1149 365 1149 q 458 1129 426 1149 q 522 1091 489 1110 q 593 1072 556 1072 q 680 1092 639 1072 q 750 1142 721 1113 q 790 1196 779 1171 l 682 1311 q 638 1257 661 1278 q 588 1236 615 1236 q 535 1247 557 1236 q 495 1273 514 1258 q 451 1299 476 1288 q 393 1310 426 1310 q 309 1290 346 1310 q 250 1239 272 1269 q 221 1174 228 1208 z "},"Ń":{"ha":1110,"x_min":100,"x_max":1010,"o":"m 751 972 l 751 478 l 100 1021 l 100 0 l 358 0 l 358 494 l 1010 -49 l 1010 972 l 751 972 m 756 1268 l 578 1346 l 369 1124 l 506 1060 l 756 1268 z "},"Ņ":{"ha":1110,"x_min":100,"x_max":1010,"o":"m 490 -82 l 368 -442 l 550 -475 l 729 -128 l 490 -82 m 751 972 l 751 478 l 100 1021 l 100 0 l 358 0 l 358 494 l 1010 -49 l 1010 972 l 751 972 z "},"Ň":{"ha":1110,"x_min":100,"x_max":1010,"o":"m 511 1261 l 392 1376 l 221 1265 l 511 1071 l 800 1265 l 631 1376 l 511 1261 m 751 972 l 751 478 l 100 1021 l 100 0 l 358 0 l 358 494 l 1010 -49 l 1010 972 l 751 972 z "},"O":{"ha":1153,"x_min":44,"x_max":1108,"o":"m 329 486 q 360 625 329 565 q 446 719 390 685 q 576 753 501 753 q 710 719 656 753 q 794 625 765 685 q 824 486 824 565 q 793 348 824 408 q 708 253 763 288 q 576 219 653 219 q 446 253 501 219 q 360 348 390 288 q 329 486 329 408 m 44 486 q 83 276 44 372 q 194 110 122 181 q 363 2 265 40 q 576 -36 460 -36 q 791 2 693 -36 q 960 110 889 40 q 1069 276 1031 181 q 1108 486 1108 372 q 1069 695 1108 601 q 957 856 1029 789 q 788 960 885 924 q 576 997 692 997 q 367 960 464 997 q 199 856 271 924 q 85 695 126 789 q 44 486 44 601 z "},"Ò":{"ha":1153,"x_min":44,"x_max":1108,"o":"m 329 486 q 360 625 329 565 q 446 719 390 685 q 576 753 501 753 q 710 719 656 753 q 794 625 765 685 q 824 486 824 565 q 793 348 824 408 q 708 253 763 288 q 576 219 653 219 q 446 253 501 219 q 360 348 390 288 q 329 486 329 408 m 44 486 q 83 276 44 372 q 194 110 122 181 q 363 2 265 40 q 576 -36 460 -36 q 791 2 693 -36 q 960 110 889 40 q 1069 276 1031 181 q 1108 486 1108 372 q 1069 695 1108 601 q 957 856 1029 789 q 788 960 885 924 q 576 997 692 997 q 367 960 464 997 q 199 856 271 924 q 85 695 126 789 q 44 486 44 601 m 360 1300 l 610 1092 l 744 1156 l 536 1378 l 360 1300 z "},"Ó":{"ha":1153,"x_min":44,"x_max":1108,"o":"m 329 486 q 360 625 329 565 q 446 719 390 685 q 576 753 501 753 q 710 719 656 753 q 794 625 765 685 q 824 486 824 565 q 793 348 824 408 q 708 253 763 288 q 576 219 653 219 q 446 253 501 219 q 360 348 390 288 q 329 486 329 408 m 44 486 q 83 276 44 372 q 194 110 122 181 q 363 2 265 40 q 576 -36 460 -36 q 791 2 693 -36 q 960 110 889 40 q 1069 276 1031 181 q 1108 486 1108 372 q 1069 695 1108 601 q 957 856 1029 789 q 788 960 885 924 q 576 997 692 997 q 367 960 464 997 q 199 856 271 924 q 85 695 126 789 q 44 486 44 601 m 822 1300 l 644 1378 l 436 1156 l 572 1092 l 822 1300 z "},"Ô":{"ha":1153,"x_min":44,"x_max":1108,"o":"m 329 486 q 360 625 329 565 q 446 719 390 685 q 576 753 501 753 q 710 719 656 753 q 794 625 765 685 q 824 486 824 565 q 793 348 824 408 q 708 253 763 288 q 576 219 653 219 q 446 253 501 219 q 360 348 390 288 q 329 486 329 408 m 44 486 q 83 276 44 372 q 194 110 122 181 q 363 2 265 40 q 576 -36 460 -36 q 791 2 693 -36 q 960 110 889 40 q 1069 276 1031 181 q 1108 486 1108 372 q 1069 695 1108 601 q 957 856 1029 789 q 788 960 885 924 q 576 997 692 997 q 367 960 464 997 q 199 856 271 924 q 85 695 126 789 q 44 486 44 601 m 593 1196 l 713 1081 l 883 1192 l 593 1386 l 304 1192 l 474 1081 l 593 1196 z "},"Õ":{"ha":1153,"x_min":44,"x_max":1108,"o":"m 329 486 q 360 625 329 565 q 446 719 390 685 q 576 753 501 753 q 710 719 656 753 q 794 625 765 685 q 824 486 824 565 q 793 348 824 408 q 708 253 763 288 q 576 219 653 219 q 446 253 501 219 q 360 348 390 288 q 329 486 329 408 m 44 486 q 83 276 44 372 q 194 110 122 181 q 363 2 265 40 q 576 -36 460 -36 q 791 2 693 -36 q 960 110 889 40 q 1069 276 1031 181 q 1108 486 1108 372 q 1069 695 1108 601 q 957 856 1029 789 q 788 960 885 924 q 576 997 692 997 q 367 960 464 997 q 199 856 271 924 q 85 695 126 789 q 44 486 44 601 m 303 1178 l 410 1082 q 415 1110 410 1093 q 434 1140 419 1126 q 474 1153 449 1153 q 540 1133 508 1153 q 605 1095 572 1114 q 675 1076 638 1076 q 762 1097 721 1076 q 833 1146 803 1117 q 874 1200 863 1175 l 764 1315 q 721 1261 743 1282 q 669 1240 699 1240 q 619 1251 640 1240 q 578 1277 597 1263 q 534 1303 558 1292 q 475 1314 510 1314 q 391 1294 428 1314 q 332 1243 354 1274 q 303 1178 310 1213 z "},"Ö":{"ha":1153,"x_min":44,"x_max":1108,"o":"m 329 486 q 360 625 329 565 q 446 719 390 685 q 576 753 501 753 q 710 719 656 753 q 794 625 765 685 q 824 486 824 565 q 793 348 824 408 q 708 253 763 288 q 576 219 653 219 q 446 253 501 219 q 360 348 390 288 q 329 486 329 408 m 44 486 q 83 276 44 372 q 194 110 122 181 q 363 2 265 40 q 576 -36 460 -36 q 791 2 693 -36 q 960 110 889 40 q 1069 276 1031 181 q 1108 486 1108 372 q 1069 695 1108 601 q 957 856 1029 789 q 788 960 885 924 q 576 997 692 997 q 367 960 464 997 q 199 856 271 924 q 85 695 126 789 q 44 486 44 601 m 619 1206 q 659 1115 619 1150 q 754 1081 699 1081 q 851 1115 811 1081 q 890 1206 890 1150 q 851 1295 890 1261 q 754 1329 811 1329 q 659 1295 699 1329 q 619 1206 619 1261 m 263 1206 q 302 1115 263 1150 q 399 1081 342 1081 q 495 1115 456 1081 q 535 1206 535 1150 q 495 1295 535 1261 q 399 1329 456 1329 q 302 1295 342 1329 q 263 1206 263 1261 z "},"Ō":{"ha":1153,"x_min":44,"x_max":1108,"o":"m 329 486 q 360 625 329 565 q 446 719 390 685 q 576 753 501 753 q 710 719 656 753 q 794 625 765 685 q 824 486 824 565 q 793 348 824 408 q 708 253 763 288 q 576 219 653 219 q 446 253 501 219 q 360 348 390 288 q 329 486 329 408 m 44 486 q 83 276 44 372 q 194 110 122 181 q 363 2 265 40 q 576 -36 460 -36 q 791 2 693 -36 q 960 110 889 40 q 1069 276 1031 181 q 1108 486 1108 372 q 1069 695 1108 601 q 957 856 1029 789 q 788 960 885 924 q 576 997 692 997 q 367 960 464 997 q 199 856 271 924 q 85 695 126 789 q 44 486 44 601 m 314 1081 l 839 1081 l 839 1286 l 314 1286 l 314 1081 z "},"Ŏ":{"ha":1153,"x_min":44,"x_max":1108,"o":"m 329 486 q 360 625 329 565 q 446 719 390 685 q 576 753 501 753 q 710 719 656 753 q 794 625 765 685 q 824 486 824 565 q 793 348 824 408 q 708 253 763 288 q 576 219 653 219 q 446 253 501 219 q 360 348 390 288 q 329 486 329 408 m 44 486 q 83 276 44 372 q 194 110 122 181 q 363 2 265 40 q 576 -36 460 -36 q 791 2 693 -36 q 960 110 889 40 q 1069 276 1031 181 q 1108 486 1108 372 q 1069 695 1108 601 q 957 856 1029 789 q 788 960 885 924 q 576 997 692 997 q 367 960 464 997 q 199 856 271 924 q 85 695 126 789 q 44 486 44 601 m 346 1286 q 373 1181 346 1228 q 452 1108 400 1135 q 576 1081 504 1081 q 701 1108 650 1081 q 780 1181 753 1135 q 807 1286 807 1228 l 658 1286 q 647 1243 658 1260 q 616 1218 635 1226 q 576 1210 597 1210 q 538 1218 556 1210 q 507 1243 519 1226 q 494 1286 494 1260 l 346 1286 z "},"Ő":{"ha":1153,"x_min":44,"x_max":1108,"o":"m 442 1081 l 647 1332 l 460 1378 l 297 1119 l 442 1081 m 711 1081 l 917 1332 l 728 1378 l 565 1119 l 711 1081 m 329 486 q 360 625 329 565 q 446 719 390 685 q 576 753 501 753 q 710 719 656 753 q 794 625 765 685 q 824 486 824 565 q 793 348 824 408 q 708 253 763 288 q 576 219 653 219 q 446 253 501 219 q 360 348 390 288 q 329 486 329 408 m 44 486 q 83 276 44 372 q 194 110 122 181 q 363 2 265 40 q 576 -36 460 -36 q 791 2 693 -36 q 960 110 889 40 q 1069 276 1031 181 q 1108 486 1108 372 q 1069 695 1108 601 q 957 856 1029 789 q 788 960 885 924 q 576 997 692 997 q 367 960 464 997 q 199 856 271 924 q 85 695 126 789 q 44 486 44 601 z "},"P":{"ha":896,"x_min":100,"x_max":851,"o":"m 100 972 l 100 0 l 369 0 l 369 972 l 100 972 m 272 754 l 460 754 q 558 726 524 754 q 593 647 593 699 q 558 567 593 594 q 460 539 524 539 l 272 539 l 272 322 l 460 322 q 680 361 593 322 q 809 474 767 400 q 851 647 851 547 q 809 821 851 749 q 680 933 767 893 q 460 972 593 972 l 272 972 l 272 754 z "},"Q":{"ha":1229,"x_min":44,"x_max":1240,"o":"m 329 486 q 361 625 329 565 q 450 719 393 685 q 582 753 507 753 q 733 710 672 753 q 826 600 794 668 q 857 453 857 532 q 826 317 857 374 q 738 228 794 260 q 604 197 681 197 q 467 232 529 197 q 367 332 404 267 q 329 486 329 397 m 44 486 q 84 276 44 372 q 197 110 124 181 q 367 2 269 40 q 582 -36 465 -36 q 795 2 699 -36 q 963 110 892 40 q 1071 276 1033 181 q 1108 486 1108 372 q 1069 695 1108 601 q 960 856 1031 789 q 794 960 890 924 q 582 997 697 997 q 372 960 469 997 q 201 856 275 924 q 85 695 126 789 q 44 486 44 601 m 486 417 l 958 -22 l 1240 -22 l 757 417 l 486 417 z "},"R":{"ha":935,"x_min":100,"x_max":932,"o":"m 363 429 l 618 0 l 932 0 l 640 429 l 363 429 m 100 972 l 100 0 l 369 0 l 369 972 l 100 972 m 272 744 l 460 744 q 532 732 503 744 q 577 695 561 719 q 593 636 593 671 q 577 576 593 601 q 532 539 561 551 q 460 526 503 526 l 272 526 l 272 322 l 482 322 q 702 363 615 322 q 831 478 789 404 q 874 647 874 553 q 831 816 874 743 q 702 931 789 889 q 482 972 615 972 l 272 972 l 272 744 z "},"Ŕ":{"ha":935,"x_min":100,"x_max":932,"o":"m 363 429 l 618 0 l 932 0 l 640 429 l 363 429 m 100 972 l 100 0 l 369 0 l 369 972 l 100 972 m 272 744 l 460 744 q 532 732 503 744 q 577 695 561 719 q 593 636 593 671 q 577 576 593 601 q 532 539 561 551 q 460 526 503 526 l 272 526 l 272 322 l 482 322 q 702 363 615 322 q 831 478 789 404 q 874 647 874 553 q 831 816 874 743 q 702 931 789 889 q 482 972 615 972 l 272 972 l 272 744 m 678 1289 l 501 1367 l 293 1144 l 428 1081 l 678 1289 z "},"Ŗ":{"ha":935,"x_min":100,"x_max":932,"o":"m 363 429 l 618 0 l 932 0 l 640 429 l 363 429 m 100 972 l 100 0 l 369 0 l 369 972 l 100 972 m 272 744 l 460 744 q 532 732 503 744 q 577 695 561 719 q 593 636 593 671 q 577 576 593 601 q 532 539 561 551 q 460 526 503 526 l 272 526 l 272 322 l 482 322 q 702 363 615 322 q 831 478 789 404 q 874 647 874 553 q 831 816 874 743 q 702 931 789 889 q 482 972 615 972 l 272 972 l 272 744 m 457 -83 l 335 -443 l 517 -476 l 697 -129 l 457 -83 z "},"Ř":{"ha":935,"x_min":100,"x_max":932,"o":"m 363 429 l 618 0 l 932 0 l 640 429 l 363 429 m 100 972 l 100 0 l 369 0 l 369 972 l 100 972 m 272 744 l 460 744 q 532 732 503 744 q 577 695 561 719 q 593 636 593 671 q 577 576 593 601 q 532 539 561 551 q 460 526 503 526 l 272 526 l 272 322 l 482 322 q 702 363 615 322 q 831 478 789 404 q 874 647 874 553 q 831 816 874 743 q 702 931 789 889 q 482 972 615 972 l 272 972 l 272 744 m 458 1272 l 339 1386 l 169 1275 l 458 1081 l 747 1275 l 578 1386 l 458 1272 z "},"Ȓ":{"ha":935,"x_min":100,"x_max":932,"o":"m 363 429 l 618 0 l 932 0 l 640 429 l 363 429 m 100 972 l 100 0 l 369 0 l 369 972 l 100 972 m 272 744 l 460 744 q 532 732 503 744 q 577 695 561 719 q 593 636 593 671 q 577 576 593 601 q 532 539 561 551 q 460 526 503 526 l 272 526 l 272 322 l 482 322 q 702 363 615 322 q 831 478 789 404 q 874 647 874 553 q 831 816 874 743 q 702 931 789 889 q 482 972 615 972 l 272 972 l 272 744 m 244 1081 q 272 1187 244 1140 q 351 1260 299 1233 q 475 1286 403 1286 q 600 1260 549 1286 q 678 1187 651 1233 q 706 1081 706 1140 l 557 1081 q 545 1124 557 1108 q 515 1149 533 1140 q 475 1157 496 1157 q 435 1149 454 1157 q 405 1124 417 1140 q 393 1081 393 1108 l 244 1081 z "},"S":{"ha":900,"x_min":44,"x_max":849,"o":"m 228 356 l 44 222 q 139 91 76 150 q 287 -2 201 32 q 472 -36 372 -36 q 611 -16 543 -36 q 733 44 679 4 q 817 143 786 83 q 849 281 849 203 q 831 386 849 339 q 779 470 813 433 q 701 534 746 507 q 601 581 656 561 q 491 622 539 603 q 416 662 443 640 q 389 715 389 683 q 413 760 389 743 q 476 776 436 776 q 539 764 508 776 q 597 728 569 751 q 644 671 624 706 l 847 783 q 772 883 821 833 q 649 965 724 932 q 471 997 574 997 q 292 964 372 997 q 163 867 211 931 q 114 713 114 804 q 141 588 114 640 q 209 499 168 535 q 294 440 250 463 q 375 403 339 417 q 490 356 449 375 q 547 317 531 336 q 564 271 564 299 q 535 212 564 232 q 461 192 506 192 q 372 211 415 192 q 293 267 329 231 q 228 356 257 304 z "},"Ś":{"ha":900,"x_min":44,"x_max":849,"o":"m 229 358 l 44 226 q 137 88 75 147 q 281 -4 199 28 q 454 -36 364 -36 q 662 -1 574 -36 q 799 102 750 33 q 849 275 849 171 q 831 386 849 338 q 779 471 813 435 q 701 534 746 507 q 601 581 656 561 q 492 619 543 601 q 410 657 442 636 q 378 707 378 678 q 390 742 378 728 q 424 764 403 756 q 476 772 446 772 q 537 761 508 772 q 589 727 565 750 q 633 669 613 704 l 835 782 q 771 882 815 832 q 651 965 726 932 q 464 997 576 997 q 275 963 357 997 q 148 864 193 928 q 103 715 103 800 q 131 589 103 642 q 202 500 160 536 q 291 442 244 464 q 372 404 338 419 q 471 365 428 383 q 539 327 514 347 q 564 272 564 307 q 552 229 564 246 q 517 204 540 213 q 460 196 493 196 q 392 206 424 196 q 334 235 361 215 q 281 287 307 256 q 229 358 256 318 m 714 1289 l 536 1367 l 328 1144 l 464 1081 l 714 1289 z "},"Ŝ":{"ha":900,"x_min":44,"x_max":849,"o":"m 229 358 l 44 226 q 137 88 75 147 q 281 -4 199 28 q 454 -36 364 -36 q 662 -1 574 -36 q 799 102 750 33 q 849 275 849 171 q 831 386 849 338 q 779 471 813 435 q 701 534 746 507 q 601 581 656 561 q 492 619 543 601 q 410 657 442 636 q 378 707 378 678 q 390 742 378 728 q 424 764 403 756 q 476 772 446 772 q 537 761 508 772 q 589 727 565 750 q 633 669 613 704 l 835 782 q 771 882 815 832 q 651 965 726 932 q 464 997 576 997 q 275 963 357 997 q 148 864 193 928 q 103 715 103 800 q 131 589 103 642 q 202 500 160 536 q 291 442 244 464 q 372 404 338 419 q 471 365 428 383 q 539 327 514 347 q 564 272 564 307 q 552 229 564 246 q 517 204 540 213 q 460 196 493 196 q 392 206 424 196 q 334 235 361 215 q 281 287 307 256 q 229 358 256 318 m 464 1196 l 582 1081 l 753 1192 l 464 1386 l 174 1192 l 344 1081 l 464 1196 z "},"Ş":{"ha":900,"x_min":44,"x_max":849,"o":"m 229 358 l 44 226 q 137 88 75 147 q 281 -4 199 28 q 454 -36 364 -36 q 661 -1 572 -36 q 799 102 750 33 q 849 275 849 171 q 831 386 849 338 q 779 471 813 435 q 701 534 746 507 q 601 581 656 561 q 492 619 543 601 q 410 657 442 636 q 378 707 378 678 q 390 742 378 728 q 423 764 401 756 q 474 772 444 772 q 535 761 506 772 q 588 727 564 750 q 633 669 613 704 l 835 782 q 770 883 815 833 q 651 965 725 932 q 464 997 576 997 q 274 962 356 997 q 148 863 193 926 q 103 714 103 799 q 131 587 103 639 q 202 499 160 535 q 291 442 244 464 q 372 404 338 419 q 471 365 428 383 q 539 327 514 347 q 564 272 564 307 q 552 229 564 246 q 517 204 540 213 q 460 196 493 196 q 392 206 424 196 q 334 235 361 215 q 281 287 307 256 q 229 358 256 318 m 401 85 l 278 -196 q 356 -178 318 -181 q 403 -175 393 -175 q 463 -182 435 -175 q 490 -218 490 -189 q 470 -253 490 -243 q 414 -264 450 -264 q 359 -256 394 -264 q 296 -229 324 -249 l 226 -336 q 334 -380 282 -368 q 450 -392 386 -392 q 539 -374 494 -392 q 613 -320 583 -356 q 642 -233 642 -285 q 620 -152 642 -185 q 567 -103 599 -119 q 507 -87 536 -87 q 474 -89 489 -87 q 444 -94 458 -90 l 574 79 l 401 85 z "},"Š":{"ha":900,"x_min":44,"x_max":849,"o":"m 229 358 l 44 226 q 137 88 75 147 q 281 -4 199 28 q 454 -36 364 -36 q 662 -1 574 -36 q 799 102 750 33 q 849 275 849 171 q 831 386 849 338 q 779 471 813 435 q 701 534 746 507 q 601 581 656 561 q 492 619 543 601 q 410 657 442 636 q 378 707 378 678 q 390 742 378 728 q 424 764 403 756 q 476 772 446 772 q 537 761 508 772 q 589 727 565 750 q 633 669 613 704 l 835 782 q 771 882 815 832 q 651 965 726 932 q 464 997 576 997 q 275 963 357 997 q 148 864 193 928 q 103 715 103 800 q 131 589 103 642 q 202 500 160 536 q 291 442 244 464 q 372 404 338 419 q 471 365 428 383 q 539 327 514 347 q 564 272 564 307 q 552 229 564 246 q 517 204 540 213 q 460 196 493 196 q 392 206 424 196 q 334 235 361 215 q 281 287 307 256 q 229 358 256 318 m 464 1272 l 344 1386 l 174 1275 l 464 1081 l 753 1275 l 582 1386 l 464 1272 z "},"Ș":{"ha":900,"x_min":44,"x_max":849,"o":"m 229 358 l 44 226 q 137 88 75 147 q 281 -4 199 28 q 454 -36 364 -36 q 662 -1 574 -36 q 799 102 750 33 q 849 275 849 171 q 831 386 849 338 q 779 471 813 435 q 701 534 746 507 q 601 581 656 561 q 492 619 543 601 q 410 657 442 636 q 378 707 378 678 q 390 742 378 728 q 424 764 403 756 q 476 772 446 772 q 537 761 508 772 q 589 727 565 750 q 633 669 613 704 l 835 782 q 771 882 815 832 q 651 965 726 932 q 464 997 576 997 q 275 963 357 997 q 148 864 193 928 q 103 715 103 800 q 131 589 103 642 q 202 500 160 536 q 291 442 244 464 q 372 404 338 419 q 471 365 428 383 q 539 327 514 347 q 564 272 564 307 q 552 229 564 246 q 517 204 540 213 q 460 196 493 196 q 392 206 424 196 q 334 235 361 215 q 281 287 307 256 q 229 358 256 318 m 350 -97 l 228 -457 l 410 -490 l 592 -143 l 350 -97 z "},"T":{"ha":819,"x_min":3,"x_max":817,"o":"m 3 732 l 275 732 l 275 0 l 544 0 l 544 732 l 817 732 l 817 972 l 3 972 l 3 732 z "},"Ţ":{"ha":819,"x_min":3,"x_max":817,"o":"m 324 17 l 201 -265 q 278 -247 242 -250 q 325 -244 315 -244 q 385 -251 357 -244 q 414 -287 414 -258 q 393 -323 414 -312 q 336 -333 372 -333 q 282 -326 318 -333 q 218 -299 246 -318 l 150 -406 q 256 -448 204 -436 q 372 -460 308 -460 q 462 -442 418 -460 q 535 -390 506 -425 q 564 -303 564 -354 q 542 -222 564 -254 q 490 -173 521 -189 q 429 -157 458 -157 q 397 -158 413 -157 q 368 -164 382 -160 l 497 10 l 324 17 m 3 732 l 275 732 l 275 0 l 544 0 l 544 732 l 817 732 l 817 972 l 3 972 l 3 732 z "},"Ť":{"ha":819,"x_min":3,"x_max":817,"o":"m 3 732 l 275 732 l 275 0 l 544 0 l 544 732 l 817 732 l 817 972 l 3 972 l 3 732 m 410 1272 l 290 1386 l 121 1275 l 410 1081 l 700 1275 l 529 1386 l 410 1272 z "},"Ț":{"ha":819,"x_min":3,"x_max":817,"o":"m 3 732 l 275 732 l 275 0 l 544 0 l 544 732 l 817 732 l 817 972 l 3 972 l 3 732 m 351 -83 l 229 -443 l 411 -476 l 592 -129 l 351 -83 z "},"U":{"ha":1004,"x_min":93,"x_max":911,"o":"m 93 972 l 93 319 q 125 151 93 221 q 213 38 157 82 q 344 -26 269 -6 q 501 -47 418 -47 q 660 -26 586 -47 q 790 38 733 -6 q 879 151 847 82 q 911 319 911 221 l 911 972 l 642 972 l 642 342 q 607 234 642 275 q 501 193 572 193 q 397 234 432 193 q 363 342 363 275 l 363 972 l 93 972 z "},"Ù":{"ha":1004,"x_min":93,"x_max":911,"o":"m 93 972 l 93 319 q 125 151 93 221 q 213 38 157 82 q 344 -26 269 -6 q 501 -47 418 -47 q 660 -26 586 -47 q 790 38 733 -6 q 879 151 847 82 q 911 319 911 221 l 911 972 l 642 972 l 642 342 q 607 234 642 275 q 501 193 572 193 q 397 234 432 193 q 363 342 363 275 l 363 972 l 93 972 m 265 1289 l 515 1081 l 651 1144 l 443 1367 l 265 1289 z "},"Ú":{"ha":1004,"x_min":93,"x_max":911,"o":"m 93 972 l 93 319 q 125 151 93 221 q 213 38 157 82 q 344 -26 269 -6 q 501 -47 418 -47 q 660 -26 586 -47 q 790 38 733 -6 q 879 151 847 82 q 911 319 911 221 l 911 972 l 642 972 l 642 342 q 607 234 642 275 q 501 193 572 193 q 397 234 432 193 q 363 342 363 275 l 363 972 l 93 972 m 739 1289 l 561 1367 l 353 1144 l 489 1081 l 739 1289 z "},"Û":{"ha":1004,"x_min":93,"x_max":911,"o":"m 93 972 l 93 319 q 125 151 93 221 q 213 38 157 82 q 344 -26 269 -6 q 501 -47 418 -47 q 660 -26 586 -47 q 790 38 733 -6 q 879 151 847 82 q 911 319 911 221 l 911 972 l 642 972 l 642 342 q 607 234 642 275 q 501 193 572 193 q 397 234 432 193 q 363 342 363 275 l 363 972 l 93 972 m 501 1196 l 621 1081 l 792 1192 l 501 1386 l 213 1192 l 383 1081 l 501 1196 z "},"Ü":{"ha":1004,"x_min":93,"x_max":911,"o":"m 93 972 l 93 319 q 125 151 93 221 q 213 38 157 82 q 344 -26 269 -6 q 501 -47 418 -47 q 660 -26 586 -47 q 790 38 733 -6 q 879 151 847 82 q 911 319 911 221 l 911 972 l 642 972 l 642 342 q 607 234 642 275 q 501 193 572 193 q 397 234 432 193 q 363 342 363 275 l 363 972 l 93 972 m 578 1206 q 617 1115 578 1150 q 714 1081 657 1081 q 810 1115 771 1081 q 850 1206 850 1150 q 810 1295 850 1261 q 714 1329 771 1329 q 617 1295 657 1329 q 578 1206 578 1261 m 154 1206 q 194 1115 154 1150 q 290 1081 233 1081 q 387 1115 347 1081 q 426 1206 426 1150 q 387 1295 426 1261 q 290 1329 347 1329 q 194 1295 233 1329 q 154 1206 154 1261 z "},"Ũ":{"ha":1004,"x_min":93,"x_max":911,"o":"m 93 972 l 93 319 q 125 151 93 221 q 213 38 157 82 q 344 -26 269 -6 q 501 -47 418 -47 q 660 -26 586 -47 q 790 38 733 -6 q 879 151 847 82 q 911 319 911 221 l 911 972 l 642 972 l 642 342 q 607 234 642 275 q 501 193 572 193 q 397 234 432 193 q 363 342 363 275 l 363 972 l 93 972 m 217 1183 l 324 1088 q 328 1115 324 1099 q 348 1145 333 1132 q 388 1158 363 1158 q 455 1139 424 1158 q 519 1101 486 1119 q 589 1082 551 1082 q 676 1102 636 1082 q 747 1151 717 1122 q 788 1206 776 1181 l 678 1321 q 635 1267 657 1288 q 583 1246 613 1246 q 533 1257 554 1246 q 492 1283 511 1268 q 448 1308 472 1297 q 389 1319 424 1319 q 305 1299 342 1319 q 246 1249 268 1279 q 217 1183 224 1218 z "},"Ū":{"ha":1004,"x_min":93,"x_max":911,"o":"m 93 972 l 93 319 q 125 151 93 221 q 213 38 157 82 q 344 -26 269 -6 q 501 -47 418 -47 q 660 -26 586 -47 q 790 38 733 -6 q 879 151 847 82 q 911 319 911 221 l 911 972 l 642 972 l 642 342 q 607 234 642 275 q 501 193 572 193 q 397 234 432 193 q 363 342 363 275 l 363 972 l 93 972 m 240 1081 l 765 1081 l 765 1286 l 240 1286 l 240 1081 z "},"Ŭ":{"ha":1004,"x_min":93,"x_max":911,"o":"m 93 972 l 93 319 q 125 151 93 221 q 213 38 157 82 q 344 -26 269 -6 q 501 -47 418 -47 q 660 -26 586 -47 q 790 38 733 -6 q 879 151 847 82 q 911 319 911 221 l 911 972 l 642 972 l 642 342 q 607 234 642 275 q 501 193 572 193 q 397 234 432 193 q 363 342 363 275 l 363 972 l 93 972 m 271 1286 q 298 1181 271 1228 q 377 1108 325 1135 q 501 1081 429 1081 q 626 1108 575 1081 q 705 1181 678 1135 q 732 1286 732 1228 l 583 1286 q 572 1243 583 1260 q 541 1218 560 1226 q 501 1210 522 1210 q 463 1218 482 1210 q 433 1243 444 1226 q 421 1286 421 1260 l 271 1286 z "},"Ů":{"ha":1004,"x_min":93,"x_max":911,"o":"m 93 972 l 93 319 q 125 151 93 221 q 213 38 157 82 q 344 -26 269 -6 q 501 -47 418 -47 q 660 -26 586 -47 q 790 38 733 -6 q 879 151 847 82 q 911 319 911 221 l 911 972 l 642 972 l 642 342 q 607 234 642 275 q 501 193 572 193 q 397 234 432 193 q 363 342 363 275 l 363 972 l 93 972 m 319 1247 q 372 1127 319 1174 q 501 1081 424 1081 q 632 1127 579 1081 q 685 1249 685 1174 q 632 1368 685 1322 q 501 1414 579 1414 q 372 1368 424 1414 q 319 1247 319 1322 m 439 1247 q 457 1295 439 1278 q 501 1313 475 1313 q 546 1295 528 1313 q 564 1247 564 1278 q 546 1201 564 1217 q 501 1185 528 1185 q 457 1201 475 1185 q 439 1247 439 1218 z "},"Ű":{"ha":1004,"x_min":93,"x_max":911,"o":"m 367 1081 l 572 1332 l 385 1378 l 222 1119 l 367 1081 m 636 1081 l 842 1332 l 653 1378 l 490 1119 l 636 1081 m 93 972 l 93 319 q 125 151 93 221 q 213 38 157 82 q 344 -26 269 -6 q 501 -47 418 -47 q 660 -26 586 -47 q 790 38 733 -6 q 879 151 847 82 q 911 319 911 221 l 911 972 l 642 972 l 642 342 q 607 234 642 275 q 501 193 572 193 q 397 234 432 193 q 363 342 363 275 l 363 972 l 93 972 z "},"Ų":{"ha":1004,"x_min":93,"x_max":911,"o":"m 565 -174 q 533 -194 551 -187 q 496 -201 515 -201 q 463 -189 474 -201 q 451 -154 451 -176 q 463 -112 451 -133 q 499 -69 475 -90 q 558 -26 522 -47 l 501 8 q 408 -46 453 -17 q 335 -110 364 -75 q 307 -193 307 -146 q 330 -270 307 -239 q 389 -317 353 -301 q 467 -332 425 -332 q 562 -315 528 -332 q 611 -276 596 -297 l 565 -174 m 93 972 l 93 319 q 125 151 93 221 q 213 38 157 82 q 344 -26 269 -6 q 501 -47 418 -47 q 660 -26 586 -47 q 790 38 733 -6 q 879 151 847 82 q 911 319 911 221 l 911 972 l 642 972 l 642 342 q 607 234 642 275 q 501 193 572 193 q 397 234 432 193 q 363 342 363 275 l 363 972 l 93 972 z "},"V":{"ha":1051,"x_min":-4,"x_max":1056,"o":"m 525 443 l 313 972 l -4 972 l 525 -65 l 1056 972 l 739 972 l 525 443 z "},"W":{"ha":1510,"x_min":3,"x_max":1507,"o":"m 1014 465 l 754 1021 l 496 465 l 325 972 l 3 972 l 435 -60 l 754 476 l 1075 -60 l 1507 972 l 1185 972 l 1014 465 z "},"Ŵ":{"ha":1510,"x_min":3,"x_max":1507,"o":"m 1025 440 l 754 1021 l 485 440 l 325 972 l 3 972 l 435 -60 l 754 476 l 1075 -60 l 1507 972 l 1185 972 l 1025 440 m 754 1219 l 874 1104 l 1044 1215 l 754 1410 l 465 1215 l 636 1104 l 754 1219 z "},"Ẁ":{"ha":1510,"x_min":3,"x_max":1507,"o":"m 754 1104 l 889 1168 l 681 1390 l 504 1313 l 754 1104 m 1014 465 l 754 1021 l 496 465 l 325 972 l 3 972 l 435 -60 l 754 476 l 1075 -60 l 1507 972 l 1185 972 l 1014 465 z "},"Ẃ":{"ha":1510,"x_min":3,"x_max":1507,"o":"m 754 1104 l 1004 1313 l 828 1390 l 619 1168 l 754 1104 m 1014 465 l 754 1021 l 496 465 l 325 972 l 3 972 l 435 -60 l 754 476 l 1075 -60 l 1507 972 l 1185 972 l 1014 465 z "},"Ẅ":{"ha":1510,"x_min":3,"x_max":1507,"o":"m 797 1229 q 837 1139 797 1174 q 933 1104 876 1104 q 1030 1139 990 1104 q 1069 1229 1069 1174 q 1030 1319 1069 1285 q 933 1353 990 1353 q 837 1319 876 1353 q 797 1229 797 1285 m 442 1229 q 481 1139 442 1174 q 576 1104 521 1104 q 673 1139 633 1104 q 713 1229 713 1174 q 673 1319 713 1285 q 576 1353 633 1353 q 481 1319 521 1353 q 442 1229 442 1285 m 1014 465 l 754 1021 l 496 465 l 325 972 l 3 972 l 435 -60 l 754 476 l 1075 -60 l 1507 972 l 1185 972 l 1014 465 z "},"Ẇ":{"ha":1510,"x_min":3,"x_max":1507,"o":"m 618 1229 q 658 1139 618 1174 q 754 1104 697 1104 q 851 1139 811 1104 q 890 1229 890 1174 q 851 1319 890 1285 q 754 1354 811 1354 q 658 1319 697 1354 q 618 1229 618 1285 m 1014 465 l 754 1021 l 496 465 l 325 972 l 3 972 l 435 -60 l 754 476 l 1075 -60 l 1507 972 l 1185 972 l 1014 465 z "},"Ẉ":{"ha":1510,"x_min":3,"x_max":1507,"o":"m 618 -268 q 658 -358 618 -324 q 754 -393 697 -393 q 851 -358 811 -393 q 890 -268 890 -324 q 851 -178 890 -212 q 754 -143 811 -143 q 658 -178 697 -143 q 618 -268 618 -212 m 1014 465 l 754 1021 l 496 465 l 325 972 l 3 972 l 435 -60 l 754 476 l 1075 -60 l 1507 972 l 1185 972 l 1014 465 z "},"X":{"ha":1006,"x_min":3,"x_max":1004,"o":"m 647 972 l 508 714 l 372 972 l 38 972 l 342 496 l 3 0 l 338 0 l 506 299 l 668 0 l 1004 0 l 672 496 l 983 972 l 647 972 z "},"Y":{"ha":957,"x_min":-4,"x_max":961,"o":"m 650 972 l 479 632 l 307 972 l -4 972 l 342 386 l 342 0 l 617 0 l 617 389 l 961 972 l 650 972 z "},"Ý":{"ha":957,"x_min":-4,"x_max":961,"o":"m 715 1289 l 539 1367 l 331 1144 l 465 1081 l 715 1289 m 650 972 l 479 632 l 307 972 l -4 972 l 342 386 l 342 0 l 617 0 l 617 389 l 961 972 l 650 972 z "},"Ŷ":{"ha":957,"x_min":-4,"x_max":961,"o":"m 650 972 l 479 632 l 307 972 l -4 972 l 342 386 l 342 0 l 617 0 l 617 389 l 961 972 l 650 972 m 479 1196 l 599 1081 l 768 1192 l 479 1386 l 189 1192 l 360 1081 l 479 1196 z "},"Ÿ":{"ha":957,"x_min":-4,"x_max":961,"o":"m 132 1224 q 172 1135 132 1169 q 267 1100 211 1100 q 363 1135 324 1100 q 403 1224 403 1169 q 363 1314 403 1279 q 267 1349 324 1349 q 172 1314 211 1349 q 132 1224 132 1279 m 554 1224 q 594 1135 554 1169 q 690 1100 633 1100 q 787 1135 747 1100 q 826 1224 826 1169 q 787 1314 826 1279 q 690 1349 747 1349 q 594 1314 633 1349 q 554 1224 554 1279 m 650 972 l 479 632 l 307 972 l -4 972 l 342 386 l 342 0 l 617 0 l 617 389 l 961 972 l 650 972 z "},"Ỳ":{"ha":957,"x_min":-4,"x_max":961,"o":"m 479 1081 l 614 1144 l 406 1367 l 229 1289 l 479 1081 m 650 972 l 479 632 l 307 972 l -4 972 l 342 386 l 342 0 l 617 0 l 617 389 l 961 972 l 650 972 z "},"Z":{"ha":892,"x_min":10,"x_max":875,"o":"m 88 732 l 446 732 l 10 0 l 819 0 l 819 229 l 431 229 l 875 972 l 88 972 l 88 732 z "},"Ź":{"ha":892,"x_min":10,"x_max":875,"o":"m 88 732 l 446 732 l 10 0 l 819 0 l 819 229 l 431 229 l 875 972 l 88 972 l 88 732 m 725 1289 l 549 1367 l 340 1144 l 475 1081 l 725 1289 z "},"Ż":{"ha":892,"x_min":10,"x_max":875,"o":"m 88 732 l 446 732 l 10 0 l 819 0 l 819 229 l 431 229 l 875 972 l 88 972 l 88 732 m 344 1206 q 385 1115 344 1150 q 481 1081 425 1081 q 577 1115 538 1081 q 617 1206 617 1150 q 577 1295 617 1261 q 481 1329 538 1329 q 385 1295 425 1329 q 344 1206 344 1261 z "},"Ž":{"ha":892,"x_min":10,"x_max":875,"o":"m 88 732 l 446 732 l 10 0 l 819 0 l 819 229 l 431 229 l 875 972 l 88 972 l 88 732 m 481 1272 l 361 1386 l 192 1275 l 481 1081 l 771 1275 l 600 1386 l 481 1272 z "},"Æ":{"ha":1557,"x_min":24,"x_max":1460,"o":"m 397 185 l 825 185 l 825 431 l 408 431 l 397 185 m 610 972 l 24 0 l 368 0 l 874 917 l 610 972 m 914 0 l 1460 0 l 1460 218 l 914 218 l 914 0 m 925 754 l 1460 754 l 1460 972 l 610 972 l 925 754 m 914 400 l 1432 400 l 1432 611 l 914 611 l 914 400 m 788 972 l 788 0 l 1079 0 l 1079 972 l 788 972 z "},"Ð":{"ha":1040,"x_min":8,"x_max":996,"o":"m 8 417 l 514 417 l 514 567 l 8 567 l 8 417 m 100 972 l 100 0 l 379 0 l 379 972 l 100 972 m 464 0 q 748 59 629 0 q 931 227 867 118 q 996 486 996 336 q 931 746 996 638 q 748 913 867 854 q 464 972 629 972 l 283 972 l 283 736 l 453 736 q 548 726 501 736 q 632 688 594 715 q 692 612 669 661 q 715 486 715 563 q 692 360 715 410 q 632 284 669 311 q 548 247 594 257 q 453 236 501 236 l 283 236 l 283 0 l 464 0 z "},"Ø":{"ha":1097,"x_min":44,"x_max":1108,"o":"m 329 486 q 360 628 329 568 q 446 720 390 688 q 576 753 501 753 q 708 720 653 753 q 793 628 763 688 q 824 486 824 568 q 793 344 824 404 q 708 252 763 285 q 576 219 653 219 q 446 252 501 219 q 360 344 390 285 q 329 486 329 404 m 44 486 q 84 276 44 372 q 196 110 124 181 q 365 2 268 40 q 576 -36 463 -36 q 788 2 692 -36 q 957 110 885 40 q 1069 276 1029 181 q 1108 486 1108 372 q 1069 695 1108 601 q 957 856 1029 789 q 788 960 885 924 q 576 997 692 997 q 365 960 463 997 q 196 856 268 924 q 84 695 124 789 q 44 486 44 601 m 972 1053 l 72 -3 l 175 -81 l 1076 975 l 972 1053 z "},"Þ":{"ha":876,"x_min":111,"x_max":840,"o":"m 111 972 l 111 0 l 342 0 l 342 972 l 111 972 m 261 606 l 447 606 q 533 594 499 606 q 586 559 568 583 q 604 492 604 535 q 586 424 604 449 q 533 389 568 400 q 447 378 499 378 l 261 378 l 261 172 l 447 172 q 668 210 582 172 q 797 319 754 247 q 840 492 840 392 q 797 665 840 593 q 668 774 754 736 q 447 811 582 811 l 261 811 l 261 606 z "},"Đ":{"ha":1040,"x_min":7,"x_max":996,"o":"m 7 408 l 501 408 l 501 557 l 7 557 l 7 408 m 100 972 l 100 0 l 379 0 l 379 972 l 100 972 m 464 0 q 748 59 629 0 q 931 227 867 118 q 996 486 996 336 q 931 746 996 638 q 748 913 867 854 q 464 972 629 972 l 283 972 l 283 736 l 453 736 q 548 726 501 736 q 632 688 594 715 q 692 612 669 661 q 715 486 715 563 q 692 360 715 410 q 632 284 669 311 q 548 247 594 257 q 453 236 501 236 l 283 236 l 283 0 l 464 0 z "},"Ħ":{"ha":1122,"x_min":7,"x_max":1115,"o":"m 165 388 l 921 388 l 921 628 l 165 628 l 165 388 m 753 972 l 753 0 l 1022 0 l 1022 972 l 753 972 m 100 972 l 100 0 l 369 0 l 369 972 l 100 972 m 7 744 l 1115 744 l 1115 904 l 7 904 l 7 744 z "},"Ĳ":{"ha":922,"x_min":100,"x_max":822,"o":"m 324 -72 l 176 -258 q 256 -296 210 -278 q 356 -326 301 -314 q 469 -339 411 -339 q 603 -325 539 -339 q 715 -280 667 -311 q 793 -197 764 -249 q 822 -72 822 -146 l 822 972 l 525 972 l 525 -8 q 497 -92 525 -68 q 436 -117 468 -117 q 378 -103 408 -117 q 324 -72 347 -89 m 100 972 l 100 0 l 375 0 l 375 972 l 100 972 z "},"Ŀ":{"ha":765,"x_min":100,"x_max":771,"o":"m 100 972 l 100 0 l 763 0 l 763 229 l 369 229 l 369 972 l 100 972 m 478 604 q 519 503 478 546 q 625 461 560 461 q 731 503 690 461 q 771 604 771 546 q 731 706 771 664 q 625 749 690 749 q 519 706 560 749 q 478 604 478 664 z "},"Ł":{"ha":776,"x_min":-54,"x_max":763,"o":"m 7 417 l 550 786 l 489 897 l -54 526 l 7 417 m 100 972 l 100 0 l 763 0 l 763 229 l 369 229 l 369 972 l 100 972 z "},"Ŋ":{"ha":1110,"x_min":100,"x_max":1010,"o":"m 753 -297 q 890 -268 832 -297 q 979 -187 949 -239 q 1010 -62 1010 -135 l 1010 972 l 751 972 l 751 478 l 100 1021 l 100 0 l 358 0 l 358 494 l 782 135 l 782 1 q 774 -46 782 -26 q 751 -75 765 -65 q 715 -85 736 -85 q 681 -76 696 -85 q 651 -50 667 -68 l 560 -222 q 651 -280 607 -262 q 753 -297 696 -297 z "},"Œ":{"ha":1368,"x_min":44,"x_max":1333,"o":"m 781 400 l 1304 400 l 1304 611 l 781 611 l 781 400 m 660 931 l 660 42 l 918 42 l 918 931 l 660 931 m 1333 218 l 794 218 l 761 235 l 597 235 q 477 250 528 235 q 392 297 426 265 q 342 375 358 328 q 325 486 325 422 q 341 597 325 550 q 391 676 357 644 q 476 722 425 707 q 597 738 528 738 l 765 738 l 789 754 l 1332 754 l 1332 972 l 542 972 q 345 938 436 972 q 187 838 254 903 q 82 684 119 774 q 44 486 44 594 q 82 288 44 378 q 188 134 119 199 q 346 35 256 69 q 542 0 436 0 l 1333 0 l 1333 218 z "},"Ŧ":{"ha":819,"x_min":3,"x_max":817,"o":"m 139 388 l 683 388 l 683 593 l 139 593 l 139 388 m 3 732 l 275 732 l 275 0 l 544 0 l 544 732 l 817 732 l 817 972 l 3 972 l 3 732 z "},"ẞ":{"ha":1172,"x_min":111,"x_max":1113,"o":"m 799 -17 q 620 -1 711 -17 q 454 39 529 14 l 507 256 q 625 216 569 231 q 719 201 681 201 q 776 208 751 201 q 814 231 800 215 q 828 271 828 247 q 809 326 828 304 q 763 363 790 347 q 707 394 735 378 q 661 435 679 411 q 643 496 643 460 q 653 542 643 522 q 677 578 663 563 q 706 607 692 593 q 731 636 721 621 q 740 672 740 651 q 723 715 740 696 q 676 744 706 733 q 607 756 646 756 q 482 721 531 756 q 411 623 433 686 q 389 472 389 560 l 390 -3 l 111 -3 l 111 499 q 136 700 111 608 q 219 858 161 792 q 372 961 276 925 q 607 997 468 997 q 846 962 751 997 q 988 867 940 926 q 1035 738 1035 807 q 1025 668 1035 700 q 1001 611 1015 636 q 973 565 988 586 q 949 528 958 544 q 939 497 939 511 q 956 465 939 479 q 1000 434 974 450 q 1052 394 1026 418 q 1095 332 1078 369 q 1113 239 1113 294 q 1076 101 1113 158 q 969 14 1039 44 q 799 -17 899 -17 z "},"Δ":{"ha":833,"x_min":25,"x_max":807,"o":"m 25 0 l 417 1111 l 807 0 l 25 0 m 279 176 l 553 176 l 417 640 l 279 176 z "},"Ω":{"ha":833,"x_min":92,"x_max":742,"o":"m 92 0 l 92 207 l 214 185 q 147 267 172 226 q 109 349 121 307 q 97 440 97 392 q 139 612 97 536 q 253 732 181 688 q 417 776 325 776 q 581 732 508 776 q 694 612 653 688 q 736 440 736 536 q 724 349 736 392 q 687 267 713 307 q 619 185 661 226 l 742 207 l 742 0 l 446 0 l 446 154 q 499 215 476 181 q 534 286 522 249 q 546 361 546 324 q 529 445 546 408 q 483 503 513 482 q 417 524 454 524 q 350 503 379 524 q 303 445 321 482 q 286 361 286 408 q 299 286 286 324 q 335 215 313 249 q 388 154 357 181 l 388 0 l 92 0 z "},"А":{"ha":1051,"x_min":-4,"x_max":1056,"o":"m 271 157 l 785 157 l 778 356 l 279 356 l 271 157 m 525 574 l 654 282 l 639 213 l 750 0 l 1056 0 l 525 1038 l -4 0 l 301 0 l 414 222 l 397 282 l 525 574 z "},"Б":{"ha":985,"x_min":111,"x_max":929,"o":"m 176 400 l 532 400 q 599 390 572 400 q 640 360 626 381 q 654 308 654 340 q 640 256 654 276 q 599 227 626 236 q 532 218 572 218 l 176 218 l 176 0 l 599 0 q 767 40 693 0 q 885 149 842 79 q 929 308 929 219 q 885 467 929 399 q 767 573 842 535 q 599 611 693 611 l 176 611 l 176 400 m 111 972 l 111 0 l 386 0 l 386 754 l 856 754 l 856 972 l 111 972 z "},"В":{"ha":965,"x_min":100,"x_max":907,"o":"m 300 475 l 490 475 q 676 503 594 475 q 804 588 757 532 q 851 724 851 644 q 804 862 851 807 q 676 944 757 917 q 490 972 594 972 l 100 972 l 100 0 l 515 0 q 725 27 638 0 q 860 114 813 54 q 907 271 907 174 q 873 399 907 346 q 782 487 839 453 q 656 537 725 521 q 515 553 586 553 l 300 553 l 300 406 l 482 406 q 538 401 513 406 q 584 386 564 397 q 615 357 604 375 q 626 311 626 339 q 607 245 626 268 q 555 214 588 222 q 482 206 522 206 l 369 206 l 369 767 l 457 767 q 542 746 513 767 q 571 681 571 725 q 558 631 571 651 q 519 599 544 610 q 457 588 494 588 l 300 588 l 300 475 z "},"Г":{"ha":733,"x_min":111,"x_max":719,"o":"m 111 972 l 111 0 l 381 0 l 381 732 l 719 732 l 719 972 l 111 972 z "},"Ѓ":{"ha":733,"x_min":111,"x_max":719,"o":"m 111 972 l 111 0 l 381 0 l 381 732 l 719 732 l 719 972 l 111 972 m 665 1289 l 489 1367 l 281 1144 l 415 1081 l 665 1289 z "},"Д":{"ha":1261,"x_min":56,"x_max":1199,"o":"m 626 551 l 808 42 l 1124 42 l 626 1021 l 131 42 l 446 42 l 626 551 m 926 0 l 926 -153 l 1199 -153 l 1199 229 l 56 229 l 56 -153 l 328 -153 l 328 0 l 926 0 z "},"Е":{"ha":860,"x_min":100,"x_max":774,"o":"m 283 0 l 774 0 l 774 218 l 283 218 l 283 0 m 283 754 l 774 754 l 774 972 l 283 972 l 283 754 m 283 400 l 746 400 l 746 611 l 283 611 l 283 400 m 100 972 l 100 0 l 358 0 l 358 972 l 100 972 z "},"Ѐ":{"ha":860,"x_min":100,"x_max":774,"o":"m 283 0 l 774 0 l 774 218 l 283 218 l 283 0 m 283 754 l 774 754 l 774 972 l 283 972 l 283 754 m 283 400 l 746 400 l 746 611 l 283 611 l 283 400 m 100 972 l 100 0 l 358 0 l 358 972 l 100 972 m 188 1289 l 438 1081 l 572 1144 l 364 1367 l 188 1289 z "},"Ё":{"ha":860,"x_min":100,"x_max":774,"o":"m 283 0 l 774 0 l 774 218 l 283 218 l 283 0 m 283 754 l 774 754 l 774 972 l 283 972 l 283 754 m 283 400 l 746 400 l 746 611 l 283 611 l 283 400 m 100 972 l 100 0 l 358 0 l 358 972 l 100 972 m 479 1206 q 519 1115 479 1150 q 615 1081 558 1081 q 712 1115 672 1081 q 751 1206 751 1150 q 712 1295 751 1261 q 615 1329 672 1329 q 519 1295 558 1329 q 479 1206 479 1261 m 124 1206 q 163 1115 124 1150 q 258 1081 203 1081 q 355 1115 315 1081 q 394 1206 394 1150 q 355 1295 394 1261 q 258 1329 315 1329 q 163 1295 203 1329 q 124 1206 124 1261 z "},"Ж":{"ha":1585,"x_min":-4,"x_max":1589,"o":"m 331 972 l 17 972 l 415 517 l -4 0 l 310 0 l 726 514 l 331 972 m 654 972 l 654 0 l 935 0 l 935 972 l 654 972 m 1243 972 l 861 514 l 1264 0 l 1589 0 l 1169 517 l 1568 972 l 1243 972 z "},"З":{"ha":954,"x_min":61,"x_max":919,"o":"m 432 468 q 608 483 525 468 q 756 527 692 497 q 856 605 819 557 q 892 719 892 653 q 847 858 892 796 q 715 956 803 919 q 497 992 628 992 q 280 949 368 992 q 147 835 192 907 q 103 675 103 764 l 350 675 q 367 731 350 707 q 417 767 383 754 q 497 781 450 781 q 568 769 539 781 q 612 737 597 757 q 626 690 626 717 q 605 634 626 658 q 540 596 583 610 q 432 582 497 582 l 432 468 m 507 -25 q 738 13 646 -25 q 874 117 829 50 q 919 268 919 183 q 857 430 919 368 q 684 520 794 492 q 432 549 574 549 l 432 418 q 563 401 514 418 q 633 356 611 385 q 654 293 654 328 q 609 211 654 235 q 496 188 564 188 q 413 201 451 188 q 351 246 374 215 q 326 324 328 276 l 61 324 q 87 194 61 257 q 167 82 113 132 q 306 3 221 32 q 507 -25 390 -25 z "},"И":{"ha":1110,"x_min":100,"x_max":1010,"o":"m 1003 694 l 1010 1021 l 107 278 l 100 -49 l 1003 694 m 358 972 l 100 972 l 100 -49 l 358 206 l 358 972 m 1010 1021 l 751 756 l 751 0 l 1010 0 l 1010 1021 z "},"Ѝ":{"ha":1110,"x_min":100,"x_max":1010,"o":"m 1003 694 l 1010 1021 l 107 278 l 100 -49 l 1003 694 m 358 972 l 100 972 l 100 -49 l 358 206 l 358 972 m 1010 1021 l 751 756 l 751 0 l 1010 0 l 1010 1021 m 343 1265 l 593 1057 l 728 1121 l 519 1343 l 343 1265 z "},"Й":{"ha":1110,"x_min":100,"x_max":1010,"o":"m 1003 694 l 1010 1021 l 107 278 l 100 -49 l 1003 694 m 358 972 l 100 972 l 100 -49 l 358 206 l 358 972 m 1010 1021 l 751 756 l 751 0 l 1010 0 l 1010 1021 m 357 1279 q 384 1174 357 1221 q 463 1101 411 1128 q 588 1074 515 1074 q 713 1101 661 1074 q 791 1174 764 1128 q 818 1279 818 1221 l 669 1279 q 658 1236 669 1253 q 627 1211 646 1219 q 588 1203 608 1203 q 549 1211 567 1203 q 518 1236 531 1219 q 506 1279 506 1253 l 357 1279 z "},"К":{"ha":1026,"x_min":100,"x_max":1031,"o":"m 100 972 l 100 0 l 381 0 l 381 972 l 100 972 m 696 972 l 303 508 l 704 0 l 1031 0 l 624 517 l 1010 972 l 696 972 z "},"Ќ":{"ha":1026,"x_min":100,"x_max":1031,"o":"m 100 972 l 100 0 l 381 0 l 381 972 l 100 972 m 696 972 l 303 508 l 704 0 l 1031 0 l 624 517 l 1010 972 l 696 972 m 806 1289 l 629 1367 l 421 1144 l 556 1081 l 806 1289 z "},"Л":{"ha":1115,"x_min":14,"x_max":1004,"o":"m 1004 972 l 165 972 l 165 408 q 155 333 165 367 q 125 275 144 299 q 77 239 106 251 q 14 226 49 226 l 14 0 q 260 45 165 0 q 397 187 354 90 q 439 435 439 283 l 439 732 l 729 732 l 729 0 l 1004 0 l 1004 972 z "},"М":{"ha":1271,"x_min":44,"x_max":1226,"o":"m 385 447 l 635 90 l 886 447 l 940 0 l 1226 0 l 1058 1021 l 635 461 l 213 1021 l 44 0 l 331 0 l 385 447 z "},"Н":{"ha":1122,"x_min":100,"x_max":1022,"o":"m 165 388 l 921 388 l 921 628 l 165 628 l 165 388 m 753 972 l 753 0 l 1022 0 l 1022 972 l 753 972 m 100 972 l 100 0 l 369 0 l 369 972 l 100 972 z "},"О":{"ha":1153,"x_min":44,"x_max":1108,"o":"m 329 486 q 360 625 329 565 q 446 719 390 685 q 576 753 501 753 q 710 719 656 753 q 794 625 765 685 q 824 486 824 565 q 793 348 824 408 q 708 253 763 288 q 576 219 653 219 q 446 253 501 219 q 360 348 390 288 q 329 486 329 408 m 44 486 q 83 276 44 372 q 194 110 122 181 q 363 2 265 40 q 576 -36 460 -36 q 791 2 693 -36 q 960 110 889 40 q 1069 276 1031 181 q 1108 486 1108 372 q 1069 695 1108 601 q 957 856 1029 789 q 788 960 885 924 q 576 997 692 997 q 367 960 464 997 q 199 856 271 924 q 85 695 126 789 q 44 486 44 601 z "},"П":{"ha":1094,"x_min":111,"x_max":983,"o":"m 708 732 l 708 0 l 983 0 l 983 972 l 111 972 l 111 0 l 386 0 l 386 732 l 708 732 z "},"Р":{"ha":896,"x_min":100,"x_max":851,"o":"m 100 972 l 100 0 l 369 0 l 369 972 l 100 972 m 272 754 l 460 754 q 558 726 524 754 q 593 647 593 699 q 558 567 593 594 q 460 539 524 539 l 272 539 l 272 322 l 460 322 q 680 361 593 322 q 809 474 767 400 q 851 647 851 547 q 809 821 851 749 q 680 933 767 893 q 460 972 593 972 l 272 972 l 272 754 z "},"С":{"ha":979,"x_min":44,"x_max":893,"o":"m 340 486 q 377 626 340 568 q 475 713 414 683 q 610 743 536 743 q 731 725 679 743 q 822 678 782 707 q 893 618 863 650 l 893 901 q 767 971 836 944 q 592 997 699 997 q 369 961 471 997 q 196 857 268 925 q 84 695 124 789 q 44 486 44 601 q 84 277 44 371 q 196 115 124 183 q 369 11 268 47 q 592 -25 471 -25 q 767 2 699 -25 q 893 71 836 29 l 893 354 q 822 294 863 322 q 731 247 782 265 q 610 229 679 229 q 475 259 536 229 q 377 347 414 289 q 340 486 340 404 z "},"Т":{"ha":819,"x_min":3,"x_max":817,"o":"m 3 732 l 275 732 l 275 0 l 544 0 l 544 732 l 817 732 l 817 972 l 3 972 l 3 732 z "},"У":{"ha":881,"x_min":-17,"x_max":897,"o":"m 897 972 l 619 972 l 372 415 l 482 415 l 281 972 l -17 972 l 300 299 l 168 0 l 440 0 l 897 972 z "},"Ў":{"ha":857,"x_min":-17,"x_max":875,"o":"m 875 972 l 608 972 l 361 415 l 469 415 l 269 972 l -17 972 l 289 299 l 157 0 l 418 0 l 875 972 m 199 1286 q 226 1181 199 1228 q 305 1108 253 1135 q 429 1081 357 1081 q 554 1108 503 1081 q 633 1181 606 1135 q 660 1286 660 1228 l 511 1286 q 499 1243 511 1260 q 469 1218 488 1226 q 429 1210 450 1210 q 390 1218 408 1210 q 360 1243 372 1226 q 347 1286 347 1260 l 199 1286 z "},"Ф":{"ha":1357,"x_min":56,"x_max":1301,"o":"m 540 972 l 540 0 l 815 0 l 815 972 l 540 972 m 1026 486 q 997 397 1026 429 q 915 353 968 365 q 789 342 863 342 l 567 342 q 441 353 494 342 q 359 397 388 365 q 331 486 331 429 q 359 576 331 544 q 441 619 388 607 q 567 631 494 631 l 789 631 q 915 619 863 631 q 997 576 968 607 q 1026 486 1026 544 m 1301 486 q 1241 688 1301 604 q 1077 816 1181 771 q 846 861 974 861 l 511 861 q 280 816 383 861 q 116 688 176 771 q 56 486 56 604 q 116 285 56 369 q 280 156 176 201 q 511 111 383 111 l 846 111 q 1077 156 974 111 q 1241 285 1181 201 q 1301 486 1301 369 z "},"Х":{"ha":1006,"x_min":3,"x_max":1004,"o":"m 647 972 l 508 714 l 372 972 l 38 972 l 342 496 l 3 0 l 338 0 l 506 299 l 668 0 l 1004 0 l 672 496 l 983 972 l 647 972 z "},"Ц":{"ha":1235,"x_min":100,"x_max":1190,"o":"m 375 240 l 375 972 l 100 972 l 100 0 l 929 0 l 929 -197 l 1190 -197 l 1190 240 l 1028 240 l 1028 972 l 753 972 l 753 240 l 375 240 z "},"Ч":{"ha":1039,"x_min":100,"x_max":928,"o":"m 436 282 l 738 282 l 738 521 l 526 521 l 436 282 m 647 972 l 647 0 l 928 0 l 928 972 l 647 972 m 374 972 l 100 972 l 100 629 q 140 457 100 536 q 254 330 179 378 q 436 282 329 282 l 526 521 q 449 536 483 521 q 394 585 414 551 q 374 669 374 618 l 374 972 z "},"Ш":{"ha":1542,"x_min":111,"x_max":1431,"o":"m 1161 240 l 900 240 l 900 972 l 642 972 l 642 240 l 381 240 l 381 972 l 111 972 l 111 0 l 1431 0 l 1431 972 l 1161 972 l 1161 240 z "},"Щ":{"ha":1649,"x_min":111,"x_max":1593,"o":"m 1161 240 l 900 240 l 900 972 l 642 972 l 642 240 l 381 240 l 381 972 l 111 972 l 111 0 l 1332 0 l 1332 -197 l 1593 -197 l 1593 240 l 1431 240 l 1431 972 l 1161 972 l 1161 240 z "},"Ъ":{"ha":1054,"x_min":14,"x_max":1010,"o":"m 431 433 l 618 433 q 690 421 661 433 q 735 384 719 408 q 751 325 751 360 q 735 267 751 292 q 690 230 719 242 q 618 218 661 218 l 431 218 l 431 0 l 618 0 q 838 40 751 0 q 967 152 925 79 q 1010 325 1010 225 q 967 499 1010 426 q 838 611 925 572 q 618 650 751 650 l 431 650 l 431 433 m 264 733 l 264 0 l 533 0 l 533 972 l 14 972 l 14 733 l 264 733 z "},"Ы":{"ha":1321,"x_min":100,"x_max":1221,"o":"m 946 972 l 946 0 l 1221 0 l 1221 972 l 946 972 m 100 972 l 100 0 l 369 0 l 369 972 l 100 972 m 272 433 l 460 433 q 532 421 503 433 q 577 384 561 408 q 593 325 593 360 q 577 267 593 292 q 532 230 561 242 q 460 218 503 218 l 272 218 l 272 0 l 460 0 q 680 40 593 0 q 809 152 767 79 q 851 325 851 225 q 809 499 851 426 q 680 611 767 572 q 460 650 593 650 l 272 650 l 272 433 z "},"Ь":{"ha":896,"x_min":100,"x_max":851,"o":"m 100 972 l 100 0 l 369 0 l 369 972 l 100 972 m 272 433 l 460 433 q 532 421 503 433 q 577 384 561 408 q 593 325 593 360 q 577 267 593 292 q 532 230 561 242 q 460 218 503 218 l 272 218 l 272 0 l 460 0 q 680 40 593 0 q 809 152 767 79 q 851 325 851 225 q 809 499 851 426 q 680 611 767 572 q 460 650 593 650 l 272 650 l 272 433 z "},"Э":{"ha":979,"x_min":86,"x_max":935,"o":"m 192 381 l 690 381 l 690 592 l 192 592 l 192 381 m 674 486 q 628 344 674 404 q 513 251 582 285 q 369 218 443 218 q 247 235 301 218 q 151 276 192 253 q 86 321 111 300 l 86 71 q 213 2 144 29 q 388 -25 282 -25 q 610 11 510 -25 q 783 115 711 47 q 895 277 856 183 q 935 486 935 371 q 895 695 935 601 q 783 857 856 789 q 610 961 711 925 q 388 997 510 997 q 213 971 282 997 q 86 901 144 944 l 86 651 q 151 696 111 672 q 247 737 192 719 q 369 754 301 754 q 513 722 443 754 q 628 628 582 689 q 674 486 674 568 z "},"Ю":{"ha":1632,"x_min":100,"x_max":1588,"o":"m 165 388 l 683 388 l 683 628 l 165 628 l 165 388 m 100 972 l 100 0 l 369 0 l 369 972 l 100 972 m 808 486 q 839 625 808 565 q 925 719 869 685 q 1056 753 981 753 q 1190 719 1135 753 q 1274 625 1244 685 q 1303 486 1303 565 q 1272 348 1303 408 q 1187 253 1242 288 q 1056 219 1132 219 q 925 253 981 219 q 839 348 869 288 q 808 486 808 408 m 524 486 q 563 276 524 372 q 673 110 601 181 q 842 2 744 40 q 1056 -36 939 -36 q 1270 2 1172 -36 q 1439 110 1368 40 q 1549 276 1510 181 q 1588 486 1588 372 q 1548 695 1588 601 q 1436 856 1508 789 q 1267 960 1364 924 q 1056 997 1171 997 q 847 960 943 997 q 678 856 750 924 q 565 695 606 789 q 524 486 524 601 z "},"Я":{"ha":935,"x_min":3,"x_max":835,"o":"m 571 429 l 294 429 l 3 0 l 317 0 l 571 429 m 835 972 l 565 972 l 565 0 l 835 0 l 835 972 m 663 744 l 663 972 l 453 972 q 233 931 321 972 q 103 816 146 889 q 61 647 61 743 q 103 478 61 553 q 233 363 146 404 q 453 322 321 322 l 663 322 l 663 526 l 475 526 q 403 539 433 526 q 358 576 374 551 q 342 636 342 601 q 358 695 342 671 q 403 732 374 719 q 475 744 433 744 l 663 744 z "},"a":{"ha":772,"x_min":31,"x_max":700,"o":"m 272 200 q 281 234 272 221 q 308 254 289 247 q 360 261 328 261 q 447 249 406 261 q 517 213 489 236 l 517 314 q 463 349 499 333 q 381 375 428 365 q 282 385 335 385 q 95 332 160 385 q 31 188 31 279 q 63 77 31 122 q 147 9 94 32 q 260 -14 199 -14 q 377 8 324 -14 q 462 74 431 31 q 493 178 493 117 l 471 261 q 453 190 471 218 q 408 148 436 161 q 350 135 381 135 q 311 142 329 135 q 283 165 293 150 q 272 200 272 179 m 156 429 q 200 449 168 436 q 274 471 232 461 q 357 481 317 481 q 408 474 386 481 q 444 456 431 468 q 465 428 458 444 q 471 390 471 411 l 471 0 l 700 0 l 700 447 q 659 563 700 515 q 548 634 618 610 q 390 658 478 658 q 220 635 300 658 q 79 586 140 613 l 156 429 z "},"à":{"ha":781,"x_min":31,"x_max":708,"o":"m 272 192 q 284 228 272 213 q 318 253 296 244 q 369 263 340 263 q 457 250 422 263 q 525 213 492 238 l 525 321 q 476 352 510 338 q 397 376 442 367 q 308 385 353 385 q 163 360 226 385 q 65 289 100 335 q 31 179 31 243 q 60 75 31 118 q 142 9 89 32 q 267 -14 196 -14 q 386 9 333 -14 q 470 76 439 32 q 501 181 501 119 l 479 261 q 461 185 479 213 q 413 147 443 158 q 350 135 383 135 q 310 141 329 135 q 282 160 292 147 q 272 192 272 172 m 165 428 q 213 449 181 438 q 285 471 244 461 q 372 481 326 481 q 452 456 425 481 q 479 393 479 432 l 479 0 l 708 0 l 708 447 q 667 563 708 515 q 556 634 626 610 q 394 658 485 658 q 229 635 308 658 q 89 586 150 613 l 165 428 m 150 950 l 400 742 l 536 806 l 328 1028 l 150 950 z "},"á":{"ha":781,"x_min":31,"x_max":708,"o":"m 272 192 q 284 228 272 213 q 318 253 296 244 q 369 263 340 263 q 457 250 422 263 q 525 213 492 238 l 525 321 q 476 352 510 338 q 397 376 442 367 q 308 385 353 385 q 163 360 226 385 q 65 289 100 335 q 31 179 31 243 q 60 75 31 118 q 142 9 89 32 q 267 -14 196 -14 q 386 9 333 -14 q 470 76 439 32 q 501 181 501 119 l 479 261 q 461 185 479 213 q 413 147 443 158 q 350 135 383 135 q 310 141 329 135 q 282 160 292 147 q 272 192 272 172 m 165 428 q 213 449 181 438 q 285 471 244 461 q 372 481 326 481 q 452 456 425 481 q 479 393 479 432 l 479 0 l 708 0 l 708 447 q 667 563 708 515 q 556 634 626 610 q 394 658 485 658 q 229 635 308 658 q 89 586 150 613 l 165 428 m 639 950 l 463 1028 l 254 806 l 389 742 l 639 950 z "},"â":{"ha":781,"x_min":31,"x_max":708,"o":"m 272 192 q 284 228 272 213 q 318 253 296 244 q 369 263 340 263 q 457 250 422 263 q 525 213 492 238 l 525 321 q 476 352 510 338 q 397 376 442 367 q 308 385 353 385 q 163 360 226 385 q 65 289 100 335 q 31 179 31 243 q 60 75 31 118 q 142 9 89 32 q 267 -14 196 -14 q 386 9 333 -14 q 470 76 439 32 q 501 181 501 119 l 479 261 q 461 185 479 213 q 413 147 443 158 q 350 135 383 135 q 310 141 329 135 q 282 160 292 147 q 272 192 272 172 m 165 428 q 213 449 181 438 q 285 471 244 461 q 372 481 326 481 q 452 456 425 481 q 479 393 479 432 l 479 0 l 708 0 l 708 447 q 667 563 708 515 q 556 634 626 610 q 394 658 485 658 q 229 635 308 658 q 89 586 150 613 l 165 428 m 394 857 l 514 742 l 685 853 l 394 1047 l 106 853 l 276 742 l 394 857 z "},"ã":{"ha":781,"x_min":31,"x_max":708,"o":"m 272 192 q 284 228 272 213 q 318 253 296 244 q 369 263 340 263 q 457 250 422 263 q 525 213 492 238 l 525 321 q 476 352 510 338 q 397 376 442 367 q 308 385 353 385 q 163 360 226 385 q 65 289 100 335 q 31 179 31 243 q 60 75 31 118 q 142 9 89 32 q 267 -14 196 -14 q 386 9 333 -14 q 470 76 439 32 q 501 181 501 119 l 479 261 q 461 185 479 213 q 413 147 443 158 q 350 135 383 135 q 310 141 329 135 q 282 160 292 147 q 272 192 272 172 m 165 428 q 213 449 181 438 q 285 471 244 461 q 372 481 326 481 q 452 456 425 481 q 479 393 479 432 l 479 0 l 708 0 l 708 447 q 667 563 708 515 q 556 634 626 610 q 394 658 485 658 q 229 635 308 658 q 89 586 150 613 l 165 428 m 110 844 l 217 749 q 222 776 217 760 q 241 806 226 793 q 281 819 256 819 q 348 800 317 819 q 412 762 379 781 q 482 743 444 743 q 569 763 528 743 q 640 813 610 783 q 681 867 669 842 l 571 982 q 528 928 550 949 q 476 907 506 907 q 426 918 447 907 q 385 944 404 929 q 341 969 365 958 q 282 981 317 981 q 198 960 235 981 q 139 910 161 940 q 110 844 117 879 z "},"ä":{"ha":781,"x_min":31,"x_max":708,"o":"m 272 192 q 284 228 272 213 q 318 253 296 244 q 369 263 340 263 q 457 250 422 263 q 525 213 492 238 l 525 321 q 476 352 510 338 q 397 376 442 367 q 308 385 353 385 q 163 360 226 385 q 65 289 100 335 q 31 179 31 243 q 60 75 31 118 q 142 9 89 32 q 267 -14 196 -14 q 386 9 333 -14 q 470 76 439 32 q 501 181 501 119 l 479 261 q 461 185 479 213 q 413 147 443 158 q 350 135 383 135 q 310 141 329 135 q 282 160 292 147 q 272 192 272 172 m 165 428 q 213 449 181 438 q 285 471 244 461 q 372 481 326 481 q 452 456 425 481 q 479 393 479 432 l 479 0 l 708 0 l 708 447 q 667 563 708 515 q 556 634 626 610 q 394 658 485 658 q 229 635 308 658 q 89 586 150 613 l 165 428 m 438 867 q 477 776 438 811 q 574 742 517 742 q 669 776 629 742 q 708 867 708 811 q 669 956 708 922 q 574 990 629 990 q 477 956 517 990 q 438 867 438 922 m 81 867 q 121 776 81 811 q 217 742 161 742 q 313 776 274 742 q 353 867 353 811 q 313 956 353 922 q 217 990 274 990 q 121 956 161 990 q 81 867 81 922 z "},"å":{"ha":781,"x_min":31,"x_max":708,"o":"m 272 192 q 284 228 272 213 q 318 253 296 244 q 369 263 340 263 q 457 250 422 263 q 525 213 492 238 l 525 321 q 476 352 510 338 q 397 376 442 367 q 308 385 353 385 q 163 360 226 385 q 65 289 100 335 q 31 179 31 243 q 60 75 31 118 q 142 9 89 32 q 267 -14 196 -14 q 386 9 333 -14 q 470 76 439 32 q 501 181 501 119 l 479 261 q 461 185 479 213 q 413 147 443 158 q 350 135 383 135 q 310 141 329 135 q 282 160 292 147 q 272 192 272 172 m 165 428 q 213 449 181 438 q 285 471 244 461 q 372 481 326 481 q 452 456 425 481 q 479 393 479 432 l 479 0 l 708 0 l 708 447 q 667 563 708 515 q 556 634 626 610 q 394 658 485 658 q 229 635 308 658 q 89 586 150 613 l 165 428 m 211 908 q 264 788 211 835 q 394 742 317 742 q 524 788 471 742 q 578 908 578 835 q 524 1029 578 983 q 394 1075 471 1075 q 264 1029 317 1075 q 211 908 211 983 m 332 908 q 350 956 332 939 q 394 974 368 974 q 439 956 421 974 q 457 908 457 939 q 439 861 457 878 q 394 844 421 844 q 350 861 368 844 q 332 908 332 878 z "},"ā":{"ha":781,"x_min":31,"x_max":708,"o":"m 272 192 q 284 228 272 213 q 318 253 296 244 q 369 263 340 263 q 457 250 422 263 q 525 213 492 238 l 525 321 q 476 352 510 338 q 397 376 442 367 q 308 385 353 385 q 163 360 226 385 q 65 289 100 335 q 31 179 31 243 q 60 75 31 118 q 142 9 89 32 q 267 -14 196 -14 q 386 9 333 -14 q 470 76 439 32 q 501 181 501 119 l 479 261 q 461 185 479 213 q 413 147 443 158 q 350 135 383 135 q 310 141 329 135 q 282 160 292 147 q 272 192 272 172 m 165 428 q 213 449 181 438 q 285 471 244 461 q 372 481 326 481 q 452 456 425 481 q 479 393 479 432 l 479 0 l 708 0 l 708 447 q 667 563 708 515 q 556 634 626 610 q 394 658 485 658 q 229 635 308 658 q 89 586 150 613 l 165 428 m 132 747 l 658 747 l 658 953 l 132 953 l 132 747 z "},"ă":{"ha":781,"x_min":31,"x_max":708,"o":"m 272 192 q 284 228 272 213 q 318 253 296 244 q 369 263 340 263 q 457 250 422 263 q 525 213 492 238 l 525 321 q 476 352 510 338 q 397 376 442 367 q 308 385 353 385 q 163 360 226 385 q 65 289 100 335 q 31 179 31 243 q 60 75 31 118 q 142 9 89 32 q 267 -14 196 -14 q 386 9 333 -14 q 470 76 439 32 q 501 181 501 119 l 479 261 q 461 185 479 213 q 413 147 443 158 q 350 135 383 135 q 310 141 329 135 q 282 160 292 147 q 272 192 272 172 m 165 428 q 213 449 181 438 q 285 471 244 461 q 372 481 326 481 q 452 456 425 481 q 479 393 479 432 l 479 0 l 708 0 l 708 447 q 667 563 708 515 q 556 634 626 610 q 394 658 485 658 q 229 635 308 658 q 89 586 150 613 l 165 428 m 164 947 q 191 842 164 889 q 270 769 218 796 q 394 742 322 742 q 519 769 468 742 q 598 842 571 796 q 625 947 625 889 l 476 947 q 465 904 476 921 q 434 879 453 888 q 394 871 415 871 q 356 879 374 871 q 326 904 338 888 q 314 947 314 921 l 164 947 z "},"ą":{"ha":781,"x_min":31,"x_max":708,"o":"m 272 192 q 284 228 272 213 q 318 253 296 244 q 369 263 340 263 q 457 250 422 263 q 525 213 492 238 l 525 321 q 476 352 510 338 q 397 376 442 367 q 308 385 353 385 q 163 360 225 385 q 65 289 100 335 q 31 181 31 243 q 60 76 31 119 q 144 9 90 32 q 267 -14 197 -14 q 386 9 333 -14 q 470 76 439 32 q 501 181 501 119 l 479 261 q 461 185 479 213 q 413 147 443 158 q 350 135 383 135 q 311 141 329 135 q 283 160 293 147 q 272 192 272 172 m 165 428 q 213 449 181 438 q 285 471 244 461 q 372 481 326 481 q 452 456 425 481 q 479 393 479 432 l 479 0 l 708 0 l 708 447 q 667 563 708 515 q 556 634 626 610 q 394 658 485 658 q 229 635 308 658 q 89 586 150 613 l 165 428 m 658 -147 q 626 -168 644 -161 q 589 -175 608 -175 q 556 -162 567 -175 q 546 -128 546 -150 q 557 -85 546 -107 q 592 -42 568 -64 q 651 0 615 -21 l 594 35 q 501 -19 546 10 q 428 -84 457 -49 q 400 -167 400 -119 q 423 -244 400 -212 q 482 -290 446 -275 q 560 -306 518 -306 q 655 -288 621 -306 q 704 -250 689 -271 l 658 -147 z "},"b":{"ha":876,"x_min":75,"x_max":833,"o":"m 315 1083 l 75 1083 l 75 0 l 315 0 l 315 1083 m 833 319 q 790 503 833 429 q 678 615 746 576 q 533 653 610 653 q 391 613 454 653 q 291 498 328 572 q 254 319 254 424 q 291 142 254 217 q 391 26 328 67 q 533 -14 454 -14 q 678 24 610 -14 q 790 137 746 63 q 833 319 833 211 m 581 319 q 563 244 581 278 q 514 193 544 211 q 446 175 483 175 q 384 192 414 175 q 335 242 354 210 q 315 319 315 274 q 335 397 315 365 q 384 447 354 429 q 446 464 414 464 q 514 446 483 464 q 563 395 544 428 q 581 319 581 363 z "},"c":{"ha":692,"x_min":42,"x_max":622,"o":"m 289 319 q 310 394 289 361 q 367 447 331 428 q 444 467 403 467 q 507 458 474 467 q 572 429 540 449 q 622 379 603 410 l 622 604 q 543 638 589 624 q 422 653 497 653 q 226 612 313 653 q 91 497 140 571 q 42 319 42 422 q 91 143 42 218 q 226 27 140 68 q 422 -14 313 -14 q 543 1 497 -14 q 622 36 589 15 l 622 261 q 574 212 603 232 q 513 182 546 192 q 444 172 479 172 q 367 190 403 172 q 310 240 331 207 q 289 319 289 274 z "},"ç":{"ha":692,"x_min":42,"x_max":622,"o":"m 289 319 q 310 394 289 361 q 367 447 331 428 q 444 467 403 467 q 507 458 474 467 q 572 429 540 449 q 622 379 603 410 l 622 604 q 543 638 589 624 q 422 653 497 653 q 226 612 313 653 q 91 497 140 571 q 42 319 42 422 q 91 143 42 218 q 226 27 140 68 q 422 -14 313 -14 q 543 1 497 -14 q 622 36 589 15 l 622 261 q 574 212 603 232 q 513 182 546 192 q 444 172 479 172 q 367 190 403 172 q 310 240 331 207 q 289 319 289 274 m 321 85 l 199 -196 q 276 -178 239 -181 q 322 -175 313 -175 q 383 -182 354 -175 q 411 -218 411 -189 q 390 -253 411 -243 q 333 -264 369 -264 q 280 -256 315 -264 q 215 -229 244 -249 l 147 -336 q 255 -380 203 -368 q 369 -392 307 -392 q 459 -374 415 -392 q 533 -320 503 -356 q 563 -233 563 -285 q 541 -152 563 -185 q 488 -103 519 -119 q 428 -87 457 -87 q 394 -89 410 -87 q 365 -94 379 -90 l 494 79 l 321 85 z "},"ć":{"ha":692,"x_min":42,"x_max":622,"o":"m 289 319 q 310 394 289 361 q 367 447 331 428 q 444 467 403 467 q 507 458 474 467 q 572 429 540 449 q 622 379 603 410 l 622 604 q 543 638 589 624 q 422 653 497 653 q 226 612 313 653 q 91 497 140 571 q 42 319 42 422 q 91 143 42 218 q 226 27 140 68 q 422 -14 313 -14 q 543 1 497 -14 q 622 36 589 15 l 622 261 q 574 212 603 232 q 513 182 546 192 q 444 172 479 172 q 367 190 403 172 q 310 240 331 207 q 289 319 289 274 m 603 946 l 426 1024 l 218 801 l 353 738 l 603 946 z "},"ĉ":{"ha":692,"x_min":42,"x_max":656,"o":"m 289 319 q 310 394 289 361 q 367 447 331 428 q 444 467 403 467 q 507 458 474 467 q 572 429 540 449 q 622 379 603 410 l 622 604 q 543 638 589 624 q 422 653 497 653 q 226 612 313 653 q 91 497 140 571 q 42 319 42 422 q 91 143 42 218 q 226 27 140 68 q 422 -14 313 -14 q 543 1 497 -14 q 622 36 589 15 l 622 261 q 574 212 603 232 q 513 182 546 192 q 444 172 479 172 q 367 190 403 172 q 310 240 331 207 q 289 319 289 274 m 367 853 l 486 738 l 656 849 l 367 1043 l 78 849 l 247 738 l 367 853 z "},"ċ":{"ha":692,"x_min":42,"x_max":622,"o":"m 289 319 q 310 394 289 361 q 367 447 331 428 q 444 467 403 467 q 507 458 474 467 q 572 429 540 449 q 622 379 603 410 l 622 604 q 543 638 589 624 q 422 653 497 653 q 226 612 313 653 q 91 497 140 571 q 42 319 42 422 q 91 143 42 218 q 226 27 140 68 q 422 -14 313 -14 q 543 1 497 -14 q 622 36 589 15 l 622 261 q 574 212 603 232 q 513 182 546 192 q 444 172 479 172 q 367 190 403 172 q 310 240 331 207 q 289 319 289 274 m 242 874 q 281 783 242 818 q 378 749 321 749 q 474 783 435 749 q 514 874 514 818 q 474 963 514 929 q 378 997 435 997 q 281 963 321 997 q 242 874 242 929 z "},"č":{"ha":692,"x_min":42,"x_max":656,"o":"m 289 319 q 310 394 289 361 q 367 447 331 428 q 444 467 403 467 q 507 458 474 467 q 572 429 540 449 q 622 379 603 410 l 622 604 q 543 638 589 624 q 422 653 497 653 q 226 612 313 653 q 91 497 140 571 q 42 319 42 422 q 91 143 42 218 q 226 27 140 68 q 422 -14 313 -14 q 543 1 497 -14 q 622 36 589 15 l 622 261 q 574 212 603 232 q 513 182 546 192 q 444 172 479 172 q 367 190 403 172 q 310 240 331 207 q 289 319 289 274 m 367 928 l 247 1043 l 78 932 l 367 738 l 656 932 l 486 1043 l 367 928 z "},"d":{"ha":876,"x_min":43,"x_max":801,"o":"m 561 1083 l 561 0 l 801 0 l 801 1083 l 561 1083 m 43 319 q 87 137 43 211 q 199 24 131 63 q 343 -14 268 -14 q 486 26 424 -14 q 585 142 549 67 q 622 319 622 217 q 585 498 622 424 q 486 613 549 572 q 343 653 424 653 q 199 615 268 653 q 87 503 131 576 q 43 319 43 429 m 296 319 q 314 395 296 363 q 363 446 332 428 q 429 464 393 464 q 492 447 461 464 q 542 397 522 429 q 561 319 561 365 q 542 242 561 274 q 492 192 522 210 q 429 175 461 175 q 363 193 393 175 q 314 244 332 211 q 296 319 296 278 z "},"ď":{"ha":876,"x_min":43,"x_max":1204,"o":"m 561 1083 l 561 0 l 801 0 l 801 1083 l 561 1083 m 43 319 q 87 137 43 211 q 199 24 131 63 q 343 -14 268 -14 q 486 26 424 -14 q 585 142 549 67 q 622 319 622 217 q 585 498 622 424 q 486 613 549 572 q 343 653 424 653 q 199 615 268 653 q 87 503 131 576 q 43 319 43 429 m 296 319 q 314 395 296 363 q 363 446 332 428 q 429 464 393 464 q 492 447 461 464 q 542 397 522 429 q 561 319 561 365 q 542 242 561 274 q 492 192 522 210 q 429 175 461 175 q 363 193 393 175 q 314 244 332 211 q 296 319 296 278 m 965 1083 l 843 724 l 1024 690 l 1204 1038 l 965 1083 z "},"e":{"ha":821,"x_min":43,"x_max":779,"o":"m 424 -14 q 640 35 551 -14 q 779 182 728 83 l 563 225 q 505 170 542 189 q 415 151 468 151 q 343 172 372 151 q 299 229 314 192 q 285 321 283 267 q 299 422 285 382 q 340 481 313 461 q 410 500 368 500 q 467 485 443 500 q 505 444 492 471 q 518 378 518 417 q 513 354 518 368 q 500 329 507 340 l 551 393 l 175 393 l 175 269 l 771 269 q 773 298 772 282 q 774 331 774 314 q 732 506 774 435 q 611 615 690 578 q 415 653 532 653 q 215 613 299 653 q 88 498 132 572 q 43 319 43 424 q 89 142 43 217 q 220 27 135 68 q 424 -14 306 -14 z "},"è":{"ha":821,"x_min":43,"x_max":779,"o":"m 175 269 l 771 269 q 774 306 774 289 q 774 331 774 322 q 733 503 774 432 q 613 614 693 575 q 415 653 533 653 q 228 619 306 653 q 107 526 151 586 q 49 388 63 467 q 44 354 46 371 q 43 319 43 338 q 86 148 43 224 q 214 29 129 72 q 424 -14 299 -14 q 586 10 519 -14 q 700 78 653 35 q 779 182 747 122 l 563 225 q 528 185 549 201 q 479 160 507 169 q 415 151 451 151 q 351 167 381 151 q 303 220 321 183 q 285 319 285 257 l 288 350 q 302 432 288 399 q 344 483 317 465 q 410 500 371 500 q 465 488 443 500 q 500 451 488 475 q 517 393 513 428 l 175 393 l 175 269 m 176 949 l 426 740 l 561 804 l 353 1026 l 176 949 z "},"é":{"ha":821,"x_min":43,"x_max":779,"o":"m 175 269 l 771 269 q 774 306 774 289 q 774 331 774 322 q 733 503 774 432 q 613 614 693 575 q 415 653 533 653 q 228 619 306 653 q 107 526 151 586 q 49 388 63 467 q 44 354 46 371 q 43 319 43 338 q 86 148 43 224 q 214 29 129 72 q 424 -14 299 -14 q 586 10 519 -14 q 700 78 653 35 q 779 182 747 122 l 563 225 q 528 185 549 201 q 479 160 507 169 q 415 151 451 151 q 351 167 381 151 q 303 220 321 183 q 285 319 285 257 l 288 350 q 302 432 288 399 q 344 483 317 465 q 410 500 371 500 q 465 488 443 500 q 500 451 488 475 q 517 393 513 428 l 175 393 l 175 269 m 660 949 l 483 1026 l 275 804 l 410 740 l 660 949 z "},"ê":{"ha":821,"x_min":43,"x_max":779,"o":"m 175 269 l 771 269 q 774 306 774 289 q 774 331 774 322 q 733 503 774 432 q 613 614 693 575 q 415 653 533 653 q 228 619 306 653 q 107 526 151 586 q 49 388 63 467 q 44 354 46 371 q 43 319 43 338 q 86 148 43 224 q 214 29 129 72 q 424 -14 299 -14 q 586 10 519 -14 q 700 78 653 35 q 779 182 747 122 l 563 225 q 528 185 549 201 q 479 160 507 169 q 415 151 451 151 q 351 167 381 151 q 303 220 321 183 q 285 319 285 257 l 288 350 q 302 432 288 399 q 344 483 317 465 q 410 500 371 500 q 465 488 443 500 q 500 451 488 475 q 517 393 513 428 l 175 393 l 175 269 m 415 853 l 535 738 l 706 849 l 415 1043 l 126 849 l 297 738 l 415 853 z "},"ë":{"ha":821,"x_min":43,"x_max":779,"o":"m 175 269 l 771 269 q 774 306 774 289 q 774 331 774 322 q 733 503 774 432 q 613 614 693 575 q 415 653 533 653 q 228 619 306 653 q 107 526 151 586 q 49 388 63 467 q 44 354 46 371 q 43 319 43 338 q 86 148 43 224 q 214 29 129 72 q 424 -14 299 -14 q 586 10 519 -14 q 700 78 653 35 q 779 182 747 122 l 563 225 q 528 185 549 201 q 479 160 507 169 q 415 151 451 151 q 351 167 381 151 q 303 220 321 183 q 285 319 285 257 l 288 350 q 302 432 288 399 q 344 483 317 465 q 410 500 371 500 q 465 488 443 500 q 500 451 488 475 q 517 393 513 428 l 175 393 l 175 269 m 458 863 q 498 772 458 807 q 594 738 538 738 q 690 772 650 738 q 729 863 729 807 q 690 951 729 917 q 594 986 650 986 q 498 951 538 986 q 458 863 458 917 m 101 863 q 142 772 101 807 q 238 738 182 738 q 334 772 294 738 q 374 863 374 807 q 334 951 374 917 q 238 986 294 986 q 142 951 182 986 q 101 863 101 917 z "},"ē":{"ha":821,"x_min":43,"x_max":779,"o":"m 175 269 l 771 269 q 774 306 774 289 q 774 331 774 322 q 733 503 774 432 q 613 614 693 575 q 415 653 533 653 q 228 619 306 653 q 107 526 151 586 q 49 388 63 467 q 44 354 46 371 q 43 319 43 338 q 86 148 43 224 q 214 29 129 72 q 424 -14 299 -14 q 586 10 519 -14 q 700 78 653 35 q 779 182 747 122 l 563 225 q 528 185 549 201 q 479 160 507 169 q 415 151 451 151 q 351 167 381 151 q 303 220 321 183 q 285 319 285 257 l 288 350 q 302 432 288 399 q 344 483 317 465 q 410 500 371 500 q 465 488 443 500 q 500 451 488 475 q 517 393 513 428 l 175 393 l 175 269 m 154 738 l 679 738 l 679 942 l 154 942 l 154 738 z "},"ĕ":{"ha":821,"x_min":43,"x_max":779,"o":"m 175 269 l 771 269 q 774 306 774 289 q 774 331 774 322 q 733 503 774 432 q 613 614 693 575 q 415 653 533 653 q 228 619 306 653 q 107 526 151 586 q 49 388 63 467 q 44 354 46 371 q 43 319 43 338 q 86 148 43 224 q 214 29 129 72 q 424 -14 299 -14 q 586 10 519 -14 q 700 78 653 35 q 779 182 747 122 l 563 225 q 528 185 549 201 q 479 160 507 169 q 415 151 451 151 q 351 167 381 151 q 303 220 321 183 q 285 319 285 257 l 288 350 q 302 432 288 399 q 344 483 317 465 q 410 500 371 500 q 465 488 443 500 q 500 451 488 475 q 517 393 513 428 l 175 393 l 175 269 m 185 943 q 212 838 185 885 q 291 764 239 790 q 415 738 343 738 q 540 764 489 738 q 619 838 592 790 q 646 943 646 885 l 497 943 q 485 900 497 917 q 455 875 474 883 q 415 867 436 867 q 376 875 394 867 q 347 900 358 883 q 335 943 335 917 l 185 943 z "},"ė":{"ha":821,"x_min":43,"x_max":779,"o":"m 175 269 l 771 269 q 774 306 774 289 q 774 331 774 322 q 733 503 774 432 q 613 614 693 575 q 415 653 533 653 q 228 619 306 653 q 107 526 151 586 q 49 388 63 467 q 44 354 46 371 q 43 319 43 338 q 86 148 43 224 q 214 29 129 72 q 424 -14 299 -14 q 586 10 519 -14 q 700 78 653 35 q 779 182 747 122 l 563 225 q 528 185 549 201 q 479 160 507 169 q 415 151 451 151 q 351 167 381 151 q 303 220 321 183 q 285 319 285 257 l 288 350 q 302 432 288 399 q 344 483 317 465 q 410 500 371 500 q 465 488 443 500 q 500 451 488 475 q 517 393 513 428 l 175 393 l 175 269 m 281 863 q 320 772 281 807 q 415 738 360 738 q 512 772 472 738 q 551 863 551 807 q 512 951 551 917 q 415 986 472 986 q 320 951 360 986 q 281 863 281 917 z "},"ę":{"ha":821,"x_min":43,"x_max":796,"o":"m 175 269 l 771 269 q 774 306 774 289 q 774 331 774 322 q 733 503 774 432 q 613 614 693 575 q 415 653 533 653 q 228 619 306 653 q 107 526 151 586 q 49 388 63 467 q 44 354 46 371 q 43 319 43 338 q 86 148 43 224 q 214 29 129 72 q 424 -14 299 -14 q 544 2 494 -14 q 633 46 594 18 q 706 109 672 74 q 779 182 740 144 l 563 225 q 528 185 549 201 q 479 160 507 169 q 415 151 451 151 q 351 167 381 151 q 303 220 321 183 q 285 319 285 257 l 288 350 q 302 432 288 399 q 344 483 317 465 q 410 500 371 500 q 465 488 443 500 q 500 451 488 475 q 517 393 513 428 l 175 393 l 175 269 m 750 -35 q 718 -56 736 -49 q 681 -62 700 -62 q 647 -50 658 -62 q 636 -18 636 -37 q 649 25 636 3 q 694 84 663 47 q 778 182 726 121 l 686 147 q 617 106 651 128 q 553 59 582 83 q 508 6 525 35 q 492 -58 492 -24 q 515 -135 492 -104 q 575 -179 539 -165 q 649 -193 611 -193 q 745 -176 710 -193 q 796 -137 781 -158 l 750 -35 z "},"ě":{"ha":821,"x_min":43,"x_max":779,"o":"m 175 269 l 771 269 q 774 306 774 289 q 774 331 774 322 q 733 503 774 432 q 613 614 693 575 q 415 653 533 653 q 228 619 306 653 q 107 526 151 586 q 49 388 63 467 q 44 354 46 371 q 43 319 43 338 q 86 148 43 224 q 214 29 129 72 q 424 -14 299 -14 q 586 10 519 -14 q 700 78 653 35 q 779 182 747 122 l 563 225 q 528 185 549 201 q 479 160 507 169 q 415 151 451 151 q 351 167 381 151 q 303 220 321 183 q 285 319 285 257 l 288 350 q 302 432 288 399 q 344 483 317 465 q 410 500 371 500 q 465 488 443 500 q 500 451 488 475 q 517 393 513 428 l 175 393 l 175 269 m 415 928 l 297 1043 l 126 932 l 415 738 l 706 932 l 535 1043 l 415 928 z "},"f":{"ha":501,"x_min":17,"x_max":551,"o":"m 17 639 l 17 444 l 488 444 l 488 639 l 17 639 m 460 861 l 551 1033 q 511 1065 536 1047 q 449 1096 486 1083 q 358 1108 411 1108 q 215 1079 272 1108 q 130 998 158 1050 q 101 875 101 946 l 101 0 l 331 0 l 331 811 q 339 859 331 840 q 362 887 347 878 q 397 896 376 896 q 431 887 415 896 q 460 861 446 878 z "},"g":{"ha":864,"x_min":43,"x_max":790,"o":"m 57 -47 q 106 -198 67 -132 q 222 -300 144 -264 q 428 -336 300 -336 q 612 -301 531 -336 q 742 -190 693 -267 q 790 14 790 -112 l 790 639 l 561 639 l 561 14 q 542 -75 561 -39 q 491 -130 524 -111 q 415 -149 458 -149 q 354 -139 382 -149 q 310 -107 326 -129 q 288 -47 293 -85 l 57 -47 m 43 331 q 87 151 43 222 q 199 44 131 79 q 343 8 268 8 q 486 46 424 8 q 585 156 549 83 q 622 331 622 228 q 585 506 622 435 q 486 615 549 578 q 343 653 424 653 q 199 617 268 653 q 87 511 131 582 q 43 331 43 440 m 296 331 q 314 403 296 374 q 363 449 332 433 q 429 464 393 464 q 476 456 453 464 q 519 432 500 449 q 550 390 539 415 q 561 331 561 365 q 542 256 561 285 q 492 212 522 226 q 429 197 461 197 q 363 213 393 197 q 314 258 332 228 q 296 331 296 289 z "},"ĝ":{"ha":864,"x_min":43,"x_max":790,"o":"m 57 -47 q 106 -198 67 -132 q 222 -300 144 -264 q 428 -336 300 -336 q 612 -301 531 -336 q 742 -190 693 -267 q 790 14 790 -112 l 790 639 l 561 639 l 561 14 q 542 -75 561 -39 q 491 -130 524 -111 q 415 -149 458 -149 q 354 -139 382 -149 q 310 -107 326 -129 q 288 -47 293 -85 l 57 -47 m 43 331 q 87 151 43 222 q 199 44 131 79 q 343 8 268 8 q 486 46 424 8 q 585 156 549 83 q 622 331 622 228 q 585 506 622 435 q 486 615 549 578 q 343 653 424 653 q 199 617 268 653 q 87 511 131 582 q 43 331 43 440 m 296 331 q 314 403 296 374 q 363 449 332 433 q 429 464 393 464 q 476 456 453 464 q 519 432 500 449 q 550 390 539 415 q 561 331 561 365 q 542 256 561 285 q 492 212 522 226 q 429 197 461 197 q 363 213 393 197 q 314 258 332 228 q 296 331 296 289 m 467 853 l 585 738 l 756 849 l 467 1043 l 176 849 l 347 738 l 467 853 z "},"ğ":{"ha":864,"x_min":43,"x_max":790,"o":"m 57 -47 q 106 -198 67 -132 q 222 -300 144 -264 q 428 -336 300 -336 q 612 -301 531 -336 q 742 -190 693 -267 q 790 14 790 -112 l 790 639 l 561 639 l 561 14 q 542 -75 561 -39 q 491 -130 524 -111 q 415 -149 458 -149 q 354 -139 382 -149 q 310 -107 326 -129 q 288 -47 293 -85 l 57 -47 m 43 331 q 87 151 43 222 q 199 44 131 79 q 343 8 268 8 q 486 46 424 8 q 585 156 549 83 q 622 331 622 228 q 585 506 622 435 q 486 615 549 578 q 343 653 424 653 q 199 617 268 653 q 87 511 131 582 q 43 331 43 440 m 296 331 q 314 403 296 374 q 363 449 332 433 q 429 464 393 464 q 476 456 453 464 q 519 432 500 449 q 550 390 539 415 q 561 331 561 365 q 542 256 561 285 q 492 212 522 226 q 429 197 461 197 q 363 213 393 197 q 314 258 332 228 q 296 331 296 289 m 236 943 q 263 838 236 885 q 342 764 290 790 q 467 738 394 738 q 592 764 540 738 q 670 838 643 790 q 697 943 697 885 l 547 943 q 535 900 547 917 q 505 875 524 883 q 467 867 486 867 q 427 875 446 867 q 397 900 408 883 q 385 943 385 917 l 236 943 z "},"ġ":{"ha":864,"x_min":43,"x_max":790,"o":"m 57 -47 q 106 -198 67 -132 q 222 -300 144 -264 q 428 -336 300 -336 q 612 -301 531 -336 q 742 -190 693 -267 q 790 14 790 -112 l 790 639 l 561 639 l 561 14 q 542 -75 561 -39 q 491 -130 524 -111 q 415 -149 458 -149 q 354 -139 382 -149 q 310 -107 326 -129 q 288 -47 293 -85 l 57 -47 m 43 331 q 87 151 43 222 q 199 44 131 79 q 343 8 268 8 q 486 46 424 8 q 585 156 549 83 q 622 331 622 228 q 585 506 622 435 q 486 615 549 578 q 343 653 424 653 q 199 617 268 653 q 87 511 131 582 q 43 331 43 440 m 296 331 q 314 403 296 374 q 363 449 332 433 q 429 464 393 464 q 476 456 453 464 q 519 432 500 449 q 550 390 539 415 q 561 331 561 365 q 542 256 561 285 q 492 212 522 226 q 429 197 461 197 q 363 213 393 197 q 314 258 332 228 q 296 331 296 289 m 303 872 q 342 783 303 817 q 438 749 382 749 q 534 783 494 749 q 574 872 574 817 q 534 963 574 928 q 438 997 494 997 q 342 963 382 997 q 303 872 303 928 z "},"ģ":{"ha":792,"x_min":43,"x_max":790,"o":"m 57 -47 q 106 -198 67 -132 q 222 -300 144 -264 q 428 -336 300 -336 q 612 -301 531 -336 q 742 -190 693 -267 q 790 14 790 -112 l 790 639 l 561 639 l 561 14 q 542 -75 561 -39 q 491 -130 524 -111 q 415 -149 458 -149 q 354 -139 382 -149 q 310 -107 326 -129 q 288 -47 293 -85 l 57 -47 m 43 331 q 87 151 43 222 q 199 44 131 79 q 343 8 268 8 q 486 46 424 8 q 585 156 549 83 q 622 331 622 228 q 585 506 622 435 q 486 615 549 578 q 343 653 424 653 q 199 617 268 653 q 87 511 131 582 q 43 331 43 440 m 296 331 q 314 403 296 374 q 363 449 332 433 q 429 464 393 464 q 476 456 453 464 q 519 432 500 449 q 550 390 539 415 q 561 331 561 365 q 542 256 561 285 q 492 212 522 226 q 429 197 461 197 q 363 213 393 197 q 314 258 332 228 q 296 331 296 289 m 442 750 l 618 1086 l 443 1149 l 211 833 l 442 750 z "},"h":{"ha":807,"x_min":76,"x_max":732,"o":"m 317 1083 l 76 1083 l 76 0 l 317 0 l 317 1083 m 492 389 l 492 0 l 732 0 l 732 425 q 711 556 732 503 q 643 638 690 610 q 513 665 596 665 q 378 628 429 665 q 304 528 328 590 q 281 389 281 465 l 317 389 q 328 447 317 424 q 362 481 340 469 q 411 493 383 493 q 475 466 458 493 q 492 389 492 439 z "},"ĥ":{"ha":807,"x_min":-90,"x_max":732,"o":"m 317 1083 l 76 1083 l 76 0 l 317 0 l 317 1083 m 492 389 l 492 0 l 732 0 l 732 425 q 711 556 732 503 q 643 638 690 610 q 513 665 596 665 q 378 628 429 665 q 302 528 326 590 q 278 389 278 465 l 317 389 q 328 447 317 424 q 362 481 340 469 q 411 493 383 493 q 475 466 458 493 q 492 389 492 439 m 199 1282 l 318 1167 l 488 1278 l 199 1472 l -90 1278 l 79 1167 l 199 1282 z "},"i":{"ha":390,"x_min":60,"x_max":331,"o":"m 60 871 q 99 782 60 817 q 194 747 139 747 q 291 782 251 747 q 331 871 331 817 q 291 961 331 926 q 194 996 251 996 q 99 961 139 996 q 60 871 60 926 m 79 639 l 79 0 l 310 0 l 310 639 l 79 639 z "},"ì":{"ha":390,"x_min":-64,"x_max":321,"o":"m 79 639 l 79 0 l 310 0 l 310 639 l 79 639 m -64 951 l 186 743 l 321 807 l 113 1029 l -64 951 z "},"í":{"ha":390,"x_min":53,"x_max":439,"o":"m 79 639 l 79 0 l 310 0 l 310 639 l 79 639 m 439 951 l 261 1029 l 53 807 l 189 743 l 439 951 z "},"î":{"ha":390,"x_min":-96,"x_max":483,"o":"m 79 639 l 79 0 l 310 0 l 310 639 l 79 639 m 194 856 l 313 740 l 483 851 l 194 1046 l -96 851 l 75 740 l 194 856 z "},"ï":{"ha":390,"x_min":-119,"x_max":510,"o":"m 79 639 l 79 0 l 310 0 l 310 639 l 79 639 m 238 869 q 277 781 238 815 q 374 746 317 746 q 469 781 429 746 q 510 869 510 815 q 469 960 510 925 q 374 994 429 994 q 277 960 317 994 q 238 869 238 925 m -119 869 q -79 781 -119 815 q 17 746 -39 746 q 113 781 74 746 q 153 869 153 815 q 113 960 153 925 q 17 994 74 994 q -79 960 -39 994 q -119 869 -119 925 z "},"ĩ":{"ha":390,"x_min":-90,"x_max":481,"o":"m 79 639 l 79 0 l 310 0 l 310 639 l 79 639 m -90 840 l 17 744 q 22 772 17 756 q 42 802 28 789 q 81 815 56 815 q 148 796 117 815 q 212 758 179 776 q 282 739 244 739 q 369 759 328 739 q 440 808 411 779 q 481 863 469 838 l 372 978 q 328 924 351 944 q 276 903 304 903 q 224 914 246 903 q 183 940 203 925 q 140 965 164 954 q 82 976 115 976 q -3 956 33 976 q -61 906 -39 936 q -90 840 -83 875 z "},"ī":{"ha":390,"x_min":-68,"x_max":457,"o":"m 79 639 l 79 0 l 310 0 l 310 639 l 79 639 m -68 738 l 457 738 l 457 942 l -68 942 l -68 738 z "},"ĭ":{"ha":390,"x_min":-36,"x_max":425,"o":"m 79 639 l 79 0 l 310 0 l 310 639 l 79 639 m -36 943 q -9 838 -36 885 q 70 764 18 790 q 194 738 122 738 q 319 764 268 738 q 398 838 371 790 q 425 943 425 885 l 275 943 q 263 900 275 917 q 233 875 251 883 q 194 867 215 867 q 155 875 174 867 q 124 900 136 883 q 113 943 113 917 l -36 943 z "},"į":{"ha":390,"x_min":14,"x_max":331,"o":"m 60 871 q 99 782 60 817 q 194 747 139 747 q 291 782 251 747 q 331 871 331 817 q 291 961 331 926 q 194 996 251 996 q 99 961 139 996 q 60 871 60 926 m 79 639 l 79 0 l 310 0 l 310 639 l 79 639 m 272 -147 q 240 -168 258 -161 q 203 -175 222 -175 q 169 -162 181 -175 q 158 -128 158 -150 q 170 -85 158 -107 q 206 -42 182 -64 q 265 0 229 -21 l 208 35 q 115 -19 160 10 q 42 -84 71 -49 q 14 -167 14 -119 q 37 -244 14 -212 q 96 -290 60 -275 q 174 -306 132 -306 q 269 -288 235 -306 q 318 -250 303 -271 l 272 -147 z "},"j":{"ha":386,"x_min":-144,"x_max":326,"o":"m 56 871 q 95 782 56 817 q 192 747 135 747 q 288 782 249 747 q 326 871 326 817 q 288 961 326 926 q 192 996 249 996 q 95 961 135 996 q 56 871 56 926 m -53 -92 l -144 -264 q -102 -297 -126 -279 q -40 -326 -78 -314 q 49 -339 -3 -339 q 192 -309 135 -339 q 278 -226 250 -279 q 307 -106 307 -174 l 307 639 l 78 639 l 78 -42 q 70 -90 78 -71 q 47 -118 63 -108 q 11 -128 32 -128 q -24 -118 -10 -128 q -53 -92 -39 -108 z "},"ĵ":{"ha":386,"x_min":-144,"x_max":481,"o":"m -53 -92 l -144 -264 q -103 -296 -128 -278 q -40 -326 -78 -314 q 49 -339 -3 -339 q 192 -310 135 -339 q 278 -228 250 -281 q 307 -106 307 -175 l 307 639 l 78 639 l 78 -42 q 70 -90 78 -71 q 47 -118 63 -108 q 11 -128 32 -128 q -24 -119 -8 -128 q -53 -92 -39 -110 m 192 853 l 311 738 l 481 849 l 192 1043 l -99 849 l 72 738 l 192 853 z "},"k":{"ha":858,"x_min":75,"x_max":846,"o":"m 75 1083 l 75 0 l 304 0 l 304 1083 l 75 1083 m 535 639 l 263 375 l 568 0 l 846 0 l 547 375 l 818 639 l 535 639 z "},"ķ":{"ha":858,"x_min":75,"x_max":846,"o":"m 75 1083 l 75 0 l 304 0 l 304 1083 l 75 1083 m 535 639 l 263 375 l 568 0 l 846 0 l 547 375 l 818 639 l 535 639 m 357 -83 l 235 -443 l 415 -476 l 597 -129 l 357 -83 z "},"l":{"ha":392,"x_min":76,"x_max":317,"o":"m 76 1083 l 76 0 l 317 0 l 317 1083 l 76 1083 z "},"ĺ":{"ha":392,"x_min":49,"x_max":433,"o":"m 76 1083 l 76 0 l 317 0 l 317 1083 l 76 1083 m 433 1375 l 257 1453 l 49 1231 l 183 1167 l 433 1375 z "},"ļ":{"ha":392,"x_min":15,"x_max":378,"o":"m 76 1083 l 76 0 l 317 0 l 317 1083 l 76 1083 m 138 -83 l 15 -443 l 196 -476 l 378 -129 l 138 -83 z "},"ľ":{"ha":392,"x_min":76,"x_max":747,"o":"m 76 1083 l 76 0 l 317 0 l 317 1083 l 76 1083 m 508 1083 l 386 724 l 567 690 l 747 1038 l 508 1083 z "},"m":{"ha":1156,"x_min":76,"x_max":1081,"o":"m 1081 414 q 1063 544 1081 490 q 1001 626 1044 597 q 881 654 958 654 q 763 627 815 654 q 675 553 711 600 q 613 628 656 603 q 493 654 569 654 q 378 624 425 654 q 306 543 332 594 l 306 639 l 76 639 l 76 0 l 306 0 l 306 389 q 315 448 306 425 q 343 482 325 471 q 383 493 361 493 q 437 466 421 493 q 453 389 453 439 l 453 0 l 693 0 l 693 389 q 703 448 693 425 q 731 482 713 471 q 771 493 749 493 q 824 466 808 493 q 840 389 840 439 l 840 0 l 1081 0 l 1081 414 z "},"n":{"ha":819,"x_min":76,"x_max":743,"o":"m 492 389 l 492 0 l 743 0 l 743 414 q 690 591 743 528 q 513 654 638 654 q 391 624 439 654 q 317 544 343 594 l 317 639 l 76 639 l 76 0 l 317 0 l 317 389 q 328 447 317 424 q 362 482 340 471 q 411 493 383 493 q 475 466 458 493 q 492 389 492 439 z "},"ñ":{"ha":819,"x_min":76,"x_max":743,"o":"m 317 639 l 76 639 l 76 0 l 317 0 l 317 639 m 492 389 l 492 0 l 743 0 l 743 414 q 690 592 743 529 q 513 654 636 654 q 378 617 429 654 q 302 517 326 579 q 278 378 278 454 l 317 389 q 328 447 317 424 q 362 481 340 469 q 411 493 383 493 q 475 466 458 493 q 492 389 492 439 m 125 840 l 231 744 q 236 772 231 756 q 256 802 242 789 q 296 815 271 815 q 363 796 332 815 q 427 758 394 776 q 497 739 460 739 q 584 759 543 739 q 655 808 625 779 q 696 863 685 838 l 586 978 q 542 924 565 944 q 490 903 519 903 q 440 914 461 903 q 399 940 418 925 q 355 965 379 954 q 296 976 331 976 q 213 956 249 976 q 154 906 176 936 q 125 840 132 875 z "},"ń":{"ha":819,"x_min":76,"x_max":743,"o":"m 317 639 l 76 639 l 76 0 l 317 0 l 317 639 m 492 389 l 492 0 l 743 0 l 743 414 q 690 592 743 529 q 513 654 636 654 q 378 617 429 654 q 304 517 328 579 q 281 378 281 454 l 317 389 q 328 447 317 424 q 362 481 340 469 q 411 493 383 493 q 475 466 458 493 q 492 389 492 439 m 649 946 l 471 1024 l 263 801 l 399 738 l 649 946 z "},"ņ":{"ha":819,"x_min":76,"x_max":743,"o":"m 317 639 l 76 639 l 76 0 l 317 0 l 317 639 m 492 389 l 492 0 l 743 0 l 743 414 q 690 592 743 529 q 513 654 636 654 q 378 617 429 654 q 302 517 326 579 q 278 378 278 454 l 317 389 q 328 447 317 424 q 362 481 340 469 q 411 493 383 493 q 475 466 458 493 q 492 389 492 439 m 350 -83 l 228 -443 l 410 -476 l 590 -129 l 350 -83 z "},"ň":{"ha":819,"x_min":76,"x_max":743,"o":"m 317 639 l 76 639 l 76 0 l 317 0 l 317 639 m 492 389 l 492 0 l 743 0 l 743 414 q 690 592 743 529 q 513 654 636 654 q 378 617 429 654 q 302 517 326 579 q 278 378 278 454 l 317 389 q 328 447 317 424 q 362 481 340 469 q 411 493 383 493 q 475 466 458 493 q 492 389 492 439 m 408 928 l 289 1043 l 119 932 l 408 738 l 699 932 l 528 1043 l 408 928 z "},"o":{"ha":836,"x_min":43,"x_max":794,"o":"m 43 319 q 92 143 43 218 q 226 27 140 68 q 418 -14 311 -14 q 611 27 526 -14 q 745 143 696 68 q 794 319 794 218 q 745 497 794 422 q 611 613 696 572 q 418 654 526 654 q 226 613 311 654 q 92 497 140 572 q 43 319 43 422 m 290 319 q 308 395 290 364 q 354 443 325 426 q 418 460 383 460 q 482 443 453 460 q 529 395 511 426 q 547 319 547 364 q 529 244 547 275 q 482 197 511 213 q 418 181 453 181 q 354 197 383 181 q 308 244 325 213 q 290 319 290 275 z "},"ò":{"ha":836,"x_min":43,"x_max":794,"o":"m 43 319 q 92 143 43 218 q 226 27 140 68 q 418 -14 311 -14 q 611 27 526 -14 q 745 143 696 68 q 794 319 794 218 q 745 497 794 422 q 611 613 696 572 q 418 654 526 654 q 226 613 311 654 q 92 497 140 572 q 43 319 43 422 m 290 319 q 308 395 290 364 q 354 443 325 426 q 418 460 383 460 q 482 443 453 460 q 529 395 511 426 q 547 319 547 364 q 529 244 547 275 q 482 197 511 213 q 418 181 453 181 q 354 197 383 181 q 308 244 325 213 q 290 319 290 275 m 196 951 l 446 743 l 582 807 l 374 1029 l 196 951 z "},"ó":{"ha":836,"x_min":43,"x_max":794,"o":"m 43 319 q 92 143 43 218 q 226 27 140 68 q 418 -14 311 -14 q 611 27 526 -14 q 745 143 696 68 q 794 319 794 218 q 745 497 794 422 q 611 613 696 572 q 418 654 526 654 q 226 613 311 654 q 92 497 140 572 q 43 319 43 422 m 290 319 q 308 395 290 364 q 354 443 325 426 q 418 460 383 460 q 482 443 453 460 q 529 395 511 426 q 547 319 547 364 q 529 244 547 275 q 482 197 511 213 q 418 181 453 181 q 354 197 383 181 q 308 244 325 213 q 290 319 290 275 m 640 951 l 464 1029 l 256 807 l 390 743 l 640 951 z "},"ô":{"ha":836,"x_min":43,"x_max":794,"o":"m 43 319 q 92 143 43 218 q 226 27 140 68 q 418 -14 311 -14 q 611 27 526 -14 q 745 143 696 68 q 794 319 794 218 q 745 497 794 422 q 611 613 696 572 q 418 654 526 654 q 226 613 311 654 q 92 497 140 572 q 43 319 43 422 m 290 319 q 308 395 290 364 q 354 443 325 426 q 418 460 383 460 q 482 443 453 460 q 529 395 511 426 q 547 319 547 364 q 529 244 547 275 q 482 197 511 213 q 418 181 453 181 q 354 197 383 181 q 308 244 325 213 q 290 319 290 275 m 418 858 l 538 743 l 708 854 l 418 1049 l 129 854 l 299 743 l 418 858 z "},"õ":{"ha":836,"x_min":43,"x_max":794,"o":"m 43 319 q 92 143 43 218 q 226 27 140 68 q 418 -14 311 -14 q 611 27 526 -14 q 745 143 696 68 q 794 319 794 218 q 745 497 794 422 q 611 613 696 572 q 418 654 526 654 q 226 613 311 654 q 92 497 140 572 q 43 319 43 422 m 290 319 q 308 395 290 364 q 354 443 325 426 q 418 460 383 460 q 482 443 453 460 q 529 395 511 426 q 547 319 547 364 q 529 244 547 275 q 482 197 511 213 q 418 181 453 181 q 354 197 383 181 q 308 244 325 213 q 290 319 290 275 m 133 840 l 240 744 q 245 772 240 756 q 265 802 250 789 q 304 815 279 815 q 371 796 339 815 q 435 758 403 776 q 506 739 468 739 q 592 759 551 739 q 663 808 633 779 q 704 863 693 838 l 594 978 q 551 924 574 944 q 500 903 529 903 q 449 914 471 903 q 408 940 428 925 q 365 965 389 954 q 306 976 340 976 q 222 956 258 976 q 163 906 185 936 q 133 840 140 875 z "},"ö":{"ha":836,"x_min":43,"x_max":794,"o":"m 43 319 q 92 143 43 218 q 226 27 140 68 q 418 -14 311 -14 q 611 27 526 -14 q 745 143 696 68 q 794 319 794 218 q 745 497 794 422 q 611 613 696 572 q 418 654 526 654 q 226 613 311 654 q 92 497 140 572 q 43 319 43 422 m 290 319 q 308 395 290 364 q 354 443 325 426 q 418 460 383 460 q 482 443 453 460 q 529 395 511 426 q 547 319 547 364 q 529 244 547 275 q 482 197 511 213 q 418 181 453 181 q 354 197 383 181 q 308 244 325 213 q 290 319 290 275 m 461 869 q 501 781 461 815 q 596 746 540 746 q 692 781 653 746 q 732 869 732 815 q 692 960 732 925 q 596 994 653 994 q 501 960 540 994 q 461 869 461 925 m 104 869 q 144 781 104 815 q 240 746 183 746 q 337 781 297 746 q 376 869 376 815 q 337 960 376 925 q 240 994 297 994 q 144 960 183 994 q 104 869 104 925 z "},"ō":{"ha":836,"x_min":43,"x_max":794,"o":"m 43 319 q 92 143 43 218 q 226 27 140 68 q 418 -14 311 -14 q 611 27 526 -14 q 745 143 696 68 q 794 319 794 218 q 745 497 794 422 q 611 613 696 572 q 418 654 526 654 q 226 613 311 654 q 92 497 140 572 q 43 319 43 422 m 290 319 q 308 395 290 364 q 354 443 325 426 q 418 460 383 460 q 482 443 453 460 q 529 395 511 426 q 547 319 547 364 q 529 244 547 275 q 482 197 511 213 q 418 181 453 181 q 354 197 383 181 q 308 244 325 213 q 290 319 290 275 m 157 738 l 681 738 l 681 942 l 157 942 l 157 738 z "},"ŏ":{"ha":836,"x_min":43,"x_max":794,"o":"m 43 319 q 92 143 43 218 q 226 27 140 68 q 418 -14 311 -14 q 611 27 526 -14 q 745 143 696 68 q 794 319 794 218 q 745 497 794 422 q 611 613 696 572 q 418 654 526 654 q 226 613 311 654 q 92 497 140 572 q 43 319 43 422 m 290 319 q 308 395 290 364 q 354 443 325 426 q 418 460 383 460 q 482 443 453 460 q 529 395 511 426 q 547 319 547 364 q 529 244 547 275 q 482 197 511 213 q 418 181 453 181 q 354 197 383 181 q 308 244 325 213 q 290 319 290 275 m 188 943 q 215 838 188 885 q 294 764 242 790 q 418 738 346 738 q 543 764 492 738 q 622 838 594 790 q 649 943 649 885 l 500 943 q 488 900 500 917 q 458 875 476 883 q 418 867 439 867 q 379 875 397 867 q 349 900 361 883 q 336 943 336 917 l 188 943 z "},"ő":{"ha":836,"x_min":43,"x_max":794,"o":"m 283 736 l 489 988 l 301 1033 l 139 775 l 283 736 m 553 736 l 758 988 l 569 1033 l 407 775 l 553 736 m 43 319 q 92 143 43 218 q 226 27 140 68 q 418 -14 311 -14 q 611 27 526 -14 q 745 143 696 68 q 794 319 794 218 q 745 497 794 422 q 611 613 696 572 q 418 654 526 654 q 226 613 311 654 q 92 497 140 572 q 43 319 43 422 m 290 319 q 308 395 290 364 q 354 443 325 426 q 418 460 383 460 q 482 443 453 460 q 529 395 511 426 q 547 319 547 364 q 529 244 547 275 q 482 197 511 213 q 418 181 453 181 q 354 197 383 181 q 308 244 325 213 q 290 319 290 275 z "},"p":{"ha":876,"x_min":75,"x_max":833,"o":"m 315 -306 l 315 639 l 75 639 l 75 -306 l 315 -306 m 833 319 q 790 510 833 435 q 678 625 746 586 q 533 664 610 664 q 388 621 449 664 q 297 501 328 578 q 265 319 265 424 q 297 139 265 217 q 388 18 328 61 q 533 -25 449 -25 q 678 14 610 -25 q 790 129 746 53 q 833 319 833 206 m 581 319 q 563 247 581 278 q 514 201 544 217 q 446 186 483 186 q 384 201 414 186 q 335 244 354 215 q 315 319 315 274 q 335 394 315 365 q 384 438 354 424 q 446 453 414 453 q 514 438 483 453 q 563 392 544 422 q 581 319 581 363 z "},"q":{"ha":876,"x_min":43,"x_max":801,"o":"m 561 -306 l 801 -306 l 801 639 l 561 639 l 561 -306 m 43 319 q 87 129 43 206 q 199 14 131 53 q 343 -25 268 -25 q 489 18 429 -25 q 580 139 549 61 q 611 319 611 217 q 580 501 611 424 q 489 621 549 578 q 343 664 429 664 q 199 625 268 664 q 87 510 131 586 q 43 319 43 435 m 296 319 q 314 392 296 363 q 363 438 332 422 q 429 453 393 453 q 492 438 461 453 q 542 394 522 424 q 561 319 561 365 q 542 244 561 274 q 492 201 522 215 q 429 186 461 186 q 363 201 393 186 q 314 247 332 217 q 296 319 296 278 z "},"r":{"ha":600,"x_min":76,"x_max":593,"o":"m 311 639 l 76 639 l 76 0 l 311 0 l 311 639 m 493 393 l 593 600 q 546 640 578 624 q 479 656 514 656 q 373 620 424 656 q 292 525 322 585 q 261 389 261 465 l 311 293 q 324 369 311 339 q 361 415 338 400 q 413 431 385 431 q 459 420 440 431 q 493 393 478 410 z "},"ŕ":{"ha":600,"x_min":76,"x_max":593,"o":"m 311 639 l 76 639 l 76 0 l 311 0 l 311 639 m 493 393 l 593 600 q 546 640 578 624 q 479 656 514 656 q 373 620 424 656 q 292 525 322 585 q 261 389 261 465 l 311 293 q 324 369 311 339 q 361 415 338 400 q 413 431 385 431 q 459 420 440 431 q 493 393 478 410 m 571 947 l 394 1025 l 186 803 l 321 739 l 571 947 z "},"ŗ":{"ha":600,"x_min":13,"x_max":593,"o":"m 311 639 l 76 639 l 76 0 l 311 0 l 311 639 m 493 393 l 593 600 q 546 640 578 624 q 479 656 514 656 q 373 620 424 656 q 292 525 322 585 q 261 389 261 465 l 311 293 q 324 369 311 339 q 361 415 338 400 q 413 431 385 431 q 459 420 440 431 q 493 393 478 410 m 135 -83 l 13 -443 l 194 -476 l 374 -129 l 135 -83 z "},"ř":{"ha":600,"x_min":44,"x_max":624,"o":"m 311 639 l 76 639 l 76 0 l 311 0 l 311 639 m 493 393 l 593 600 q 546 640 578 624 q 479 656 514 656 q 373 620 424 656 q 292 525 322 585 q 261 389 261 465 l 311 293 q 324 369 311 339 q 361 415 338 400 q 413 431 385 431 q 459 420 440 431 q 493 393 478 410 m 335 929 l 215 1044 l 44 933 l 335 739 l 624 933 l 453 1044 l 335 929 z "},"ȓ":{"ha":600,"x_min":76,"x_max":593,"o":"m 311 639 l 76 639 l 76 0 l 311 0 l 311 639 m 493 393 l 593 600 q 546 640 578 624 q 479 656 514 656 q 373 620 424 656 q 292 525 322 585 q 261 389 261 465 l 311 293 q 324 369 311 339 q 361 415 338 400 q 413 431 385 431 q 459 420 440 431 q 493 393 478 410 m 104 739 q 131 844 104 799 q 210 917 158 890 q 335 944 263 944 q 460 917 408 944 q 538 844 511 890 q 565 739 565 799 l 417 739 q 404 782 417 765 q 374 806 392 799 q 335 814 356 814 q 295 806 314 814 q 265 782 276 799 q 253 739 253 765 l 104 739 z "},"s":{"ha":656,"x_min":25,"x_max":625,"o":"m 113 243 l 25 79 q 129 22 75 47 q 245 -17 183 -3 q 376 -31 307 -31 q 560 21 496 -31 q 625 181 625 72 q 599 276 625 240 q 533 335 574 313 q 443 376 492 358 q 358 407 392 396 q 308 430 325 418 q 292 461 292 442 q 303 485 292 475 q 342 494 315 494 q 438 470 383 494 q 538 407 493 446 l 608 567 q 521 610 565 592 q 427 641 476 629 q 321 653 378 653 q 192 631 247 653 q 104 569 136 610 q 72 468 72 528 q 98 366 72 406 q 165 303 124 326 q 253 265 207 281 q 337 235 308 247 q 376 210 365 222 q 386 182 386 199 q 374 151 386 163 q 335 140 361 140 q 288 147 318 140 q 214 176 257 154 q 113 243 171 199 z "},"ś":{"ha":656,"x_min":24,"x_max":625,"o":"m 113 249 l 24 85 q 126 24 72 50 q 242 -17 181 -3 q 375 -31 304 -31 q 560 19 494 -31 q 625 181 625 69 q 600 275 625 239 q 535 334 575 311 q 449 374 494 357 q 369 401 407 390 q 306 426 331 413 q 282 456 282 439 q 295 479 282 472 q 339 486 308 486 q 401 476 365 486 q 473 449 436 467 q 538 407 510 432 l 608 567 q 522 610 567 592 q 428 641 478 629 q 321 653 378 653 q 186 632 247 653 q 89 569 125 611 q 53 463 53 526 q 74 370 53 406 q 131 310 96 335 q 208 267 167 286 q 288 237 246 249 q 358 213 329 225 q 386 179 386 201 q 372 155 386 161 q 336 149 358 149 q 289 156 319 149 q 215 184 258 163 q 113 249 171 206 m 571 946 l 394 1024 l 186 801 l 321 738 l 571 946 z "},"ŝ":{"ha":656,"x_min":24,"x_max":633,"o":"m 113 249 l 24 85 q 126 24 72 50 q 242 -17 181 -3 q 375 -31 304 -31 q 560 19 494 -31 q 625 181 625 69 q 600 275 625 239 q 535 334 575 311 q 449 374 494 357 q 369 401 407 390 q 306 426 331 413 q 282 456 282 439 q 295 479 282 472 q 339 486 308 486 q 401 476 365 486 q 473 449 436 467 q 538 407 510 432 l 608 567 q 522 610 567 592 q 428 641 478 629 q 321 653 378 653 q 186 632 247 653 q 89 569 125 611 q 53 463 53 526 q 74 370 53 406 q 131 310 96 335 q 208 267 167 286 q 288 237 246 249 q 358 213 329 225 q 386 179 386 201 q 372 155 386 161 q 336 149 358 149 q 289 156 319 149 q 215 184 258 163 q 113 249 171 206 m 343 853 l 463 738 l 633 849 l 343 1043 l 54 849 l 225 738 l 343 853 z "},"ş":{"ha":656,"x_min":24,"x_max":625,"o":"m 111 249 l 24 85 q 130 24 75 50 q 246 -16 185 -1 q 376 -31 307 -31 q 560 19 494 -31 q 625 181 625 69 q 600 276 625 240 q 535 335 575 313 q 449 375 494 358 q 371 402 407 392 q 313 425 335 413 q 292 460 292 438 q 306 485 292 475 q 350 494 319 494 q 442 470 389 494 q 538 407 494 446 l 608 567 q 475 628 544 603 q 321 653 406 653 q 192 631 247 653 q 104 569 136 610 q 72 468 72 528 q 99 365 72 404 q 166 304 125 326 q 253 265 207 282 q 319 243 289 254 q 367 218 349 232 q 386 182 386 204 q 373 152 386 163 q 338 142 360 142 q 293 149 324 142 q 217 178 263 156 q 111 249 172 201 m 313 92 l 190 -190 q 267 -172 231 -175 q 314 -168 304 -168 q 374 -176 346 -168 q 403 -212 403 -183 q 382 -248 403 -237 q 325 -258 361 -258 q 271 -251 307 -258 q 207 -224 235 -243 l 139 -331 q 245 -373 193 -361 q 361 -385 297 -385 q 451 -367 407 -385 q 524 -315 494 -350 q 553 -228 553 -279 q 531 -146 553 -178 q 478 -98 510 -114 q 418 -82 447 -82 q 386 -83 401 -82 q 357 -89 371 -85 l 486 85 l 313 92 z "},"š":{"ha":656,"x_min":24,"x_max":625,"o":"m 113 249 l 24 85 q 126 24 72 50 q 242 -17 181 -3 q 375 -31 304 -31 q 560 19 494 -31 q 625 181 625 69 q 600 275 625 239 q 535 334 575 311 q 449 374 494 357 q 369 401 407 390 q 306 426 331 413 q 282 456 282 439 q 295 479 282 472 q 339 486 308 486 q 401 476 365 486 q 473 449 436 467 q 538 407 510 432 l 608 567 q 522 610 567 592 q 428 641 478 629 q 321 653 378 653 q 186 632 247 653 q 89 569 125 611 q 53 463 53 526 q 74 370 53 406 q 131 310 96 335 q 208 267 167 286 q 288 237 246 249 q 358 213 329 225 q 386 179 386 201 q 372 155 386 161 q 336 149 358 149 q 289 156 319 149 q 215 184 258 163 q 113 249 171 206 m 321 906 l 201 1021 l 32 910 l 321 715 l 611 910 l 440 1021 l 321 906 z "},"ș":{"ha":656,"x_min":24,"x_max":625,"o":"m 113 249 l 24 85 q 126 24 72 50 q 242 -17 181 -3 q 375 -31 304 -31 q 560 19 494 -31 q 625 181 625 69 q 600 275 625 239 q 535 334 575 311 q 449 374 494 357 q 369 401 407 390 q 306 426 331 413 q 282 456 282 439 q 295 479 282 472 q 339 486 308 486 q 401 476 365 486 q 473 449 436 467 q 538 407 510 432 l 608 567 q 522 610 567 592 q 428 641 478 629 q 321 653 378 653 q 186 632 247 653 q 89 569 125 611 q 53 463 53 526 q 74 370 53 406 q 131 310 96 335 q 208 267 167 286 q 288 237 246 249 q 358 213 329 225 q 386 179 386 201 q 372 155 386 161 q 336 149 358 149 q 289 156 319 149 q 215 184 258 163 q 113 249 171 206 m 271 -92 l 149 -451 l 331 -485 l 510 -137 l 271 -92 z "},"t":{"ha":474,"x_min":7,"x_max":467,"o":"m 7 639 l 7 444 l 467 444 l 467 639 l 7 639 m 122 861 l 122 0 l 351 0 l 351 861 l 122 861 z "},"ţ":{"ha":474,"x_min":-24,"x_max":467,"o":"m 151 17 l 29 -265 q 106 -247 69 -250 q 153 -244 143 -244 q 213 -251 185 -244 q 242 -287 242 -258 q 221 -323 242 -312 q 164 -333 200 -333 q 110 -326 146 -333 q 46 -299 74 -318 l -22 -406 q 84 -448 32 -436 q 200 -460 136 -460 q 290 -442 246 -460 q 363 -390 333 -425 q 392 -303 392 -354 q 370 -222 392 -254 q 317 -173 349 -189 q 257 -157 286 -157 q 225 -158 240 -157 q 196 -164 210 -160 l 325 10 l 151 17 m 7 639 l 7 444 l 467 444 l 467 639 l 7 639 m 122 861 l 122 0 l 351 0 l 351 861 l 122 861 z "},"ť":{"ha":728,"x_min":7,"x_max":803,"o":"m 7 639 l 7 444 l 467 444 l 467 639 l 7 639 m 122 861 l 122 0 l 351 0 l 351 861 l 122 861 m 564 1082 l 442 722 l 622 689 l 803 1036 l 564 1082 z "},"ț":{"ha":474,"x_min":7,"x_max":467,"o":"m 7 639 l 7 444 l 467 444 l 467 639 l 7 639 m 122 861 l 122 0 l 351 0 l 351 861 l 122 861 m 178 -83 l 56 -443 l 238 -476 l 418 -129 l 178 -83 z "},"u":{"ha":819,"x_min":76,"x_max":743,"o":"m 328 250 l 328 639 l 76 639 l 76 225 q 129 48 76 111 q 307 -15 182 -15 q 427 15 379 -15 q 503 94 475 44 l 503 0 l 743 0 l 743 639 l 503 639 l 503 250 q 491 192 503 215 q 458 157 479 168 q 407 146 438 146 q 344 173 361 146 q 328 250 328 200 z "},"ù":{"ha":819,"x_min":76,"x_max":743,"o":"m 503 0 l 743 0 l 743 639 l 503 639 l 503 0 m 328 250 l 328 639 l 76 639 l 76 225 q 129 47 76 110 q 307 -15 182 -15 q 442 22 390 -15 q 517 123 493 60 q 542 261 542 186 l 503 250 q 491 192 503 215 q 458 158 479 169 q 407 146 438 146 q 344 173 361 146 q 328 250 328 200 m 197 951 l 447 743 l 583 807 l 375 1029 l 197 951 z "},"ú":{"ha":819,"x_min":76,"x_max":743,"o":"m 503 0 l 743 0 l 743 639 l 503 639 l 503 0 m 328 250 l 328 639 l 76 639 l 76 225 q 129 47 76 110 q 307 -15 182 -15 q 442 22 390 -15 q 517 123 493 60 q 542 261 542 186 l 503 250 q 491 192 503 215 q 458 158 479 169 q 407 146 438 146 q 344 173 361 146 q 328 250 328 200 m 621 951 l 443 1029 l 235 807 l 371 743 l 621 951 z "},"û":{"ha":819,"x_min":76,"x_max":743,"o":"m 503 0 l 743 0 l 743 639 l 503 639 l 503 0 m 328 250 l 328 639 l 76 639 l 76 225 q 129 47 76 110 q 307 -15 182 -15 q 442 22 390 -15 q 517 123 493 60 q 542 261 542 186 l 503 250 q 491 192 503 215 q 458 158 479 169 q 407 146 438 146 q 344 173 361 146 q 328 250 328 200 m 408 858 l 528 743 l 699 854 l 408 1049 l 119 854 l 289 743 l 408 858 z "},"ü":{"ha":819,"x_min":76,"x_max":743,"o":"m 503 0 l 743 0 l 743 639 l 503 639 l 503 0 m 328 250 l 328 639 l 76 639 l 76 225 q 129 47 76 110 q 307 -15 182 -15 q 442 22 390 -15 q 517 123 493 60 q 542 261 542 186 l 503 250 q 491 192 503 215 q 458 158 479 169 q 407 146 438 146 q 344 173 361 146 q 328 250 328 200 m 453 867 q 492 778 453 813 q 588 743 532 743 q 684 778 644 743 q 724 867 724 813 q 684 957 724 922 q 588 992 644 992 q 492 957 532 992 q 453 867 453 922 m 96 867 q 135 778 96 813 q 232 743 175 743 q 328 778 289 743 q 368 867 368 813 q 328 957 368 922 q 232 992 289 992 q 135 957 175 992 q 96 867 96 922 z "},"ũ":{"ha":819,"x_min":76,"x_max":743,"o":"m 503 0 l 743 0 l 743 639 l 503 639 l 503 0 m 328 250 l 328 639 l 76 639 l 76 225 q 129 47 76 110 q 307 -15 182 -15 q 441 22 390 -15 q 515 123 492 60 q 539 261 539 186 l 503 250 q 491 192 503 215 q 458 158 479 169 q 407 146 438 146 q 344 173 361 146 q 328 250 328 200 m 125 840 l 232 744 q 237 772 232 756 q 256 802 242 789 q 296 815 271 815 q 363 796 332 815 q 427 758 394 776 q 497 739 460 739 q 584 759 543 739 q 655 808 625 779 q 696 863 685 838 l 586 978 q 543 924 565 944 q 492 903 521 903 q 441 914 463 903 q 400 940 419 925 q 356 965 381 954 q 297 976 332 976 q 213 956 250 976 q 154 906 176 936 q 125 840 132 875 z "},"ū":{"ha":819,"x_min":76,"x_max":743,"o":"m 503 0 l 743 0 l 743 639 l 503 639 l 503 0 m 328 250 l 328 639 l 76 639 l 76 225 q 129 47 76 110 q 307 -15 182 -15 q 441 22 390 -15 q 515 123 492 60 q 539 261 539 186 l 503 250 q 491 192 503 215 q 458 158 479 169 q 407 146 438 146 q 344 173 361 146 q 328 250 328 200 m 147 738 l 672 738 l 672 942 l 147 942 l 147 738 z "},"ŭ":{"ha":819,"x_min":76,"x_max":743,"o":"m 503 0 l 743 0 l 743 639 l 503 639 l 503 0 m 328 250 l 328 639 l 76 639 l 76 225 q 129 47 76 110 q 307 -15 182 -15 q 441 22 390 -15 q 515 123 492 60 q 539 261 539 186 l 503 250 q 491 192 503 215 q 458 158 479 169 q 407 146 438 146 q 344 173 361 146 q 328 250 328 200 m 179 943 q 206 838 179 885 q 285 764 233 790 q 410 738 338 738 q 535 764 483 738 q 613 838 586 790 q 640 943 640 885 l 492 943 q 480 900 492 917 q 449 875 468 883 q 410 867 431 867 q 371 875 389 867 q 341 900 353 883 q 329 943 329 917 l 179 943 z "},"ů":{"ha":819,"x_min":76,"x_max":743,"o":"m 503 0 l 743 0 l 743 639 l 503 639 l 503 0 m 328 250 l 328 639 l 76 639 l 76 225 q 129 47 76 110 q 307 -15 182 -15 q 441 22 390 -15 q 515 123 492 60 q 539 261 539 186 l 503 250 q 491 192 503 215 q 458 158 479 169 q 407 146 438 146 q 344 173 361 146 q 328 250 328 200 m 226 904 q 279 784 226 831 q 408 738 332 738 q 540 784 486 738 q 593 904 593 831 q 540 1025 593 979 q 408 1071 486 1071 q 279 1025 332 1071 q 226 904 226 979 m 347 904 q 365 952 347 935 q 408 969 382 969 q 453 952 435 969 q 472 904 472 935 q 453 857 472 874 q 408 840 435 840 q 365 857 382 840 q 347 904 347 874 z "},"ű":{"ha":819,"x_min":76,"x_max":750,"o":"m 275 736 l 481 988 l 293 1033 l 131 775 l 275 736 m 544 736 l 750 988 l 561 1033 l 399 775 l 544 736 m 328 250 l 328 639 l 76 639 l 76 225 q 129 48 76 111 q 307 -15 182 -15 q 427 15 379 -15 q 503 94 475 44 l 503 0 l 743 0 l 743 639 l 503 639 l 503 250 q 491 192 503 215 q 458 157 479 168 q 407 146 438 146 q 344 173 361 146 q 328 250 328 200 z "},"ų":{"ha":819,"x_min":76,"x_max":778,"o":"m 732 -147 q 700 -168 718 -161 q 663 -175 682 -175 q 629 -162 640 -175 q 618 -128 618 -150 q 630 -85 618 -107 q 665 -42 642 -64 q 725 0 689 -21 l 668 35 q 575 -19 619 10 q 502 -84 531 -49 q 474 -167 474 -119 q 497 -244 474 -212 q 556 -290 519 -275 q 633 -306 592 -306 q 728 -288 694 -306 q 778 -250 763 -271 l 732 -147 m 328 250 l 328 639 l 76 639 l 76 225 q 129 48 76 111 q 307 -15 182 -15 q 427 15 379 -15 q 503 94 475 44 l 503 0 l 743 0 l 743 639 l 503 639 l 503 250 q 491 192 503 215 q 458 157 479 168 q 407 146 438 146 q 344 173 361 146 q 328 250 328 200 z "},"v":{"ha":768,"x_min":-6,"x_max":774,"o":"m -6 639 l 383 -82 l 774 639 l 519 639 l 383 313 l 249 639 l -6 639 z "},"w":{"ha":1090,"x_min":-15,"x_max":1106,"o":"m -15 639 l 329 -37 l 544 317 l 761 -37 l 1106 639 l 857 639 l 732 338 l 543 688 l 358 338 l 233 639 l -15 639 z "},"ŵ":{"ha":1090,"x_min":-15,"x_max":1106,"o":"m -15 639 l 329 -37 l 544 317 l 761 -37 l 1106 639 l 857 639 l 732 338 l 543 688 l 358 338 l 233 639 l -15 639 m 543 886 l 663 771 l 833 882 l 543 1076 l 254 882 l 425 771 l 543 886 z "},"ẁ":{"ha":1090,"x_min":-15,"x_max":1106,"o":"m 543 771 l 678 835 l 469 1057 l 293 979 l 543 771 m -15 639 l 329 -37 l 544 317 l 761 -37 l 1106 639 l 857 639 l 732 338 l 543 688 l 358 338 l 233 639 l -15 639 z "},"ẃ":{"ha":1090,"x_min":-15,"x_max":1106,"o":"m 543 771 l 793 979 l 617 1057 l 408 835 l 543 771 m -15 639 l 329 -37 l 544 317 l 761 -37 l 1106 639 l 857 639 l 732 338 l 543 688 l 358 338 l 233 639 l -15 639 z "},"ẅ":{"ha":1090,"x_min":-15,"x_max":1106,"o":"m 586 896 q 626 806 586 840 q 722 771 665 771 q 819 806 779 771 q 858 896 858 840 q 819 985 858 951 q 722 1019 779 1019 q 626 985 665 1019 q 586 896 586 951 m 231 896 q 270 806 231 840 q 365 771 310 771 q 462 806 422 771 q 501 896 501 840 q 462 985 501 951 q 365 1019 422 1019 q 270 985 310 1019 q 231 896 231 951 m -15 639 l 329 -37 l 544 317 l 761 -37 l 1106 639 l 857 639 l 732 338 l 543 688 l 358 338 l 233 639 l -15 639 z "},"ẇ":{"ha":1090,"x_min":-15,"x_max":1106,"o":"m 407 896 q 447 806 407 840 q 543 771 486 771 q 640 806 600 771 q 679 896 679 840 q 640 986 679 951 q 543 1021 600 1021 q 447 986 486 1021 q 407 896 407 951 m -15 639 l 329 -37 l 544 317 l 761 -37 l 1106 639 l 857 639 l 732 338 l 543 688 l 358 338 l 233 639 l -15 639 z "},"ẉ":{"ha":1090,"x_min":-15,"x_max":1106,"o":"m 408 -244 q 448 -335 408 -300 q 544 -369 488 -369 q 641 -335 601 -369 q 681 -244 681 -300 q 641 -154 681 -189 q 544 -119 601 -119 q 448 -154 488 -119 q 408 -244 408 -189 m -15 639 l 329 -37 l 544 317 l 761 -37 l 1106 639 l 857 639 l 732 338 l 543 688 l 358 338 l 233 639 l -15 639 z "},"x":{"ha":785,"x_min":0,"x_max":785,"o":"m 506 639 l 397 488 l 290 639 l 14 639 l 271 328 l 0 0 l 276 0 l 397 169 l 519 0 l 785 0 l 518 328 l 771 639 l 506 639 z "},"y":{"ha":757,"x_min":-17,"x_max":774,"o":"m 774 639 l 531 639 l 325 124 l 451 122 l 244 639 l -17 639 l 269 40 l 119 -306 l 357 -306 l 774 639 z "},"ý":{"ha":757,"x_min":-17,"x_max":774,"o":"m 774 639 l 531 639 l 325 124 l 451 122 l 244 639 l -17 639 l 269 40 l 119 -306 l 357 -306 l 774 639 m 615 951 l 438 1029 l 229 807 l 365 743 l 615 951 z "},"ÿ":{"ha":757,"x_min":-17,"x_max":774,"o":"m 774 639 l 531 639 l 325 124 l 451 122 l 244 639 l -17 639 l 269 40 l 119 -306 l 357 -306 l 774 639 m 421 863 q 460 772 421 807 q 557 738 500 738 q 652 772 613 738 q 692 863 692 807 q 652 951 692 917 q 557 986 613 986 q 460 951 500 986 q 421 863 421 917 m 64 863 q 104 772 64 807 q 200 738 144 738 q 297 772 257 738 q 336 863 336 807 q 297 951 336 917 q 200 986 257 986 q 104 951 144 986 q 64 863 64 917 z "},"ŷ":{"ha":757,"x_min":-17,"x_max":774,"o":"m 774 639 l 531 639 l 325 124 l 451 122 l 244 639 l -17 639 l 269 40 l 119 -306 l 357 -306 l 774 639 m 378 853 l 497 738 l 668 849 l 378 1043 l 89 849 l 260 738 l 378 853 z "},"ỳ":{"ha":757,"x_min":-17,"x_max":774,"o":"m 378 738 l 513 801 l 304 1024 l 128 946 l 378 738 m 774 639 l 531 639 l 325 124 l 451 122 l 244 639 l -17 639 l 269 40 l 119 -306 l 357 -306 l 774 639 z "},"z":{"ha":751,"x_min":21,"x_max":731,"o":"m 339 422 l 21 0 l 681 0 l 681 217 l 435 217 l 731 639 l 85 639 l 85 422 l 339 422 z "},"ź":{"ha":751,"x_min":21,"x_max":731,"o":"m 339 422 l 21 0 l 681 0 l 681 217 l 435 217 l 731 639 l 85 639 l 85 422 l 339 422 m 653 951 l 475 1029 l 267 807 l 403 743 l 653 951 z "},"ż":{"ha":751,"x_min":21,"x_max":731,"o":"m 339 422 l 21 0 l 681 0 l 681 217 l 435 217 l 731 639 l 85 639 l 85 422 l 339 422 m 272 869 q 312 781 272 815 q 407 746 351 746 q 503 781 464 746 q 543 869 543 815 q 503 960 543 925 q 407 994 464 994 q 312 960 351 994 q 272 869 272 925 z "},"ž":{"ha":740,"x_min":21,"x_max":731,"o":"m 407 928 l 289 1042 l 118 931 l 407 736 l 697 931 l 526 1042 l 407 928 m 340 422 l 21 0 l 681 0 l 681 217 l 432 217 l 731 639 l 85 639 l 85 422 l 340 422 z "},"ß":{"ha":853,"x_min":53,"x_max":865,"o":"m 531 -17 q 653 6 593 -17 q 762 67 714 28 q 838 160 810 107 q 865 274 865 213 q 851 358 865 324 q 813 415 836 392 q 765 456 790 439 q 716 488 739 474 q 678 519 693 503 q 664 556 664 535 q 676 597 664 578 q 704 638 688 617 q 738 686 721 660 q 765 749 754 713 q 776 836 776 785 q 728 983 776 922 q 598 1076 679 1044 q 418 1108 517 1108 q 220 1067 301 1108 q 96 944 139 1025 q 53 744 53 864 l 54 -3 l 294 -3 l 292 750 q 306 832 292 800 q 347 879 319 864 q 414 894 375 894 q 474 883 449 894 q 514 847 500 871 q 528 786 528 824 q 516 724 528 751 q 488 672 504 696 q 454 626 471 649 q 426 581 438 604 q 414 531 414 558 q 428 478 414 500 q 466 438 443 456 q 515 406 489 421 q 565 372 542 390 q 602 331 588 354 q 617 275 617 308 q 603 222 617 246 q 564 185 589 199 q 506 172 539 172 q 461 177 485 172 q 415 191 438 182 q 372 211 392 200 l 338 28 q 393 5 361 15 q 460 -11 425 -6 q 531 -17 496 -17 z "},"æ":{"ha":1274,"x_min":31,"x_max":1232,"o":"m 306 -14 q 501 26 424 -14 q 603 139 578 67 l 586 140 q 692 24 621 63 q 878 -14 764 -14 q 1092 34 1006 -14 q 1232 182 1178 82 l 1015 225 q 957 171 997 190 q 868 151 917 151 q 800 167 828 151 q 757 214 772 182 q 739 294 742 246 l 711 269 l 1224 269 q 1226 294 1225 276 q 1226 331 1226 313 q 1189 506 1226 433 q 1080 615 1151 578 q 906 653 1008 653 q 780 635 838 653 q 678 585 722 618 q 603 501 633 551 l 621 501 q 556 620 611 582 q 394 658 500 658 q 249 640 324 658 q 89 586 175 622 l 165 428 q 228 455 192 443 q 303 474 265 467 q 372 481 342 481 q 452 456 425 481 q 479 385 479 432 l 479 308 l 589 308 q 432 368 494 351 q 308 385 369 385 q 163 359 225 385 q 65 288 100 333 q 31 179 31 242 q 103 37 31 88 q 306 -14 175 -14 m 350 135 q 291 149 310 135 q 272 192 272 164 q 297 245 272 228 q 369 263 321 263 q 445 252 408 263 q 514 222 482 242 l 478 260 l 485 193 l 483 256 q 447 166 481 197 q 350 135 413 135 m 738 326 q 752 422 738 383 q 794 480 767 460 q 863 500 822 500 q 922 485 899 500 q 959 441 946 469 q 972 369 972 413 q 972 360 972 364 q 969 347 972 357 l 1001 393 l 711 393 l 738 326 z "},"ð":{"ha":890,"x_min":69,"x_max":822,"o":"m 440 -25 q 637 24 550 -25 q 773 157 724 72 q 822 347 822 242 q 803 477 822 410 q 747 615 785 544 q 653 761 710 686 q 524 914 597 836 q 361 1071 451 992 l 179 958 q 318 850 253 907 q 440 731 383 793 q 544 602 496 669 q 631 463 592 535 l 689 460 q 364 664 557 664 q 210 624 276 664 q 106 514 143 585 q 69 347 69 443 q 117 154 69 239 q 248 22 164 69 q 440 -25 332 -25 m 444 181 q 378 199 407 181 q 333 248 349 217 q 317 319 317 279 q 333 392 317 360 q 379 442 350 424 q 444 460 408 460 q 512 442 483 460 q 557 392 540 424 q 574 319 574 360 q 558 248 574 279 q 513 199 542 217 q 444 181 483 181 m 206 706 l 718 863 l 696 943 l 183 785 l 206 706 z "},"ø":{"ha":758,"x_min":43,"x_max":794,"o":"m 43 319 q 93 138 43 213 q 228 25 143 64 q 418 -14 313 -14 q 609 25 524 -14 q 744 138 694 64 q 794 319 794 213 q 744 501 794 428 q 609 614 694 575 q 418 653 524 653 q 228 614 313 653 q 93 501 143 575 q 43 319 43 428 m 268 319 q 289 398 268 364 q 344 451 310 432 q 418 471 378 471 q 492 451 458 471 q 548 398 526 432 q 569 319 569 364 q 548 236 569 269 q 492 185 526 203 q 418 168 458 168 q 344 185 378 168 q 289 236 310 203 q 268 319 268 269 m 639 706 l 97 -22 l 182 -72 l 724 656 l 639 706 z "},"þ":{"ha":876,"x_min":75,"x_max":833,"o":"m 315 -306 l 315 1083 l 75 1083 l 75 -306 l 315 -306 m 833 319 q 790 503 833 429 q 678 615 746 576 q 533 653 610 653 q 391 613 454 653 q 291 498 328 572 q 254 319 254 424 q 291 142 254 217 q 391 26 328 67 q 533 -14 454 -14 q 678 24 610 -14 q 790 137 746 63 q 833 319 833 211 m 581 319 q 563 244 581 278 q 514 193 544 211 q 446 175 483 175 q 384 192 414 175 q 335 242 354 210 q 315 319 315 274 q 335 397 315 365 q 384 447 354 429 q 446 464 414 464 q 514 446 483 464 q 563 395 544 428 q 581 319 581 363 z "},"đ":{"ha":876,"x_min":43,"x_max":928,"o":"m 410 775 l 928 775 l 928 924 l 410 924 l 410 775 m 561 1083 l 561 0 l 801 0 l 801 1083 l 561 1083 m 43 319 q 87 137 43 211 q 199 24 131 63 q 343 -14 268 -14 q 486 26 424 -14 q 585 142 549 67 q 622 319 622 217 q 585 498 622 424 q 486 613 549 572 q 343 653 424 653 q 199 615 268 653 q 87 503 131 576 q 43 319 43 429 m 296 319 q 314 395 296 363 q 363 446 332 428 q 429 464 393 464 q 476 455 453 464 q 519 426 500 446 q 550 381 539 407 q 561 319 561 354 q 550 258 561 285 q 519 213 539 232 q 476 184 500 193 q 429 175 453 175 q 363 193 393 175 q 314 244 332 211 q 296 319 296 278 z "},"ħ":{"ha":807,"x_min":7,"x_max":732,"o":"m 317 1083 l 76 1083 l 76 0 l 317 0 l 317 1083 m 492 389 l 492 0 l 732 0 l 732 425 q 711 556 732 503 q 643 638 690 610 q 513 665 596 665 q 378 628 429 665 q 304 528 328 590 q 281 389 281 465 l 317 389 q 328 447 317 424 q 362 481 340 469 q 411 493 383 493 q 475 466 458 493 q 492 389 492 439 m 7 818 l 475 818 l 475 1022 l 7 1022 l 7 818 z "},"ı":{"ha":390,"x_min":79,"x_max":310,"o":"m 79 639 l 79 0 l 310 0 l 310 639 l 79 639 z "},"ĳ":{"ha":771,"x_min":60,"x_max":711,"o":"m 440 871 q 480 782 440 817 q 576 747 519 747 q 672 782 632 747 q 711 871 711 817 q 672 961 711 926 q 576 996 632 996 q 480 961 519 996 q 440 871 440 926 m 331 -92 l 239 -264 q 281 -296 256 -278 q 343 -326 306 -314 q 432 -339 381 -339 q 576 -310 518 -339 q 662 -228 633 -281 q 690 -106 690 -175 l 690 639 l 461 639 l 461 -42 q 453 -90 461 -71 q 431 -118 446 -108 q 394 -128 415 -128 q 360 -119 375 -128 q 331 -92 344 -110 m 60 871 q 99 782 60 817 q 194 747 139 747 q 291 782 251 747 q 331 871 331 817 q 291 961 331 926 q 194 996 251 996 q 99 961 139 996 q 60 871 60 926 m 79 639 l 79 0 l 310 0 l 310 639 l 79 639 z "},"ĸ":{"ha":858,"x_min":75,"x_max":846,"o":"m 75 639 l 75 0 l 304 0 l 304 639 l 75 639 m 535 639 l 263 375 l 568 0 l 846 0 l 547 375 l 818 639 l 535 639 z "},"ŀ":{"ha":706,"x_min":76,"x_max":660,"o":"m 76 1083 l 76 0 l 317 0 l 317 1083 l 76 1083 m 365 565 q 407 465 365 507 q 513 422 449 422 q 619 465 578 422 q 660 565 660 507 q 619 666 660 624 q 513 708 578 708 q 407 666 449 708 q 365 565 365 624 z "},"ł":{"ha":392,"x_min":-76,"x_max":478,"o":"m -15 417 l 478 747 l 417 858 l -76 526 l -15 417 m 76 1083 l 76 0 l 317 0 l 317 1083 l 76 1083 z "},"ŉ":{"ha":1083,"x_min":75,"x_max":1007,"o":"m 581 639 l 342 639 l 342 0 l 581 0 l 581 639 m 757 389 l 757 0 l 1007 0 l 1007 414 q 954 592 1007 529 q 776 654 901 654 q 642 617 694 654 q 566 517 590 579 q 542 378 542 454 l 581 389 q 592 447 581 424 q 626 481 604 469 q 676 493 647 493 q 740 466 724 493 q 757 389 757 439 m 147 972 l 75 608 l 246 608 l 390 972 l 147 972 z "},"ŋ":{"ha":819,"x_min":76,"x_max":743,"o":"m 463 -339 q 669 -278 596 -339 q 743 -106 743 -217 l 743 414 q 686 595 743 536 q 513 654 629 654 q 396 626 446 654 q 317 546 346 599 l 317 639 l 76 639 l 76 0 l 317 0 l 317 383 q 328 444 317 419 q 360 481 339 469 q 411 493 381 493 q 473 469 454 493 q 492 389 492 444 l 492 -42 q 474 -106 492 -83 q 425 -128 457 -128 q 361 -92 390 -128 l 269 -264 q 363 -321 317 -303 q 463 -339 408 -339 z "},"œ":{"ha":1250,"x_min":49,"x_max":1207,"o":"m 949 347 l 949 319 l 1197 269 q 1200 297 1199 278 q 1201 325 1201 317 q 1161 499 1201 426 q 1056 613 1121 572 q 914 653 990 653 q 766 619 832 653 q 658 526 700 586 q 603 388 617 467 q 599 354 600 371 q 597 319 597 338 q 634 148 597 224 q 737 29 671 72 q 889 -14 803 -14 q 1021 13 958 -14 q 1132 83 1083 39 q 1207 182 1181 128 l 993 226 q 934 169 967 192 q 849 146 901 146 q 779 166 808 146 q 734 224 750 186 q 718 319 718 263 l 721 361 q 738 440 721 410 q 783 485 756 471 q 844 500 811 500 q 901 482 878 500 q 937 430 925 464 q 949 347 949 396 m 668 269 l 1197 269 l 1172 392 l 668 392 l 668 269 m 49 319 q 92 142 49 217 q 207 26 135 67 q 365 -14 279 -14 q 516 26 453 -14 q 613 142 579 67 q 647 319 647 217 q 613 498 647 424 q 516 613 579 572 q 365 653 453 653 q 207 613 279 653 q 92 498 135 572 q 49 319 49 424 m 285 319 q 301 397 285 365 q 347 443 318 428 q 413 458 376 458 q 478 443 450 458 q 521 397 506 428 q 536 319 536 365 q 521 242 536 274 q 478 196 506 211 q 413 181 450 181 q 347 196 376 181 q 301 242 318 211 q 285 319 285 274 z "},"ŧ":{"ha":333,"x_min":7,"x_max":467,"o":"m 28 235 l 328 235 l 328 439 l 28 439 l 28 235 m 7 639 l 7 444 l 467 444 l 467 639 l 7 639 m 122 861 l 122 0 l 351 0 l 351 861 l 122 861 z "},"ȷ":{"ha":386,"x_min":-144,"x_max":307,"o":"m -53 -92 l -144 -264 q -103 -296 -128 -278 q -40 -326 -78 -314 q 49 -339 -3 -339 q 192 -310 135 -339 q 278 -228 250 -281 q 307 -106 307 -175 l 307 639 l 78 639 l 78 -42 q 70 -90 78 -71 q 47 -118 63 -108 q 11 -128 32 -128 q -24 -119 -8 -128 q -53 -92 -39 -110 z "},"μ":{"ha":810,"x_min":76,"x_max":743,"o":"m 328 639 l 76 639 l 76 -444 l 306 -444 l 306 25 q 351 2 332 7 q 392 -3 371 -3 q 457 18 429 -3 q 503 69 485 39 l 503 0 l 743 0 l 743 639 l 503 639 l 503 294 q 491 237 503 260 q 458 202 479 214 q 407 190 438 190 q 344 217 361 190 q 328 294 328 244 l 328 639 z "},"π":{"ha":863,"x_min":42,"x_max":807,"o":"m 125 597 l 125 0 l 349 0 l 349 597 l 125 597 m 42 639 l 42 444 l 807 444 l 807 639 l 42 639 m 472 597 l 472 168 q 506 44 472 82 q 605 -3 539 6 q 769 -12 671 -12 l 769 165 q 732 171 749 165 q 706 197 715 176 q 696 263 696 217 l 696 597 l 472 597 z "},"а":{"ha":781,"x_min":31,"x_max":708,"o":"m 272 192 q 284 228 272 213 q 318 253 296 244 q 369 263 340 263 q 457 250 422 263 q 525 213 492 238 l 525 321 q 476 352 510 338 q 397 376 442 367 q 308 385 353 385 q 163 360 225 385 q 65 289 100 335 q 31 181 31 243 q 60 76 31 119 q 144 9 90 32 q 267 -14 197 -14 q 386 9 333 -14 q 470 76 439 32 q 501 181 501 119 l 479 261 q 461 185 479 213 q 413 147 443 158 q 350 135 383 135 q 311 141 329 135 q 283 160 293 147 q 272 192 272 172 m 165 428 q 213 449 181 438 q 285 471 244 461 q 372 481 326 481 q 452 456 425 481 q 479 393 479 432 l 479 0 l 708 0 l 708 447 q 667 563 708 515 q 556 634 626 610 q 394 658 485 658 q 229 635 308 658 q 89 586 150 613 l 165 428 z "},"б":{"ha":871,"x_min":49,"x_max":822,"o":"m 447 460 q 511 443 482 460 q 558 395 540 426 q 575 319 575 364 q 557 244 575 275 q 510 197 539 213 q 446 181 481 181 q 383 197 413 181 q 335 244 353 213 q 317 319 317 275 l 49 403 q 99 172 49 265 q 240 33 150 79 q 446 -14 331 -14 q 647 29 564 -14 q 776 148 731 72 q 822 319 822 224 q 778 492 822 417 q 654 610 733 567 q 469 653 575 653 l 447 460 m 211 319 l 317 319 q 327 380 317 354 q 356 424 338 406 q 397 451 374 442 q 447 460 421 460 l 469 653 q 362 630 410 653 q 280 564 314 607 q 228 459 246 521 q 211 319 211 397 m 49 403 l 303 318 l 258 472 q 277 601 258 542 q 344 707 296 660 q 476 788 392 754 q 613 863 553 818 q 711 965 674 908 q 756 1083 749 1022 l 526 1083 q 465 999 517 1033 q 318 922 413 964 q 152 804 211 876 q 71 633 93 732 q 49 403 49 533 z "},"в":{"ha":758,"x_min":104,"x_max":717,"o":"m 242 333 l 242 253 l 426 253 q 458 248 446 253 q 478 235 471 243 q 490 219 486 228 q 493 199 493 210 q 479 160 493 178 q 426 142 465 142 l 242 142 l 242 0 l 511 0 q 669 51 621 0 q 717 174 717 101 q 686 271 717 236 q 603 319 656 306 q 483 333 550 333 l 242 333 m 242 306 l 469 306 q 578 323 529 306 q 658 376 628 340 q 689 465 689 411 q 658 566 689 528 q 578 622 628 604 q 469 639 529 639 l 242 639 l 242 497 l 413 497 q 452 481 439 497 q 465 444 465 465 q 462 426 465 435 q 451 409 458 417 q 435 397 444 401 q 413 393 426 393 l 242 393 l 242 306 m 104 639 l 104 0 l 333 0 l 333 639 l 104 639 z "},"г":{"ha":508,"x_min":78,"x_max":507,"o":"m 78 639 l 78 0 l 313 0 l 313 444 l 507 444 l 507 639 l 78 639 z "},"ѓ":{"ha":508,"x_min":78,"x_max":543,"o":"m 78 639 l 78 0 l 313 0 l 313 444 l 507 444 l 507 639 l 78 639 m 543 946 l 367 1024 l 158 801 l 293 738 l 543 946 z "},"д":{"ha":1000,"x_min":56,"x_max":938,"o":"m 496 369 l 639 42 l 865 97 l 496 688 l 128 97 l 354 42 l 496 369 m 714 0 l 714 -125 l 938 -125 l 938 182 l 56 182 l 56 -125 l 286 -125 l 286 0 l 714 0 z "},"е":{"ha":824,"x_min":43,"x_max":779,"o":"m 175 269 l 771 269 q 774 306 774 289 q 774 331 774 322 q 733 503 774 432 q 613 614 693 575 q 415 653 533 653 q 228 619 306 653 q 107 526 151 586 q 49 388 63 467 q 44 354 46 371 q 43 319 43 338 q 86 148 43 224 q 214 29 129 72 q 424 -14 299 -14 q 586 10 519 -14 q 700 78 653 35 q 779 182 747 122 l 563 225 q 528 185 549 201 q 479 160 507 169 q 415 151 451 151 q 351 167 381 151 q 303 220 321 183 q 285 319 285 257 l 288 350 q 302 432 288 399 q 344 483 317 465 q 410 500 371 500 q 465 488 443 500 q 500 451 488 475 q 517 393 513 428 l 175 393 l 175 269 z "},"ѐ":{"ha":824,"x_min":43,"x_max":779,"o":"m 175 269 l 771 269 q 774 306 774 289 q 774 331 774 322 q 733 503 774 432 q 613 614 693 575 q 415 653 533 653 q 228 619 306 653 q 107 526 151 586 q 49 388 63 467 q 44 354 46 371 q 43 319 43 338 q 86 148 43 224 q 214 29 129 72 q 424 -14 299 -14 q 586 10 519 -14 q 700 78 653 35 q 779 182 747 122 l 563 225 q 528 185 549 201 q 479 160 507 169 q 415 151 451 151 q 351 167 381 151 q 303 220 321 183 q 285 319 285 257 l 288 350 q 302 432 288 399 q 344 483 317 465 q 410 500 371 500 q 465 488 443 500 q 500 451 488 475 q 517 393 513 428 l 175 393 l 175 269 m 174 946 l 424 738 l 560 801 l 351 1024 l 174 946 z "},"ё":{"ha":824,"x_min":43,"x_max":779,"o":"m 175 269 l 771 269 q 774 306 774 289 q 774 331 774 322 q 733 503 774 432 q 613 614 693 575 q 415 653 533 653 q 228 619 306 653 q 107 526 151 586 q 49 388 63 467 q 44 354 46 371 q 43 319 43 338 q 86 148 43 224 q 214 29 129 72 q 424 -14 299 -14 q 586 10 519 -14 q 700 78 653 35 q 779 182 747 122 l 563 225 q 528 185 549 201 q 479 160 507 169 q 415 151 451 151 q 351 167 381 151 q 303 220 321 183 q 285 319 285 257 l 288 350 q 302 432 288 399 q 344 483 317 465 q 410 500 371 500 q 465 488 443 500 q 500 451 488 475 q 517 393 513 428 l 175 393 l 175 269 m 458 863 q 498 772 458 807 q 594 738 538 738 q 690 772 650 738 q 729 863 729 807 q 690 951 729 917 q 594 986 650 986 q 498 951 538 986 q 458 863 458 917 m 101 863 q 142 772 101 807 q 238 738 182 738 q 334 772 294 738 q 374 863 374 807 q 334 951 374 917 q 238 986 294 986 q 142 951 182 986 q 101 863 101 917 z "},"ж":{"ha":1307,"x_min":0,"x_max":1307,"o":"m 1006 639 l 728 375 l 1033 0 l 1307 0 l 1010 372 l 1279 639 l 1006 639 m 768 639 l 540 639 l 540 0 l 768 0 l 768 639 m 301 639 l 28 639 l 297 372 l 0 0 l 274 0 l 579 375 l 301 639 z "},"з":{"ha":772,"x_min":83,"x_max":710,"o":"m 392 319 q 613 353 543 311 q 682 467 682 396 q 645 562 682 519 q 547 628 608 604 q 404 653 485 653 q 255 624 318 653 q 157 544 192 596 q 122 419 122 492 l 336 419 q 347 456 338 442 q 372 478 356 471 q 406 486 388 486 q 449 472 432 486 q 465 435 465 457 q 448 396 465 411 q 392 381 431 381 l 392 319 m 401 -14 q 561 11 492 -14 q 670 81 631 36 q 710 186 710 126 q 628 320 710 271 q 392 361 546 369 l 392 278 q 445 271 424 278 q 477 249 467 264 q 488 214 488 235 q 476 179 488 193 q 445 158 465 165 q 400 150 425 150 q 344 167 369 150 q 308 224 319 185 l 83 224 q 176 50 94 114 q 401 -14 257 -14 z "},"и":{"ha":842,"x_min":78,"x_max":764,"o":"m 757 438 l 764 688 l 85 201 l 78 -49 l 757 438 m 307 639 l 78 639 l 78 -49 l 307 160 l 307 639 m 764 688 l 535 479 l 535 0 l 764 0 l 764 688 z "},"й":{"ha":842,"x_min":78,"x_max":764,"o":"m 757 438 l 764 688 l 85 201 l 78 -49 l 757 438 m 307 639 l 78 639 l 78 -49 l 307 160 l 307 639 m 764 688 l 535 479 l 535 0 l 764 0 l 764 688 m 201 965 q 228 860 201 907 q 308 787 256 814 q 432 760 360 760 q 557 787 506 760 q 635 860 608 814 q 663 965 663 907 l 514 965 q 502 922 514 939 q 472 897 490 906 q 432 889 453 889 q 393 897 411 889 q 363 922 375 906 q 351 965 351 939 l 201 965 z "},"ѝ":{"ha":842,"x_min":78,"x_max":764,"o":"m 757 438 l 764 688 l 85 201 l 78 -49 l 757 438 m 307 639 l 78 639 l 78 -49 l 307 160 l 307 639 m 764 688 l 535 479 l 535 0 l 764 0 l 764 688 m 188 979 l 438 771 l 574 835 l 365 1057 l 188 979 z "},"к":{"ha":858,"x_min":75,"x_max":846,"o":"m 75 639 l 75 0 l 304 0 l 304 639 l 75 639 m 535 639 l 263 375 l 568 0 l 846 0 l 547 375 l 818 639 l 535 639 z "},"ќ":{"ha":611,"x_min":75,"x_max":846,"o":"m 75 639 l 75 0 l 304 0 l 304 639 l 75 639 m 535 639 l 263 375 l 568 0 l 846 0 l 547 375 l 818 639 l 535 639 m 697 946 l 519 1024 l 311 801 l 447 738 l 697 946 z "},"л":{"ha":893,"x_min":14,"x_max":782,"o":"m 782 639 l 115 639 l 115 289 q 85 226 115 239 q 14 214 56 214 l 14 0 q 214 24 142 0 q 315 98 286 49 q 344 222 344 147 l 344 422 l 553 422 l 553 0 l 782 0 l 782 639 z "},"м":{"ha":933,"x_min":7,"x_max":926,"o":"m 689 0 l 926 0 l 725 688 l 607 417 l 689 0 m 422 208 l 464 -43 l 739 388 l 725 688 l 422 208 m 464 -43 l 506 208 l 207 688 l 193 388 l 464 -43 m 7 0 l 244 0 l 326 417 l 207 688 l 7 0 z "},"н":{"ha":875,"x_min":76,"x_max":799,"o":"m 142 251 l 669 251 l 669 422 l 142 422 l 142 251 m 569 639 l 569 0 l 799 0 l 799 639 l 569 639 m 76 639 l 76 0 l 306 0 l 306 639 l 76 639 z "},"о":{"ha":836,"x_min":43,"x_max":794,"o":"m 43 319 q 92 143 43 218 q 226 27 140 68 q 418 -14 311 -14 q 611 27 526 -14 q 745 143 696 68 q 794 319 794 218 q 745 497 794 422 q 611 613 696 572 q 418 654 526 654 q 226 613 311 654 q 92 497 140 572 q 43 319 43 422 m 290 319 q 308 395 290 364 q 354 443 325 426 q 418 460 383 460 q 482 443 453 460 q 529 395 511 426 q 547 319 547 364 q 529 244 547 275 q 482 197 511 213 q 418 181 453 181 q 354 197 383 181 q 308 244 325 213 q 290 319 290 275 z "},"п":{"ha":819,"x_min":76,"x_max":743,"o":"m 743 639 l 76 639 l 76 0 l 306 0 l 306 433 l 514 433 l 514 0 l 743 0 l 743 639 z "},"р":{"ha":876,"x_min":75,"x_max":833,"o":"m 315 -306 l 315 639 l 75 639 l 75 -306 l 315 -306 m 833 319 q 790 510 833 435 q 678 625 746 586 q 533 664 610 664 q 388 621 449 664 q 297 501 328 578 q 265 319 265 424 q 297 139 265 217 q 388 18 328 61 q 533 -25 449 -25 q 678 14 610 -25 q 790 129 746 53 q 833 319 833 206 m 581 319 q 563 247 581 278 q 514 201 544 217 q 446 186 483 186 q 384 201 414 186 q 335 244 354 215 q 315 319 315 274 q 335 394 315 365 q 384 438 354 424 q 446 453 414 453 q 514 438 483 453 q 563 392 544 422 q 581 319 581 363 z "},"с":{"ha":692,"x_min":42,"x_max":622,"o":"m 289 319 q 310 394 289 361 q 367 447 331 428 q 444 467 403 467 q 507 458 474 467 q 572 429 540 449 q 622 379 603 410 l 622 604 q 543 638 589 624 q 422 653 497 653 q 226 612 313 653 q 91 497 140 571 q 42 319 42 422 q 91 143 42 218 q 226 27 140 68 q 422 -14 313 -14 q 543 1 497 -14 q 622 36 589 15 l 622 261 q 574 212 603 232 q 513 182 546 192 q 444 172 479 172 q 367 190 403 172 q 310 240 331 207 q 289 319 289 274 z "},"т":{"ha":485,"x_min":7,"x_max":478,"o":"m 7 639 l 7 444 l 478 444 l 478 639 l 7 639 m 128 611 l 128 0 l 357 0 l 357 611 l 128 611 z "},"у":{"ha":757,"x_min":-17,"x_max":774,"o":"m 774 639 l 531 639 l 325 124 l 451 122 l 244 639 l -17 639 l 269 40 l 119 -306 l 357 -306 l 774 639 z "},"ў":{"ha":611,"x_min":-17,"x_max":774,"o":"m 774 639 l 531 639 l 325 124 l 451 122 l 244 639 l -17 639 l 269 40 l 119 -306 l 357 -306 l 774 639 m 147 943 q 174 838 147 885 q 253 764 201 790 q 378 738 306 738 q 503 764 451 738 q 582 838 554 790 q 610 943 610 885 l 460 943 q 448 900 460 917 q 417 875 436 883 q 378 867 399 867 q 340 875 358 867 q 309 900 321 883 q 297 943 297 917 l 147 943 z "},"ф":{"ha":960,"x_min":43,"x_max":917,"o":"m 368 778 l 368 -139 l 592 -139 l 592 778 l 368 778 m 43 319 q 94 143 43 218 q 244 27 146 68 q 479 -14 342 -14 q 716 27 618 -14 q 865 143 814 68 q 917 319 917 218 q 865 497 917 422 q 716 613 814 572 q 479 654 618 654 q 244 613 342 654 q 94 497 146 572 q 43 319 43 422 m 257 319 q 278 395 257 364 q 348 443 299 426 q 479 460 397 460 q 610 443 561 460 q 681 395 660 426 q 703 319 703 364 q 681 244 703 275 q 610 197 660 213 q 479 181 561 181 q 348 197 397 181 q 278 244 299 213 q 257 319 257 275 z "},"х":{"ha":785,"x_min":0,"x_max":785,"o":"m 506 639 l 397 488 l 290 639 l 14 639 l 271 328 l 0 0 l 276 0 l 397 169 l 519 0 l 785 0 l 518 328 l 771 639 l 506 639 z "},"ц":{"ha":886,"x_min":76,"x_max":865,"o":"m 754 194 l 754 639 l 514 639 l 514 194 l 317 194 l 317 639 l 76 639 l 76 0 l 639 0 l 639 -147 l 865 -147 l 865 194 l 754 194 z "},"ч":{"ha":786,"x_min":69,"x_max":699,"o":"m 319 150 l 538 150 l 538 343 l 397 343 l 319 150 m 458 639 l 458 0 l 699 0 l 699 639 l 458 639 m 310 639 l 69 639 l 69 456 q 92 294 69 363 q 169 188 114 225 q 319 150 224 150 l 397 343 q 349 352 368 343 q 319 381 329 361 q 310 433 310 400 l 310 639 z "},"ш":{"ha":1185,"x_min":76,"x_max":1110,"o":"m 707 194 l 707 639 l 478 639 l 478 194 l 306 194 l 306 639 l 76 639 l 76 0 l 1110 0 l 1110 639 l 881 639 l 881 194 l 707 194 z "},"щ":{"ha":1240,"x_min":76,"x_max":1219,"o":"m 707 194 l 707 639 l 478 639 l 478 194 l 306 194 l 306 639 l 76 639 l 76 0 l 993 0 l 993 -147 l 1219 -147 l 1219 194 l 1108 194 l 1108 639 l 879 639 l 879 194 l 707 194 z "},"ъ":{"ha":864,"x_min":7,"x_max":800,"o":"m 368 283 l 519 283 q 563 269 547 283 q 578 232 578 256 q 570 205 578 217 q 550 188 563 193 q 519 182 538 182 l 368 182 l 368 0 l 567 0 q 686 29 633 0 q 769 111 739 58 q 800 232 800 164 q 733 383 800 335 q 567 431 665 431 l 368 431 l 368 283 m 192 444 l 192 0 l 408 0 l 408 639 l 7 639 l 7 444 l 192 444 z "},"ы":{"ha":1108,"x_min":76,"x_max":1033,"o":"m 793 639 l 793 0 l 1033 0 l 1033 639 l 793 639 m 76 639 l 76 0 l 317 0 l 317 639 l 76 639 m 271 283 l 421 283 q 464 269 449 283 q 479 232 479 256 q 472 205 479 217 q 452 188 465 193 q 421 182 439 182 l 271 182 l 271 0 l 469 0 q 589 29 536 0 q 672 111 642 58 q 703 232 703 164 q 635 383 703 335 q 469 431 568 431 l 271 431 l 271 283 z "},"ь":{"ha":783,"x_min":88,"x_max":714,"o":"m 88 639 l 88 0 l 328 0 l 328 639 l 88 639 m 282 283 l 432 283 q 475 269 460 283 q 490 232 490 256 q 483 205 490 217 q 463 188 476 193 q 432 182 450 182 l 282 182 l 282 0 l 481 0 q 600 29 547 0 q 683 111 653 58 q 714 232 714 164 q 647 383 714 335 q 481 431 579 431 l 282 431 l 282 283 z "},"э":{"ha":692,"x_min":69,"x_max":650,"o":"m 146 393 l 146 246 l 532 246 l 551 393 l 146 393 m 403 319 q 382 216 403 256 q 326 158 361 176 q 247 139 290 139 q 180 149 213 139 q 119 178 147 158 q 69 228 90 197 l 69 36 q 149 1 103 15 q 269 -14 194 -14 q 466 27 381 -14 q 601 143 551 68 q 650 319 650 218 q 601 497 650 422 q 466 612 551 571 q 269 653 381 653 q 149 638 194 653 q 69 604 103 624 l 69 413 q 121 463 90 443 q 185 491 151 482 q 247 500 218 500 q 326 479 290 500 q 382 418 361 458 q 403 319 403 378 z "},"ю":{"ha":1171,"x_min":76,"x_max":1128,"o":"m 142 251 l 557 251 l 557 422 l 142 422 l 142 251 m 76 639 l 76 0 l 306 0 l 306 639 l 76 639 m 376 319 q 426 143 376 218 q 560 27 475 68 q 753 -14 644 -14 q 945 27 860 -14 q 1079 143 1031 68 q 1128 319 1128 218 q 1079 497 1128 422 q 945 613 1031 572 q 753 654 860 654 q 560 613 644 654 q 426 497 475 572 q 376 319 376 422 m 624 319 q 642 395 624 364 q 689 443 660 426 q 753 460 718 460 q 815 443 786 460 q 863 395 844 426 q 881 319 881 364 q 863 244 881 275 q 815 197 844 213 q 753 181 786 181 q 689 197 718 181 q 642 244 660 213 q 624 319 624 275 z "},"я":{"ha":783,"x_min":51,"x_max":731,"o":"m 297 0 l 454 278 l 232 278 l 51 0 l 297 0 m 731 0 l 731 639 l 490 639 l 490 0 l 731 0 m 569 375 l 410 375 q 372 378 388 375 q 347 390 356 382 q 339 414 339 399 q 347 438 339 429 q 372 449 356 446 q 410 451 388 451 l 569 451 l 569 639 l 371 639 q 244 619 306 639 q 143 555 182 599 q 104 436 104 511 q 143 315 104 363 q 244 245 182 268 q 371 222 306 222 l 569 222 l 569 375 z "},"ª":{"ha":389,"x_min":24,"x_max":361,"o":"m 144 736 q 158 762 144 751 q 193 772 171 772 q 236 766 218 772 q 269 747 254 760 l 269 803 q 227 824 258 815 q 161 833 196 833 q 63 806 101 833 q 24 731 24 778 q 56 658 24 685 q 142 632 89 632 q 225 658 192 632 q 258 729 258 683 l 247 769 q 227 720 247 733 q 183 707 207 707 q 155 714 165 707 q 144 736 144 721 m 90 860 q 131 876 101 867 q 194 886 160 886 q 234 872 221 886 q 247 839 247 858 l 247 639 l 361 639 l 361 874 q 317 952 361 925 q 206 979 272 979 q 122 967 163 979 q 51 943 82 956 l 90 860 z "},"º":{"ha":386,"x_min":25,"x_max":401,"o":"m 25 806 q 78 685 25 731 q 213 639 131 639 q 347 685 293 639 q 401 806 401 731 q 347 927 401 882 q 213 972 293 972 q 78 927 131 972 q 25 806 25 882 m 149 806 q 167 858 149 839 q 213 876 186 876 q 257 858 238 876 q 276 806 276 839 q 257 754 276 772 q 213 736 238 736 q 167 754 186 736 q 149 806 149 772 z "},"̀":{"ha":0,"x_min":0,"x_max":385,"o":"m 250 740 l 385 804 l 176 1026 l 0 949 l 250 740 z "},"́":{"ha":0,"x_min":21,"x_max":406,"o":"m 156 746 l 406 954 l 229 1032 l 21 810 l 156 746 z "},"̂":{"ha":0,"x_min":0,"x_max":492,"o":"m 103 764 l 271 901 l 219 901 l 389 764 l 492 894 l 247 1064 l 0 894 l 103 764 z "},"̃":{"ha":0,"x_min":0,"x_max":571,"o":"m 107 794 q 117 828 107 813 q 143 855 126 844 q 182 865 160 865 q 239 846 214 865 q 292 808 264 826 q 361 789 321 789 q 445 809 401 789 q 524 858 489 829 q 571 913 560 888 l 461 1028 q 414 974 439 994 q 356 953 389 953 q 312 964 329 953 q 279 990 294 975 q 242 1015 264 1004 q 183 1026 219 1026 q 101 1006 140 1026 q 35 956 61 986 q 0 890 8 925 l 107 794 z "},"̄":{"ha":0,"x_min":0,"x_max":525,"o":"m 0 772 l 525 772 l 525 938 l 0 938 l 0 772 z "},"̆":{"ha":0,"x_min":0,"x_max":461,"o":"m 231 761 q 352 787 300 761 q 433 858 404 813 q 461 967 461 904 l 282 967 q 276 928 282 944 q 258 901 269 911 q 231 890 246 890 q 203 901 215 890 q 185 928 192 911 q 179 967 179 944 l 0 967 q 28 858 0 904 q 109 787 57 813 q 231 761 161 761 z "},"̇":{"ha":0,"x_min":0,"x_max":272,"o":"m 136 724 q 233 759 194 724 q 272 847 272 794 q 233 937 272 901 q 136 972 194 972 q 39 937 78 972 q 0 847 0 901 q 39 759 0 794 q 136 724 78 724 z "},"̈":{"ha":0,"x_min":0,"x_max":628,"o":"m 136 742 q 235 776 197 742 q 272 867 272 810 q 235 956 272 922 q 136 990 197 990 q 37 956 74 990 q 0 867 0 922 q 37 776 0 810 q 136 742 74 742 m 492 742 q 591 776 554 742 q 628 867 628 810 q 591 956 628 922 q 492 990 554 990 q 393 956 431 990 q 356 867 356 922 q 393 776 356 810 q 492 742 431 742 z "},"̊":{"ha":0,"x_min":0,"x_max":372,"o":"m 185 722 q 281 744 239 722 q 348 805 324 767 q 372 892 372 843 q 348 979 372 940 q 281 1040 324 1018 q 185 1061 239 1061 q 52 1013 104 1061 q 0 892 0 965 q 52 770 0 818 q 185 722 104 722 m 185 826 q 139 844 157 826 q 121 892 121 863 q 139 940 121 921 q 185 958 157 958 q 231 940 214 958 q 249 892 249 921 q 231 845 249 864 q 185 826 214 826 z "},"̋":{"ha":0,"x_min":0,"x_max":619,"o":"m 144 731 l 350 982 l 163 1028 l 0 769 l 144 731 m 414 731 l 619 982 l 431 1028 l 268 769 l 414 731 z "},"̌":{"ha":0,"x_min":0,"x_max":492,"o":"m 247 764 l 492 935 l 389 1064 l 219 928 l 271 928 l 103 1064 l 0 935 l 247 764 z "},"̒":{"ha":0,"x_min":0,"x_max":363,"o":"m 240 690 l 363 1050 l 181 1083 l 0 736 l 240 690 z "},"̦":{"ha":0,"x_min":0,"x_max":301,"o":"m 131 -281 l 301 -90 l 129 -29 l 0 -236 l 131 -281 z "},"̧":{"ha":0,"x_min":0,"x_max":356,"o":"m 190 -297 q 308 -255 261 -297 q 356 -149 356 -212 q 326 -68 356 -101 q 253 -35 297 -35 q 178 -41 214 -35 q 113 -50 142 -47 l 199 -74 l 279 97 l 150 104 l 60 -108 q 109 -106 85 -106 q 150 -107 133 -107 q 198 -115 183 -107 q 213 -143 213 -124 q 199 -178 213 -165 q 160 -190 185 -190 q 99 -183 131 -190 q 42 -165 67 -176 l 0 -258 q 89 -287 36 -276 q 190 -297 142 -297 z "},"̨":{"ha":0,"x_min":0,"x_max":304,"o":"m 160 -306 q 255 -288 221 -306 q 304 -250 289 -271 l 258 -147 q 226 -168 244 -161 q 189 -175 208 -175 q 156 -162 167 -175 q 144 -128 144 -150 q 156 -85 144 -107 q 192 -42 168 -64 q 251 0 215 -21 l 194 35 q 101 -19 146 10 q 28 -84 57 -49 q 0 -167 0 -119 q 23 -244 0 -212 q 82 -290 46 -275 q 160 -306 118 -306 z "},"０":{"ha":896,"x_min":29,"x_max":864,"o":"m 288 486 q 299 601 288 550 q 332 689 311 653 q 382 744 353 725 q 446 763 411 763 q 511 744 482 763 q 561 689 540 725 q 594 601 582 653 q 606 486 606 550 q 594 371 606 422 q 561 283 582 319 q 511 228 540 247 q 446 210 482 210 q 382 228 411 210 q 332 283 353 247 q 299 371 311 319 q 288 486 288 422 m 29 486 q 82 211 29 324 q 228 40 135 99 q 446 -19 322 -19 q 669 40 576 -19 q 813 211 763 99 q 864 486 864 324 q 813 761 864 649 q 669 933 763 874 q 446 992 576 992 q 228 933 322 992 q 82 761 135 874 q 29 486 29 649 z "},"１":{"ha":896,"x_min":149,"x_max":656,"o":"m 149 665 l 397 724 l 397 0 l 656 0 l 656 992 l 149 894 l 149 665 z "},"２":{"ha":896,"x_min":13,"x_max":878,"o":"m 13 0 l 878 0 l 878 246 l 504 246 l 706 415 q 810 531 771 468 q 849 672 849 593 q 824 790 849 733 q 750 893 799 847 q 629 966 701 939 q 464 993 557 993 q 240 940 331 993 q 103 798 149 886 q 57 606 57 710 l 321 606 q 338 688 321 651 q 385 744 354 724 q 456 764 415 764 q 506 755 485 764 q 542 731 528 746 q 564 697 557 717 q 571 657 571 678 q 555 585 571 619 q 509 517 539 551 q 439 436 479 482 l 13 0 z "},"３":{"ha":896,"x_min":51,"x_max":849,"o":"m 381 468 q 602 494 503 468 q 761 575 701 519 q 821 719 821 631 q 778 858 821 796 q 655 956 736 919 q 457 992 574 992 q 264 949 346 992 q 138 835 182 907 q 93 675 93 764 l 339 675 q 372 751 339 722 q 456 781 406 781 q 512 771 490 781 q 544 743 533 761 q 556 701 556 725 q 543 656 556 678 q 507 618 531 635 q 451 592 483 601 q 381 582 419 582 l 381 468 m 444 -25 q 664 13 574 -25 q 801 117 754 50 q 849 268 849 183 q 815 396 849 343 q 718 483 781 449 q 570 533 656 518 q 381 549 485 549 l 381 418 q 474 408 436 418 q 537 381 513 399 q 572 341 561 364 q 583 293 583 318 q 567 231 583 256 q 522 197 550 207 q 456 188 493 188 q 388 201 421 188 q 336 246 356 215 q 317 324 317 276 l 51 324 q 78 194 51 257 q 155 82 104 132 q 278 3 206 32 q 444 -25 351 -25 z "},"４":{"ha":896,"x_min":14,"x_max":872,"o":"m 14 167 l 872 167 l 872 394 l 633 394 l 610 354 l 235 354 l 14 167 m 263 256 l 494 608 l 494 232 l 461 217 l 461 0 l 742 0 l 742 972 l 531 972 l 14 167 l 263 256 z "},"５":{"ha":896,"x_min":35,"x_max":844,"o":"m 844 308 q 801 481 844 411 q 690 588 758 551 q 547 624 622 624 q 403 604 469 624 q 281 524 336 585 l 89 399 q 190 432 139 421 q 288 447 240 443 q 369 451 335 451 q 453 441 413 451 q 522 407 494 431 q 549 342 549 383 q 526 275 549 301 q 465 238 504 249 q 369 226 425 226 q 298 235 339 226 q 213 264 257 244 q 124 314 168 283 l 35 83 q 142 33 83 57 q 274 -5 201 10 q 436 -19 347 -19 q 579 -1 507 -19 q 711 58 651 18 q 808 160 771 97 q 844 308 844 222 m 422 739 l 819 739 l 819 972 l 226 972 l 89 399 l 339 513 l 422 739 z "},"６":{"ha":896,"x_min":32,"x_max":861,"o":"m 299 347 q 318 425 299 392 q 372 476 338 458 q 446 494 406 494 q 522 476 489 494 q 575 425 556 458 q 594 347 594 392 q 575 271 594 303 q 522 221 556 239 q 446 203 489 203 q 372 221 406 203 q 318 271 338 239 q 299 347 299 303 m 426 967 l 160 639 q 69 503 107 574 q 32 347 32 432 q 89 140 32 222 q 240 16 146 57 q 446 -25 333 -25 q 653 16 560 -25 q 804 140 747 57 q 861 347 861 222 q 834 482 861 424 q 762 581 807 540 q 663 643 717 622 q 557 664 610 664 q 467 652 503 664 q 390 601 432 640 l 450 631 l 768 967 l 426 967 z "},"７":{"ha":896,"x_min":46,"x_max":872,"o":"m 46 721 l 478 721 l 110 0 l 401 0 l 872 972 l 46 972 l 46 721 z "},"８":{"ha":896,"x_min":89,"x_max":851,"o":"m 124 738 q 155 617 124 668 q 237 534 186 567 q 349 486 288 501 q 469 471 410 471 q 590 486 529 471 q 703 534 651 501 q 785 617 754 567 q 817 738 817 668 q 769 881 817 824 q 642 968 721 939 q 469 997 564 997 q 298 968 376 997 q 172 881 219 939 q 124 738 124 824 m 376 713 q 388 764 376 742 q 422 798 400 786 q 469 810 443 810 q 519 798 499 810 q 552 764 540 786 q 564 713 564 742 q 552 662 564 683 q 519 627 540 640 q 469 614 499 614 q 422 627 443 614 q 388 662 400 640 q 376 713 376 683 m 89 264 q 120 140 89 194 q 206 50 151 86 q 328 -6 260 14 q 469 -25 397 -25 q 611 -6 543 -25 q 734 50 679 14 q 820 140 789 86 q 851 264 851 194 q 815 399 851 344 q 721 488 779 454 q 596 538 663 522 q 469 553 529 553 q 343 538 410 553 q 219 488 276 522 q 125 399 161 454 q 89 264 89 344 m 358 306 q 373 361 358 336 q 413 401 388 386 q 469 415 439 415 q 527 401 501 415 q 567 361 553 386 q 582 306 582 336 q 567 243 582 268 q 527 205 553 218 q 469 192 501 192 q 413 205 439 192 q 373 243 388 218 q 358 306 358 268 z "},"９":{"ha":896,"x_min":32,"x_max":861,"o":"m 594 625 q 575 548 594 581 q 522 497 556 515 q 446 478 489 478 q 372 497 406 478 q 318 548 338 515 q 299 625 299 581 q 318 701 299 669 q 372 751 338 733 q 446 769 406 769 q 522 751 489 769 q 575 701 556 733 q 594 625 594 669 m 467 6 l 733 333 q 824 469 786 399 q 861 625 861 540 q 804 833 861 750 q 653 956 747 915 q 446 997 560 997 q 240 956 333 997 q 89 833 146 915 q 32 625 32 750 q 59 490 32 549 q 131 391 86 432 q 229 329 175 350 q 336 308 283 308 q 425 321 390 308 q 503 371 460 333 l 443 342 l 125 6 l 467 6 z "},"¹":{"ha":675,"x_min":178,"x_max":482,"o":"m 178 779 l 326 815 l 326 381 l 482 381 l 482 975 l 178 917 l 178 779 z "},"²":{"ha":593,"x_min":35,"x_max":553,"o":"m 35 392 l 553 392 l 553 539 l 329 539 l 450 640 q 513 711 490 672 q 536 796 536 750 q 510 888 536 844 q 432 960 483 932 q 306 988 381 988 q 172 956 226 988 q 89 870 117 924 q 61 754 61 817 l 219 754 q 242 824 219 797 q 300 851 265 851 q 340 842 325 851 q 363 817 356 832 q 369 786 369 803 q 349 722 369 751 q 290 654 328 693 l 35 392 z "},"³":{"ha":529,"x_min":21,"x_max":500,"o":"m 219 669 q 353 685 293 669 q 448 735 413 701 q 483 821 483 768 q 427 936 483 889 q 265 983 371 983 q 106 929 167 983 q 46 794 46 875 l 194 794 q 215 840 194 824 q 264 857 235 857 q 310 844 296 857 q 324 810 324 832 q 310 775 324 792 q 274 748 297 758 q 219 738 250 738 l 219 669 m 258 374 q 437 424 374 374 q 500 550 500 474 q 465 647 500 610 q 366 701 429 683 q 219 718 303 718 l 219 639 q 290 629 264 639 q 328 603 317 619 q 340 565 340 586 q 319 516 340 531 q 264 501 297 501 q 206 520 232 501 q 181 583 181 539 l 21 583 q 49 482 21 531 q 131 403 78 433 q 258 374 183 374 z "},"¼":{"ha":1171,"x_min":31,"x_max":1131,"o":"m 881 972 l 158 0 l 304 0 l 1026 972 l 881 972 m 31 779 l 179 815 l 179 381 l 335 381 l 335 975 l 31 917 l 31 779 m 568 100 l 1131 100 l 1131 236 l 974 236 l 960 213 l 701 213 l 568 100 m 731 154 l 890 365 l 890 139 l 871 131 l 871 0 l 1039 0 l 1039 583 l 913 583 l 568 100 l 731 154 z "},"½":{"ha":1272,"x_min":31,"x_max":1226,"o":"m 881 972 l 158 0 l 304 0 l 1026 972 l 881 972 m 31 779 l 179 815 l 179 381 l 335 381 l 335 975 l 31 917 l 31 779 m 707 3 l 1226 3 l 1226 150 l 1001 150 l 1122 251 q 1185 322 1163 283 q 1208 407 1208 361 q 1182 499 1208 456 q 1104 571 1156 543 q 978 599 1053 599 q 844 567 899 599 q 761 481 789 535 q 733 365 733 428 l 892 365 q 915 435 892 408 q 972 463 938 463 q 1013 453 997 463 q 1035 428 1028 443 q 1042 397 1042 414 q 1021 333 1042 363 q 963 265 1000 304 l 707 3 z "},"¾":{"ha":1246,"x_min":33,"x_max":1207,"o":"m 968 972 l 246 0 l 392 0 l 1114 972 l 968 972 m 232 669 q 365 685 306 669 q 460 735 425 701 q 496 821 496 768 q 440 936 496 889 q 278 983 383 983 q 119 929 179 983 q 58 794 58 875 l 207 794 q 227 840 207 824 q 276 857 247 857 q 322 844 308 857 q 336 810 336 832 q 323 775 336 792 q 286 748 310 758 q 232 738 263 738 l 232 669 m 271 374 q 449 424 386 374 q 513 550 513 474 q 477 647 513 610 q 378 701 442 683 q 232 718 315 718 l 232 639 q 303 629 276 639 q 341 603 329 619 q 353 565 353 586 q 331 516 353 531 q 278 501 310 501 q 219 520 244 501 q 193 583 193 539 l 33 583 q 62 482 33 531 q 143 403 90 433 q 271 374 196 374 m 644 100 l 1207 100 l 1207 236 l 1050 236 l 1036 213 l 776 213 l 644 100 m 807 154 l 967 365 l 967 139 l 947 131 l 947 0 l 1115 0 l 1115 583 l 989 583 l 644 100 l 807 154 z "},"⁰":{"ha":550,"x_min":25,"x_max":525,"o":"m 179 681 q 191 769 179 732 q 225 826 203 806 q 275 847 247 847 q 326 826 304 847 q 359 769 347 806 q 371 681 371 732 q 359 592 371 629 q 326 535 347 556 q 275 514 304 514 q 225 535 247 514 q 191 592 203 556 q 179 681 179 629 m 25 681 q 57 517 25 585 q 145 413 89 449 q 275 378 201 378 q 408 413 353 378 q 494 517 464 449 q 525 681 525 585 q 494 845 525 778 q 408 948 464 913 q 275 983 353 983 q 145 948 201 983 q 57 845 89 913 q 25 681 25 778 z "},"⁴":{"ha":608,"x_min":15,"x_max":578,"o":"m 15 489 l 578 489 l 578 625 l 422 625 l 408 601 l 149 601 l 15 489 m 178 543 l 338 754 l 338 528 l 318 519 l 318 389 l 486 389 l 486 972 l 360 972 l 15 489 l 178 543 z "},"⁵":{"ha":550,"x_min":31,"x_max":515,"o":"m 515 571 q 490 675 515 633 q 424 739 464 717 q 338 761 383 761 q 252 749 292 761 q 178 700 213 738 l 63 625 q 153 651 107 644 q 231 657 199 657 q 304 643 269 657 q 339 592 339 629 q 310 538 339 554 q 231 522 281 522 q 164 535 204 522 q 83 575 124 547 l 31 436 q 133 394 75 413 q 271 375 190 375 q 384 394 328 375 q 478 458 440 414 q 515 571 515 503 m 263 829 l 501 829 l 501 969 l 144 969 l 63 625 l 214 693 l 263 829 z "},"⁶":{"ha":547,"x_min":25,"x_max":524,"o":"m 185 594 q 197 641 185 621 q 228 672 208 661 q 275 683 249 683 q 319 672 300 683 q 351 641 339 661 q 363 594 363 621 q 338 532 363 556 q 275 508 313 508 q 210 532 236 508 q 185 594 185 556 m 263 967 l 101 769 q 48 688 71 731 q 25 594 25 646 q 60 470 25 521 q 151 395 94 419 q 275 371 207 371 q 399 395 343 371 q 490 470 456 419 q 524 594 524 521 q 495 698 524 656 q 425 763 467 740 q 340 785 383 785 q 288 777 308 785 q 242 747 267 769 l 276 764 l 467 967 l 263 967 z "},"⁷":{"ha":536,"x_min":29,"x_max":525,"o":"m 29 821 l 289 821 l 68 389 l 243 389 l 525 972 l 29 972 l 29 821 z "},"⁸":{"ha":519,"x_min":28,"x_max":486,"o":"m 49 832 q 81 742 49 778 q 161 688 113 706 q 257 671 210 671 q 353 688 306 671 q 433 742 401 706 q 465 832 465 778 q 437 918 465 883 q 360 970 408 953 q 257 988 313 988 q 154 970 201 988 q 78 918 107 953 q 49 832 49 883 m 201 817 q 217 860 201 844 q 257 875 232 875 q 299 860 283 875 q 314 817 314 844 q 307 785 314 799 q 288 765 300 772 q 257 757 275 757 q 228 765 242 757 q 208 785 215 772 q 201 817 201 799 m 28 547 q 60 453 28 493 q 146 394 93 414 q 257 374 199 374 q 369 394 317 374 q 453 453 421 414 q 486 547 486 493 q 465 628 486 596 q 408 681 443 661 q 333 711 374 701 q 257 721 293 721 q 181 711 221 721 q 107 681 142 701 q 50 628 72 661 q 28 547 28 596 m 190 572 q 199 606 190 590 q 223 629 208 621 q 257 638 238 638 q 292 629 276 638 q 315 606 307 621 q 324 572 324 590 q 305 522 324 539 q 257 504 286 504 q 210 522 229 504 q 190 572 190 539 z "},"⁹":{"ha":542,"x_min":25,"x_max":522,"o":"m 361 767 q 350 720 361 740 q 319 689 339 700 q 274 678 299 678 q 228 689 249 678 q 197 720 208 700 q 185 767 185 740 q 210 830 185 807 q 274 853 236 853 q 336 830 311 853 q 361 767 361 807 m 286 394 l 444 592 q 500 674 478 631 q 522 767 522 717 q 489 892 522 842 q 399 966 456 942 q 274 990 342 990 q 149 966 206 990 q 59 892 93 942 q 25 767 25 842 q 53 664 25 707 q 123 599 81 621 q 207 576 165 576 q 260 584 239 576 q 307 614 282 592 l 272 597 l 81 394 l 286 394 z "},"₀":{"ha":550,"x_min":25,"x_max":525,"o":"m 179 292 q 191 380 179 343 q 225 438 203 417 q 275 458 247 458 q 326 438 304 458 q 359 380 347 417 q 371 292 371 343 q 359 203 371 240 q 326 146 347 167 q 275 125 304 125 q 225 146 247 125 q 191 203 203 167 q 179 292 179 240 m 25 292 q 57 128 25 196 q 145 24 89 60 q 275 -11 201 -11 q 408 24 353 -11 q 494 128 464 60 q 525 292 525 196 q 494 456 525 389 q 408 559 464 524 q 275 594 353 594 q 145 559 201 594 q 57 456 89 524 q 25 292 25 389 z "},"₁":{"ha":521,"x_min":125,"x_max":429,"o":"m 125 400 l 275 436 l 275 1 l 429 1 l 429 596 l 125 538 l 125 400 z "},"₂":{"ha":597,"x_min":40,"x_max":560,"o":"m 40 3 l 560 3 l 560 150 l 335 150 l 456 251 q 519 322 496 283 q 542 407 542 361 q 515 499 542 456 q 438 571 489 543 q 311 599 386 599 q 177 567 232 599 q 94 481 122 535 q 67 365 67 428 l 225 365 q 248 435 225 408 q 306 463 271 463 q 346 453 331 463 q 368 428 361 443 q 375 397 375 414 q 354 333 375 363 q 296 265 333 304 l 40 3 z "},"₃":{"ha":540,"x_min":29,"x_max":508,"o":"m 228 281 q 361 297 301 281 q 456 346 421 313 q 492 432 492 379 q 435 547 492 500 q 274 594 378 594 q 114 540 174 594 q 54 406 54 486 l 203 406 q 222 451 203 435 q 272 468 242 468 q 317 456 303 468 q 332 421 332 443 q 319 386 332 403 q 282 359 306 369 q 228 349 258 349 l 228 281 m 265 -15 q 445 35 382 -15 q 508 161 508 85 q 472 258 508 221 q 374 312 436 294 q 228 329 311 329 l 228 250 q 298 240 271 250 q 337 214 325 231 q 349 176 349 197 q 326 127 349 142 q 272 113 304 113 q 215 131 240 113 q 189 194 189 150 l 29 194 q 57 93 29 142 q 138 15 85 44 q 265 -15 192 -15 z "},"₄":{"ha":618,"x_min":14,"x_max":576,"o":"m 14 100 l 576 100 l 576 236 l 419 236 l 406 213 l 146 213 l 14 100 m 176 154 l 336 365 l 336 139 l 315 131 l 315 0 l 485 0 l 485 583 l 357 583 l 14 100 l 176 154 z "},"₅":{"ha":567,"x_min":36,"x_max":521,"o":"m 521 182 q 495 286 521 244 q 429 350 469 328 q 343 372 389 372 q 258 360 297 372 q 183 311 218 349 l 68 236 q 158 262 113 256 q 236 268 204 268 q 310 254 275 268 q 344 203 344 240 q 315 149 344 165 q 236 133 286 133 q 169 146 210 133 q 89 186 129 158 l 36 47 q 138 5 81 24 q 276 -14 196 -14 q 390 6 333 -14 q 483 69 446 25 q 521 182 521 114 m 268 440 l 507 440 l 507 581 l 150 581 l 68 236 l 219 304 l 268 440 z "},"₆":{"ha":568,"x_min":32,"x_max":531,"o":"m 192 206 q 203 252 192 232 q 235 283 215 272 q 281 294 256 294 q 326 283 306 294 q 358 252 346 272 q 369 206 369 232 q 344 143 369 167 q 281 119 318 119 q 217 143 243 119 q 192 206 192 167 m 268 578 l 108 381 q 55 299 78 342 q 32 206 32 257 q 66 81 32 132 q 156 6 100 31 q 281 -18 213 -18 q 406 6 349 -18 q 497 81 463 31 q 531 206 531 132 q 502 309 531 267 q 431 374 474 351 q 346 396 389 396 q 294 388 314 396 q 247 358 274 381 l 283 375 l 474 578 l 268 578 z "},"₇":{"ha":546,"x_min":36,"x_max":532,"o":"m 36 432 l 294 432 l 75 0 l 249 0 l 532 583 l 36 583 l 36 432 z "},"₈":{"ha":531,"x_min":36,"x_max":494,"o":"m 57 443 q 89 353 57 389 q 169 299 121 317 q 265 282 218 282 q 362 299 314 282 q 442 353 410 317 q 474 443 474 389 q 444 529 474 494 q 368 581 415 564 q 265 599 321 599 q 162 581 210 599 q 85 529 114 564 q 57 443 57 494 m 208 428 q 224 471 208 456 q 265 486 239 486 q 306 471 290 486 q 321 428 321 456 q 314 397 321 410 q 294 376 307 383 q 265 368 282 368 q 236 376 249 368 q 216 397 224 383 q 208 428 208 410 m 36 158 q 69 65 36 104 q 154 5 101 25 q 265 -15 207 -15 q 377 5 325 -15 q 462 65 429 25 q 494 158 494 104 q 472 240 494 207 q 415 292 450 272 q 341 322 381 313 q 265 332 301 332 q 189 322 229 332 q 114 292 149 313 q 58 240 79 272 q 36 158 36 207 m 199 183 q 207 217 199 201 q 231 240 215 232 q 265 249 246 249 q 299 240 285 249 q 323 217 314 232 q 332 183 332 201 q 313 133 332 150 q 265 115 294 115 q 217 133 236 115 q 199 183 199 150 z "},"₉":{"ha":575,"x_min":35,"x_max":533,"o":"m 372 378 q 360 331 372 351 q 328 300 349 311 q 283 289 308 289 q 238 300 258 289 q 206 331 218 311 q 194 378 194 351 q 220 441 194 418 q 283 464 246 464 q 347 441 322 464 q 372 378 372 418 m 296 6 l 456 203 q 510 285 488 242 q 533 378 533 328 q 499 503 533 453 q 408 577 465 553 q 283 601 351 601 q 159 577 215 601 q 69 503 103 553 q 35 378 35 453 q 63 275 35 318 q 133 210 90 232 q 217 188 175 188 q 271 195 249 188 q 317 225 293 203 l 282 208 l 90 6 l 296 6 z "},"⅐":{"ha":1349,"x_min":31,"x_max":1322,"o":"m 856 972 l 133 0 l 325 0 l 1047 972 l 856 972 m 31 779 l 179 815 l 179 381 l 335 381 l 335 975 l 31 917 l 31 779 m 826 432 l 1085 432 l 865 0 l 1039 0 l 1322 583 l 826 583 l 826 432 z "},"⅑":{"ha":1268,"x_min":31,"x_max":1235,"o":"m 844 972 l 122 0 l 314 0 l 1036 972 l 844 972 m 31 779 l 179 815 l 179 381 l 335 381 l 335 975 l 31 917 l 31 779 m 1074 378 q 1063 331 1074 351 q 1031 300 1051 311 q 986 289 1011 289 q 941 300 961 289 q 909 331 921 311 q 897 378 897 351 q 923 441 897 418 q 986 464 949 464 q 1049 441 1024 464 q 1074 378 1074 418 m 999 6 l 1157 203 q 1213 285 1190 242 q 1235 378 1235 328 q 1201 503 1235 453 q 1111 577 1168 553 q 986 601 1054 601 q 861 577 918 601 q 771 503 804 553 q 738 378 738 453 q 765 275 738 318 q 835 210 793 232 q 919 188 878 188 q 974 195 951 188 q 1019 225 996 203 l 985 208 l 793 6 l 999 6 z "},"⅒":{"ha":1735,"x_min":31,"x_max":1688,"o":"m 844 972 l 122 0 l 314 0 l 1036 972 l 844 972 m 31 779 l 179 815 l 179 381 l 335 381 l 335 975 l 31 917 l 31 779 m 790 400 l 939 436 l 939 1 l 1094 1 l 1094 596 l 790 538 l 790 400 m 1343 292 q 1354 380 1343 343 q 1388 438 1365 417 q 1438 458 1410 458 q 1488 438 1467 458 q 1522 380 1510 417 q 1533 292 1533 343 q 1522 203 1533 240 q 1488 146 1510 167 q 1438 125 1467 125 q 1388 146 1410 125 q 1354 203 1365 167 q 1343 292 1343 240 m 1188 292 q 1219 128 1188 196 q 1308 24 1251 60 q 1438 -11 1364 -11 q 1571 24 1515 -11 q 1657 128 1626 60 q 1688 292 1688 196 q 1657 456 1688 389 q 1571 559 1626 524 q 1438 594 1515 594 q 1308 559 1364 594 q 1219 456 1251 524 q 1188 292 1188 389 z "},"⅓":{"ha":1261,"x_min":31,"x_max":1229,"o":"m 844 972 l 122 0 l 313 0 l 1035 972 l 844 972 m 31 779 l 179 815 l 179 381 l 335 381 l 335 975 l 31 917 l 31 779 m 947 281 q 1081 297 1021 281 q 1176 346 1140 313 q 1213 432 1213 379 q 1156 547 1213 500 q 993 594 1099 594 q 835 540 894 594 q 775 406 775 486 l 924 406 q 943 451 924 435 q 993 468 963 468 q 1038 456 1024 468 q 1053 421 1053 443 q 1039 386 1053 403 q 1001 359 1025 369 q 947 349 978 349 l 947 281 m 986 -15 q 1165 35 1101 -15 q 1229 161 1229 85 q 1193 258 1229 221 q 1094 312 1157 294 q 947 329 1032 329 l 947 250 q 1019 240 992 250 q 1058 214 1046 231 q 1069 176 1069 197 q 1047 127 1069 142 q 993 113 1025 113 q 935 131 961 113 q 910 194 910 150 l 750 194 q 778 93 750 142 q 858 15 806 44 q 986 -15 911 -15 z "},"⅔":{"ha":1449,"x_min":42,"x_max":1417,"o":"m 1056 972 l 333 0 l 524 0 l 1246 972 l 1056 972 m 42 392 l 560 392 l 560 539 l 336 539 l 457 640 q 520 711 497 672 q 543 796 543 750 q 517 888 543 844 q 439 960 490 932 q 313 988 388 988 q 178 956 233 988 q 96 870 124 924 q 68 754 68 817 l 226 754 q 249 824 226 797 q 307 851 272 851 q 347 842 332 851 q 369 817 363 832 q 376 786 376 803 q 356 722 376 751 q 297 654 335 693 l 42 392 m 1135 281 q 1269 297 1208 281 q 1365 346 1329 313 q 1400 432 1400 379 q 1343 547 1400 500 q 1181 594 1286 594 q 1022 540 1082 594 q 963 406 963 486 l 1111 406 q 1131 451 1111 435 q 1181 468 1150 468 q 1226 456 1211 468 q 1240 421 1240 443 q 1227 386 1240 403 q 1190 359 1214 369 q 1135 349 1167 349 l 1135 281 m 1174 -15 q 1353 35 1290 -15 q 1417 161 1417 85 q 1381 258 1417 221 q 1282 312 1344 294 q 1135 329 1219 329 l 1135 250 q 1206 240 1179 250 q 1245 214 1233 231 q 1257 176 1257 197 q 1235 127 1257 142 q 1181 113 1213 113 q 1123 131 1149 113 q 1097 194 1097 150 l 938 194 q 965 93 938 142 q 1046 15 993 44 q 1174 -15 1099 -15 z "},"⅕":{"ha":1246,"x_min":31,"x_max":1217,"o":"m 844 972 l 122 0 l 314 0 l 1036 972 l 844 972 m 31 779 l 179 815 l 179 381 l 335 381 l 335 975 l 31 917 l 31 779 m 1217 182 q 1191 286 1217 244 q 1125 350 1165 328 q 1039 372 1085 372 q 953 360 993 372 q 879 311 914 349 l 764 236 q 854 262 808 256 q 932 268 900 268 q 1006 254 971 268 q 1040 203 1040 240 q 1011 149 1040 165 q 932 133 982 133 q 865 146 906 133 q 785 186 825 158 l 732 47 q 834 5 776 24 q 972 -14 892 -14 q 1085 6 1029 -14 q 1179 69 1142 25 q 1217 182 1217 114 m 964 440 l 1203 440 l 1203 581 l 846 581 l 764 236 l 915 304 l 964 440 z "},"⅖":{"ha":1451,"x_min":42,"x_max":1404,"o":"m 1056 972 l 333 0 l 524 0 l 1246 972 l 1056 972 m 42 392 l 560 392 l 560 539 l 336 539 l 457 640 q 520 711 497 672 q 543 796 543 750 q 517 888 543 844 q 439 960 490 932 q 313 988 388 988 q 178 956 233 988 q 96 870 124 924 q 68 754 68 817 l 226 754 q 249 824 226 797 q 307 851 272 851 q 347 842 332 851 q 369 817 363 832 q 376 786 376 803 q 356 722 376 751 q 297 654 335 693 l 42 392 m 1404 182 q 1378 286 1404 244 q 1313 350 1353 328 q 1226 372 1272 372 q 1141 360 1181 372 q 1067 311 1101 349 l 951 236 q 1042 262 996 256 q 1119 268 1088 268 q 1193 254 1158 268 q 1228 203 1228 240 q 1199 149 1228 165 q 1119 133 1169 133 q 1053 146 1093 133 q 972 186 1013 158 l 919 47 q 1022 5 964 24 q 1160 -14 1079 -14 q 1273 6 1217 -14 q 1367 69 1329 25 q 1404 182 1404 114 m 1153 440 l 1390 440 l 1390 581 l 1035 581 l 951 236 l 1103 304 l 1153 440 z "},"⅗":{"ha":1333,"x_min":28,"x_max":1282,"o":"m 943 972 l 221 0 l 413 0 l 1135 972 l 943 972 m 226 669 q 360 685 300 669 q 455 735 419 701 q 490 821 490 768 q 434 936 490 889 q 272 983 378 983 q 113 929 174 983 q 53 794 53 875 l 201 794 q 222 840 201 824 q 271 857 242 857 q 317 844 303 857 q 331 810 331 832 q 317 775 331 792 q 281 748 304 758 q 226 738 257 738 l 226 669 m 265 374 q 444 424 381 374 q 507 550 507 474 q 472 647 507 610 q 373 701 436 683 q 226 718 310 718 l 226 639 q 297 629 271 639 q 335 603 324 619 q 347 565 347 586 q 326 516 347 531 q 271 501 304 501 q 213 520 239 501 q 188 583 188 539 l 28 583 q 56 482 28 531 q 138 403 85 433 q 265 374 190 374 m 1282 182 q 1256 286 1282 244 q 1190 350 1231 328 q 1104 372 1149 372 q 1018 360 1057 372 q 944 311 979 349 l 829 236 q 919 262 874 256 q 997 268 965 268 q 1071 254 1036 268 q 1106 203 1106 240 q 1076 149 1106 165 q 997 133 1047 133 q 929 146 969 133 q 850 186 889 158 l 797 47 q 899 5 842 24 q 1038 -14 957 -14 q 1150 6 1094 -14 q 1244 69 1206 25 q 1282 182 1282 114 m 1029 440 l 1267 440 l 1267 581 l 911 581 l 829 236 l 979 304 l 1029 440 z "},"⅘":{"ha":1472,"x_min":28,"x_max":1432,"o":"m 1036 971 l 314 -1 l 506 -1 l 1228 971 l 1036 971 m 28 489 l 589 489 l 589 625 l 433 625 l 419 601 l 160 601 l 28 489 m 189 543 l 350 754 l 350 528 l 329 519 l 329 389 l 497 389 l 497 972 l 371 972 l 28 489 l 189 543 m 1432 181 q 1406 285 1432 243 q 1340 349 1381 328 q 1253 371 1299 371 q 1167 359 1207 371 q 1093 311 1128 347 l 979 235 q 1069 260 1024 254 q 1146 267 1115 267 q 1219 253 1185 267 q 1254 201 1254 239 q 1226 148 1254 164 q 1146 132 1197 132 q 1079 145 1119 132 q 999 185 1039 158 l 946 46 q 1049 3 992 22 q 1186 -15 1106 -15 q 1299 5 1243 -15 q 1394 69 1356 25 q 1432 181 1432 113 m 1179 440 l 1417 440 l 1417 579 l 1061 579 l 979 235 l 1129 303 l 1179 440 z "},"⅙":{"ha":1267,"x_min":31,"x_max":1226,"o":"m 879 972 l 157 0 l 347 0 l 1069 972 l 879 972 m 31 779 l 179 815 l 179 381 l 335 381 l 335 975 l 31 917 l 31 779 m 888 206 q 899 252 888 232 q 931 283 911 272 q 976 294 951 294 q 1022 283 1003 294 q 1053 252 1042 272 q 1065 206 1065 232 q 1040 143 1065 167 q 976 119 1015 119 q 913 143 939 119 q 888 206 888 167 m 965 578 l 804 381 q 751 299 774 342 q 728 206 728 257 q 762 81 728 132 q 853 6 796 31 q 976 -18 910 -18 q 1101 6 1044 -18 q 1192 81 1158 31 q 1226 206 1226 132 q 1198 309 1226 267 q 1127 374 1169 351 q 1043 396 1085 396 q 990 388 1010 396 q 943 358 969 381 l 979 375 l 1169 578 l 965 578 z "},"⅚":{"ha":1324,"x_min":42,"x_max":1283,"o":"m 969 972 l 247 0 l 439 0 l 1161 972 l 969 972 m 526 571 q 501 675 526 633 q 435 739 475 717 q 349 761 394 761 q 263 749 303 761 q 189 700 224 738 l 74 625 q 164 651 118 644 q 242 657 210 657 q 315 643 281 657 q 350 592 350 629 q 321 538 350 554 q 242 522 292 522 q 175 535 215 522 q 94 575 135 547 l 42 436 q 144 394 86 413 q 282 375 201 375 q 395 394 339 375 q 489 458 451 414 q 526 571 526 503 m 274 829 l 513 829 l 513 969 l 156 969 l 74 625 l 225 693 l 274 829 m 946 206 q 957 252 946 232 q 989 283 968 272 q 1035 294 1010 294 q 1079 283 1060 294 q 1110 252 1099 272 q 1122 206 1122 232 q 1097 143 1122 167 q 1035 119 1072 119 q 972 143 997 119 q 946 206 946 167 m 1022 578 l 863 381 q 808 299 831 342 q 785 206 785 257 q 819 81 785 132 q 910 6 853 31 q 1035 -18 967 -18 q 1160 6 1103 -18 q 1250 81 1217 31 q 1283 206 1283 132 q 1256 309 1283 267 q 1185 374 1228 351 q 1100 396 1143 396 q 1047 388 1068 396 q 1001 358 1026 381 l 1036 375 l 1226 578 l 1022 578 z "},"⅛":{"ha":1290,"x_min":31,"x_max":1249,"o":"m 879 972 l 157 0 l 347 0 l 1069 972 l 879 972 m 31 779 l 179 815 l 179 381 l 335 381 l 335 975 l 31 917 l 31 779 m 811 443 q 843 353 811 389 q 924 299 875 317 q 1019 282 972 282 q 1116 299 1068 282 q 1196 353 1164 317 q 1228 443 1228 389 q 1199 529 1228 494 q 1122 581 1169 564 q 1019 599 1075 599 q 916 581 964 599 q 840 529 868 564 q 811 443 811 494 m 963 428 q 978 471 963 456 q 1019 486 993 486 q 1060 471 1044 486 q 1075 428 1075 456 q 1068 397 1075 410 q 1049 376 1061 383 q 1019 368 1036 368 q 990 376 1003 368 q 970 397 978 383 q 963 428 963 410 m 790 158 q 823 65 790 104 q 908 5 856 25 q 1019 -15 961 -15 q 1131 5 1079 -15 q 1216 65 1183 25 q 1249 158 1249 104 q 1226 240 1249 207 q 1169 292 1204 272 q 1095 322 1135 313 q 1019 332 1056 332 q 943 322 983 332 q 868 292 903 313 q 812 240 833 272 q 790 158 790 207 m 953 183 q 961 217 953 201 q 985 240 969 232 q 1019 249 1000 249 q 1053 240 1039 249 q 1077 217 1068 232 q 1086 183 1086 201 q 1067 133 1086 150 q 1019 115 1047 115 q 972 133 990 115 q 953 183 953 150 z "},"⅜":{"ha":1367,"x_min":28,"x_max":1324,"o":"m 954 972 l 232 0 l 424 0 l 1146 972 l 954 972 m 226 669 q 360 685 300 669 q 455 735 419 701 q 490 821 490 768 q 434 936 490 889 q 272 983 378 983 q 113 929 174 983 q 53 794 53 875 l 201 794 q 222 840 201 824 q 271 857 242 857 q 317 844 303 857 q 331 810 331 832 q 317 775 331 792 q 281 748 304 758 q 226 738 257 738 l 226 669 m 265 374 q 444 424 381 374 q 507 550 507 474 q 472 647 507 610 q 373 701 436 683 q 226 718 310 718 l 226 639 q 297 629 271 639 q 335 603 324 619 q 347 565 347 586 q 326 516 347 531 q 271 501 304 501 q 213 520 239 501 q 188 583 188 539 l 28 583 q 56 482 28 531 q 138 403 85 433 q 265 374 190 374 m 888 443 q 919 353 888 389 q 1000 299 951 317 q 1096 282 1049 282 q 1192 299 1144 282 q 1271 353 1239 317 q 1303 443 1303 389 q 1274 529 1303 494 q 1199 581 1246 564 q 1096 599 1151 599 q 992 581 1039 599 q 916 529 944 564 q 888 443 888 494 m 1039 428 q 1054 471 1039 456 q 1096 486 1069 486 q 1136 471 1121 486 q 1151 428 1151 456 q 1144 397 1151 410 q 1125 376 1138 383 q 1096 368 1113 368 q 1066 376 1079 368 q 1046 397 1053 383 q 1039 428 1039 410 m 867 158 q 899 65 867 104 q 985 5 932 25 q 1096 -15 1038 -15 q 1206 5 1154 -15 q 1291 65 1258 25 q 1324 158 1324 104 q 1302 240 1324 207 q 1246 292 1281 272 q 1172 322 1211 313 q 1096 332 1132 332 q 1019 322 1060 332 q 944 292 979 313 q 888 240 910 272 q 867 158 867 207 m 1028 183 q 1037 217 1028 201 q 1061 240 1046 232 q 1096 249 1076 249 q 1129 240 1114 249 q 1153 217 1144 232 q 1163 183 1163 201 q 1143 133 1163 150 q 1096 115 1124 115 q 1047 133 1067 115 q 1028 183 1028 150 z "},"⅝":{"ha":1382,"x_min":31,"x_max":1339,"o":"m 969 972 l 247 0 l 439 0 l 1161 972 l 969 972 m 515 571 q 490 675 515 633 q 424 739 464 717 q 338 761 383 761 q 252 749 292 761 q 178 700 213 738 l 63 625 q 153 651 107 644 q 231 657 199 657 q 304 643 269 657 q 339 592 339 629 q 310 538 339 554 q 231 522 281 522 q 164 535 204 522 q 83 575 124 547 l 31 436 q 133 394 75 413 q 271 375 190 375 q 384 394 328 375 q 478 458 440 414 q 515 571 515 503 m 263 829 l 501 829 l 501 969 l 144 969 l 63 625 l 214 693 l 263 829 m 901 443 q 933 353 901 389 q 1014 299 965 317 q 1110 282 1063 282 q 1206 299 1158 282 q 1286 353 1254 317 q 1318 443 1318 389 q 1290 529 1318 494 q 1214 581 1261 564 q 1110 599 1167 599 q 1007 581 1054 599 q 931 529 960 564 q 901 443 901 494 m 1054 428 q 1069 471 1054 456 q 1110 486 1085 486 q 1151 471 1136 486 q 1167 428 1167 456 q 1160 397 1167 410 q 1140 376 1153 383 q 1110 368 1128 368 q 1081 376 1094 368 q 1061 397 1068 383 q 1054 428 1054 410 m 881 158 q 913 65 881 104 q 999 5 946 25 q 1110 -15 1051 -15 q 1222 5 1169 -15 q 1306 65 1274 25 q 1339 158 1339 104 q 1317 240 1339 207 q 1261 292 1296 272 q 1186 322 1226 313 q 1110 332 1146 332 q 1034 322 1074 332 q 960 292 994 313 q 903 240 925 272 q 881 158 881 207 m 1043 183 q 1052 217 1043 201 q 1076 240 1061 232 q 1110 249 1092 249 q 1144 240 1129 249 q 1168 217 1160 232 q 1176 183 1176 201 q 1158 133 1176 150 q 1110 115 1139 115 q 1063 133 1082 115 q 1043 183 1043 150 z "},"⅞":{"ha":1229,"x_min":29,"x_max":1186,"o":"m 806 972 l 83 0 l 275 0 l 997 972 l 806 972 m 29 821 l 289 821 l 68 389 l 243 389 l 525 972 l 29 972 l 29 821 m 749 443 q 781 353 749 389 q 861 299 813 317 q 957 282 910 282 q 1053 299 1006 282 q 1133 353 1101 317 q 1165 443 1165 389 q 1137 529 1165 494 q 1061 581 1108 564 q 957 599 1014 599 q 854 581 901 599 q 778 529 807 564 q 749 443 749 494 m 901 428 q 917 471 901 456 q 957 486 932 486 q 999 471 983 486 q 1014 428 1014 456 q 1007 397 1014 410 q 988 376 1000 383 q 957 368 975 368 q 928 376 942 368 q 908 397 915 383 q 901 428 901 410 m 728 158 q 760 65 728 104 q 846 5 793 25 q 957 -15 899 -15 q 1069 5 1017 -15 q 1153 65 1121 25 q 1186 158 1186 104 q 1165 240 1186 207 q 1108 292 1143 272 q 1033 322 1074 313 q 957 332 993 332 q 881 322 921 332 q 807 292 842 313 q 750 240 772 272 q 728 158 728 207 m 890 183 q 899 217 890 201 q 924 240 908 232 q 957 249 939 249 q 992 240 976 249 q 1015 217 1007 232 q 1024 183 1024 201 q 1005 133 1024 150 q 957 115 986 115 q 910 133 929 115 q 890 183 890 150 z "},"_":{"ha":750,"x_min":0,"x_max":750,"o":"m 0 -222 l 750 -222 l 750 -71 l 0 -71 l 0 -222 z "},"-":{"ha":314,"x_min":7,"x_max":307,"o":"m 7 228 l 307 228 l 307 432 l 7 432 l 7 228 z "},"‐":{"ha":314,"x_min":7,"x_max":307,"o":"m 7 228 l 307 228 l 307 432 l 7 432 l 7 228 z "},"‒":{"ha":886,"x_min":97,"x_max":772,"o":"m 97 228 l 772 228 l 772 432 l 97 432 l 97 228 z "},"–":{"ha":1106,"x_min":97,"x_max":997,"o":"m 97 228 l 997 228 l 997 432 l 97 432 l 97 228 z "},"—":{"ha":1326,"x_min":97,"x_max":1224,"o":"m 97 228 l 1224 228 l 1224 432 l 97 432 l 97 228 z "},"(":{"ha":486,"x_min":86,"x_max":474,"o":"m 257 1083 q 130 754 174 928 q 86 403 86 581 q 130 53 86 226 q 257 -278 174 -121 l 474 -278 q 359 53 401 -121 q 317 403 317 226 q 359 754 317 581 q 474 1083 401 928 l 257 1083 z "},")":{"ha":486,"x_min":14,"x_max":401,"o":"m 231 -278 q 358 53 314 -121 q 401 403 401 226 q 358 754 401 581 q 231 1083 314 928 l 14 1083 q 128 754 88 928 q 169 403 169 581 q 128 53 169 226 q 14 -278 88 -121 l 231 -278 z "},"[":{"ha":529,"x_min":122,"x_max":501,"o":"m 361 878 l 501 878 l 501 1083 l 122 1083 l 122 -306 l 501 -306 l 501 -100 l 361 -100 l 361 878 z "},"]":{"ha":529,"x_min":28,"x_max":407,"o":"m 168 -100 l 28 -100 l 28 -306 l 407 -306 l 407 1083 l 28 1083 l 28 878 l 168 878 l 168 -100 z "},"{":{"ha":589,"x_min":47,"x_max":519,"o":"m 404 826 q 422 875 404 854 q 471 896 440 896 l 519 896 l 519 1083 l 381 1083 q 260 1063 315 1083 q 170 1001 204 1043 q 136 889 136 958 l 136 642 q 116 531 136 563 q 47 489 96 500 l 47 317 q 116 275 96 307 q 136 164 136 243 l 136 -83 q 170 -194 136 -151 q 260 -258 204 -237 q 381 -278 315 -278 l 519 -278 l 519 -90 l 471 -90 q 422 -69 440 -90 q 404 -21 404 -47 l 404 125 q 399 222 404 171 q 375 317 394 274 q 313 389 356 361 q 192 417 269 417 l 192 389 q 313 417 269 389 q 375 488 356 444 q 399 583 394 532 q 404 681 404 635 l 404 826 z "},"}":{"ha":589,"x_min":72,"x_max":544,"o":"m 188 -21 q 170 -69 188 -47 q 121 -90 153 -90 l 72 -90 l 72 -278 l 211 -278 q 331 -258 275 -278 q 422 -194 388 -237 q 456 -83 456 -151 l 456 164 q 476 275 456 243 q 544 317 497 307 l 544 489 q 476 531 497 500 q 456 642 456 563 l 456 889 q 422 1001 456 958 q 331 1063 388 1043 q 211 1083 275 1083 l 72 1083 l 72 896 l 121 896 q 170 875 153 896 q 188 826 188 854 l 188 681 q 192 583 188 635 q 216 488 196 532 q 279 417 236 444 q 400 389 322 389 l 400 417 q 279 389 322 417 q 216 317 236 361 q 192 222 196 274 q 188 125 188 171 l 188 -21 z "},"#":{"ha":953,"x_min":49,"x_max":904,"o":"m 104 561 l 306 561 l 347 572 l 636 572 l 682 561 l 904 561 l 904 751 l 104 751 l 104 561 m 49 228 l 849 228 l 849 418 l 678 418 l 632 407 l 300 407 l 249 418 l 49 418 l 49 228 m 665 972 l 594 679 l 594 631 l 525 349 l 504 310 l 429 0 l 635 0 l 871 972 l 665 972 m 318 972 l 82 0 l 286 0 l 363 314 l 361 353 l 428 629 l 451 681 l 522 972 l 318 972 z "},"%":{"ha":1346,"x_min":26,"x_max":1319,"o":"m 26 736 q 63 601 26 663 q 163 505 100 540 q 301 469 225 469 q 442 505 379 469 q 541 601 504 540 q 578 736 578 663 q 541 870 578 810 q 442 967 504 931 q 301 1003 379 1003 q 163 967 225 1003 q 63 870 100 931 q 26 736 26 810 m 221 736 q 232 776 221 758 q 261 806 243 794 q 301 817 279 817 q 343 806 325 817 q 372 776 361 794 q 382 736 382 758 q 372 696 382 715 q 343 666 361 676 q 301 656 325 656 q 261 666 279 656 q 232 696 243 676 q 221 736 221 715 m 768 238 q 805 103 768 164 q 905 7 842 43 q 1044 -29 968 -29 q 1184 7 1122 -29 q 1283 103 1246 43 q 1319 238 1319 164 q 1283 372 1319 311 q 1184 468 1246 432 q 1044 504 1122 504 q 905 468 968 504 q 805 372 842 432 q 768 238 768 311 m 964 238 q 974 278 964 260 q 1003 307 985 296 q 1044 318 1021 318 q 1085 307 1067 318 q 1114 278 1103 296 q 1125 238 1125 260 q 1114 198 1125 217 q 1085 168 1103 179 q 1044 157 1067 157 q 1003 168 1021 157 q 974 198 985 179 q 964 238 964 217 m 939 972 l 157 0 l 407 0 l 1189 972 l 939 972 z "},"‰":{"ha":2008,"x_min":26,"x_max":1982,"o":"m 1431 238 q 1467 103 1431 164 q 1567 7 1504 43 q 1706 -29 1629 -29 q 1847 7 1785 -29 q 1945 103 1908 43 q 1982 238 1982 164 q 1945 372 1982 311 q 1847 468 1908 432 q 1706 504 1785 504 q 1567 468 1629 504 q 1467 372 1504 432 q 1431 238 1431 311 m 1626 238 q 1637 278 1626 260 q 1665 307 1647 296 q 1706 318 1683 318 q 1747 307 1729 318 q 1776 278 1765 296 q 1788 238 1788 260 q 1776 198 1788 217 q 1747 168 1765 179 q 1706 157 1729 157 q 1665 168 1683 157 q 1637 198 1647 179 q 1626 238 1626 217 m 26 736 q 63 601 26 663 q 163 505 100 540 q 301 469 225 469 q 442 505 379 469 q 541 601 504 540 q 578 736 578 663 q 541 870 578 810 q 442 967 504 931 q 301 1003 379 1003 q 163 967 225 1003 q 63 870 100 931 q 26 736 26 810 m 221 736 q 232 776 221 758 q 261 806 243 794 q 301 817 279 817 q 343 806 325 817 q 372 776 361 794 q 382 736 382 758 q 372 696 382 715 q 343 666 361 676 q 301 656 325 656 q 261 666 279 656 q 232 696 243 676 q 221 736 221 715 m 768 238 q 805 103 768 164 q 905 7 842 43 q 1044 -29 968 -29 q 1184 7 1122 -29 q 1283 103 1246 43 q 1319 238 1319 164 q 1283 372 1319 311 q 1184 468 1246 432 q 1044 504 1122 504 q 905 468 968 504 q 805 372 842 432 q 768 238 768 311 m 964 238 q 974 278 964 260 q 1003 307 985 296 q 1044 318 1021 318 q 1085 307 1067 318 q 1114 278 1103 296 q 1125 238 1125 260 q 1114 198 1125 217 q 1085 168 1103 179 q 1044 157 1067 157 q 1003 168 1021 157 q 974 198 985 179 q 964 238 964 217 m 939 972 l 157 0 l 407 0 l 1189 972 l 939 972 z "},"‱":{"ha":2671,"x_min":26,"x_max":2644,"o":"m 2093 238 q 2130 103 2093 164 q 2229 7 2167 43 q 2368 -29 2292 -29 q 2508 7 2446 -29 q 2608 103 2571 43 q 2644 238 2644 164 q 2608 372 2644 311 q 2508 468 2571 432 q 2368 504 2446 504 q 2229 468 2292 504 q 2130 372 2167 432 q 2093 238 2093 311 m 2288 238 q 2299 278 2288 260 q 2328 307 2310 296 q 2368 318 2346 318 q 2410 307 2392 318 q 2438 278 2428 296 q 2449 238 2449 260 q 2438 198 2449 217 q 2410 168 2428 179 q 2368 157 2392 157 q 2328 168 2346 157 q 2299 198 2310 179 q 2288 238 2288 217 m 1431 238 q 1467 103 1431 164 q 1567 7 1504 43 q 1706 -29 1629 -29 q 1847 7 1785 -29 q 1945 103 1908 43 q 1982 238 1982 164 q 1945 372 1982 311 q 1847 468 1908 432 q 1706 504 1785 504 q 1567 468 1629 504 q 1467 372 1504 432 q 1431 238 1431 311 m 1626 238 q 1637 278 1626 260 q 1665 307 1647 296 q 1706 318 1683 318 q 1747 307 1729 318 q 1776 278 1765 296 q 1788 238 1788 260 q 1776 198 1788 217 q 1747 168 1765 179 q 1706 157 1729 157 q 1665 168 1683 157 q 1637 198 1647 179 q 1626 238 1626 217 m 26 736 q 63 601 26 663 q 163 505 100 540 q 301 469 225 469 q 442 505 379 469 q 541 601 504 540 q 578 736 578 663 q 541 870 578 810 q 442 967 504 931 q 301 1003 379 1003 q 163 967 225 1003 q 63 870 100 931 q 26 736 26 810 m 221 736 q 232 776 221 758 q 261 806 243 794 q 301 817 279 817 q 343 806 325 817 q 372 776 361 794 q 382 736 382 758 q 372 696 382 715 q 343 666 361 676 q 301 656 325 656 q 261 666 279 656 q 232 696 243 676 q 221 736 221 715 m 768 238 q 805 103 768 164 q 905 7 842 43 q 1044 -29 968 -29 q 1184 7 1122 -29 q 1283 103 1246 43 q 1319 238 1319 164 q 1283 372 1319 311 q 1184 468 1246 432 q 1044 504 1122 504 q 905 468 968 504 q 805 372 842 432 q 768 238 768 311 m 964 238 q 974 278 964 260 q 1003 307 985 296 q 1044 318 1021 318 q 1085 307 1067 318 q 1114 278 1103 296 q 1125 238 1125 260 q 1114 198 1125 217 q 1085 168 1103 179 q 1044 157 1067 157 q 1003 168 1021 157 q 974 198 985 179 q 964 238 964 217 m 939 972 l 157 0 l 407 0 l 1189 972 l 939 972 z "},"'":{"ha":435,"x_min":78,"x_max":385,"o":"m 136 972 l 78 522 l 232 522 l 385 972 l 136 972 z "},"\"":{"ha":742,"x_min":78,"x_max":692,"o":"m 136 972 l 78 522 l 232 522 l 385 972 l 136 972 m 442 972 l 383 522 l 539 522 l 692 972 l 442 972 z "},"‘":{"ha":483,"x_min":97,"x_max":414,"o":"m 342 608 l 414 972 l 242 972 l 97 608 l 342 608 z "},"’":{"ha":483,"x_min":69,"x_max":386,"o":"m 142 972 l 69 608 l 242 608 l 386 972 l 142 972 z "},"“":{"ha":817,"x_min":97,"x_max":747,"o":"m 342 608 l 414 972 l 242 972 l 97 608 l 342 608 m 675 608 l 747 972 l 575 972 l 431 608 l 675 608 z "},"”":{"ha":817,"x_min":69,"x_max":719,"o":"m 142 972 l 69 608 l 242 608 l 386 972 l 142 972 m 475 972 l 403 608 l 575 608 l 719 972 l 475 972 z "},"‚":{"ha":483,"x_min":83,"x_max":400,"o":"m 156 111 l 83 -253 l 256 -253 l 400 111 l 156 111 z "},"„":{"ha":817,"x_min":69,"x_max":719,"o":"m 142 111 l 69 -253 l 242 -253 l 386 111 l 142 111 m 475 111 l 403 -253 l 575 -253 l 719 111 l 475 111 z "},"‹":{"ha":486,"x_min":33,"x_max":422,"o":"m 214 360 l 422 618 l 275 714 l 33 354 l 275 -6 l 422 90 l 214 360 z "},"›":{"ha":486,"x_min":64,"x_max":453,"o":"m 272 349 l 64 90 l 211 -6 l 453 354 l 211 714 l 64 618 l 272 349 z "},"«":{"ha":764,"x_min":33,"x_max":724,"o":"m 515 360 l 724 618 l 575 714 l 333 354 l 575 -6 l 724 90 l 515 360 m 214 360 l 422 618 l 275 714 l 33 354 l 275 -6 l 422 90 l 214 360 z "},"»":{"ha":764,"x_min":42,"x_max":731,"o":"m 250 349 l 42 90 l 189 -6 l 431 354 l 189 714 l 42 618 l 250 349 m 550 349 l 342 90 l 490 -6 l 731 354 l 490 714 l 342 618 l 550 349 z "},"*":{"ha":822,"x_min":50,"x_max":772,"o":"m 704 840 l 393 683 l 429 574 l 772 631 l 704 840 m 703 415 l 457 661 l 365 596 l 524 286 l 703 415 m 299 286 l 457 596 l 365 661 l 119 415 l 299 286 m 50 631 l 393 574 l 429 683 l 118 840 l 50 631 m 301 972 l 354 629 l 468 629 l 521 972 l 301 972 z "},"†":{"ha":904,"x_min":125,"x_max":779,"o":"m 125 750 l 125 556 l 779 556 l 779 750 l 125 750 m 340 972 l 340 -208 l 564 -208 l 564 972 l 340 972 z "},"‡":{"ha":904,"x_min":125,"x_max":779,"o":"m 125 233 l 125 40 l 779 40 l 779 233 l 125 233 m 125 750 l 125 556 l 779 556 l 779 750 l 125 750 m 340 972 l 340 -208 l 564 -208 l 564 972 l 340 972 z "},".":{"ha":457,"x_min":82,"x_max":375,"o":"m 82 106 q 123 5 82 47 q 229 -37 164 -37 q 335 5 294 -37 q 375 106 375 47 q 335 208 375 165 q 229 250 294 250 q 123 208 164 250 q 82 106 82 165 z "},",":{"ha":456,"x_min":33,"x_max":394,"o":"m 156 153 l 33 -207 l 214 -240 l 394 107 l 156 153 z "},":":{"ha":457,"x_min":82,"x_max":375,"o":"m 82 106 q 123 5 82 47 q 229 -37 164 -37 q 335 5 294 -37 q 375 106 375 47 q 335 208 375 165 q 229 250 294 250 q 123 208 164 250 q 82 106 82 165 m 82 622 q 123 522 82 564 q 229 479 164 479 q 335 522 294 479 q 375 622 375 564 q 335 724 375 682 q 229 767 294 767 q 123 724 164 767 q 82 622 82 682 z "},";":{"ha":572,"x_min":72,"x_max":457,"o":"m 163 611 q 204 510 163 553 q 310 468 246 468 q 416 510 375 468 q 457 611 457 553 q 416 713 457 671 q 310 756 375 756 q 204 713 246 756 q 163 611 163 671 m 194 153 l 72 -207 l 254 -240 l 435 107 l 194 153 z "},"…":{"ha":1294,"x_min":82,"x_max":1208,"o":"m 82 106 q 123 5 82 47 q 229 -37 164 -37 q 335 5 294 -37 q 375 106 375 47 q 335 208 375 165 q 229 250 294 250 q 123 208 164 250 q 82 106 82 165 m 499 106 q 540 5 499 47 q 646 -37 581 -37 q 751 5 711 -37 q 792 106 792 47 q 751 208 792 165 q 646 250 711 250 q 540 208 581 250 q 499 106 499 165 m 915 106 q 956 5 915 47 q 1063 -37 997 -37 q 1168 5 1128 -37 q 1208 106 1208 47 q 1168 208 1208 165 q 1063 250 1128 250 q 956 208 997 250 q 915 106 915 165 z "},"!":{"ha":494,"x_min":100,"x_max":396,"o":"m 100 972 l 150 333 l 346 333 l 396 972 l 100 972 m 100 94 q 142 -1 100 36 q 247 -37 183 -37 q 353 -1 313 -37 q 394 94 394 36 q 353 191 394 154 q 247 228 313 228 q 142 191 183 228 q 100 94 100 154 z "},"¡":{"ha":494,"x_min":100,"x_max":396,"o":"m 396 -312 l 346 326 l 150 326 l 100 -312 l 396 -312 m 394 565 q 353 660 394 624 q 247 697 313 697 q 142 660 183 697 q 100 565 100 624 q 142 470 100 507 q 247 433 183 433 q 353 470 313 433 q 394 565 394 507 z "},"?":{"ha":899,"x_min":61,"x_max":826,"o":"m 586 694 q 561 628 586 664 q 483 567 536 593 q 347 540 431 540 l 300 540 l 328 292 l 522 292 l 528 394 q 671 447 603 410 q 783 546 739 483 q 826 694 826 608 q 795 826 826 769 q 711 923 764 883 q 592 983 658 963 q 457 1003 526 1003 q 306 981 375 1003 q 176 918 236 960 q 61 817 115 876 l 218 682 q 321 773 260 742 q 443 804 382 804 q 521 791 489 804 q 569 753 553 778 q 586 694 586 729 m 279 89 q 320 1 279 39 q 425 -37 361 -37 q 532 1 492 -37 q 572 89 572 39 q 532 178 572 140 q 425 217 492 217 q 320 178 361 217 q 279 89 279 140 z "},"¿":{"ha":899,"x_min":72,"x_max":839,"o":"m 314 278 q 339 344 314 308 q 417 406 364 379 q 553 432 469 432 l 600 432 l 572 681 l 376 681 l 371 578 q 229 526 299 564 q 116 427 160 489 q 72 278 72 365 q 103 146 72 203 q 188 49 135 89 q 307 -10 242 10 q 442 -31 372 -31 q 594 -9 525 -31 q 724 54 664 13 q 839 156 783 96 l 681 290 q 579 199 640 231 q 456 168 518 168 q 378 181 410 168 q 331 219 347 194 q 314 278 314 244 m 621 883 q 580 972 621 935 q 474 1010 539 1010 q 368 972 410 1010 q 326 883 326 935 q 368 794 326 832 q 474 756 410 756 q 580 794 539 756 q 621 883 621 832 z "},"/":{"ha":883,"x_min":21,"x_max":863,"o":"m 633 972 l 21 -208 l 261 -208 l 863 972 l 633 972 z "},"\\":{"ha":771,"x_min":21,"x_max":750,"o":"m 21 972 l 521 0 l 750 0 l 251 972 l 21 972 z "},"⁄":{"ha":1024,"x_min":83,"x_max":997,"o":"m 806 972 l 83 0 l 275 0 l 997 972 l 806 972 z "},"|":{"ha":522,"x_min":139,"x_max":383,"o":"m 139 1090 l 139 -299 l 383 -299 l 383 1090 l 139 1090 z "},"¦":{"ha":522,"x_min":139,"x_max":383,"o":"m 139 965 l 139 588 l 383 588 l 383 965 l 139 965 m 383 385 l 139 385 l 139 7 l 383 7 l 383 385 z "}}}
